<?xml version="1.0" standalone="no"?>
<!DOCTYPE svg PUBLIC "-//W3C//DTD SVG 20010904//EN"
 "http://www.w3.org/TR/2001/REC-SVG-20010904/DTD/svg10.dtd">
<svg version="1.0" xmlns="http://www.w3.org/2000/svg"
 width="700.000000pt" height="700.000000pt" viewBox="0 0 700.000000 700.000000"
 preserveAspectRatio="xMidYMid meet">
<metadata>
Created by potrace 1.11, written by Peter Selinger 2001-2013
</metadata>
<g transform="translate(0.000000,700.000000) scale(0.100000,-0.100000)"
fill="#000000" stroke="none">
<path d="M3278 6995 c-1 -1 -37 -5 -78 -9 -97 -8 -222 -23 -285 -36 -27 -5
-61 -12 -75 -14 -544 -99 -1089 -352 -1540 -715 -584 -470 -1010 -1135 -1194
-1866 -21 -84 -32 -138 -61 -295 -2 -14 -8 -58 -20 -150 -27 -206 -27 -672 -1
-817 2 -10 7 -45 11 -78 4 -32 9 -68 11 -80 2 -11 7 -36 10 -55 15 -94 61
-280 101 -410 131 -424 340 -818 612 -1157 434 -539 1005 -933 1660 -1144 69
-22 133 -42 141 -44 8 -2 62 -15 120 -28 107 -26 244 -52 315 -62 22 -2 56 -7
75 -10 197 -28 643 -27 854 2 34 4 196 32 341 59 55 10 329 92 427 128 351
128 690 319 993 561 101 81 112 91 243 218 417 403 726 904 901 1462 33 107
72 252 86 325 58 298 73 458 70 776 -1 144 -5 265 -7 270 -3 5 -9 41 -12 79
-3 39 -8 81 -11 95 -3 14 -8 45 -11 70 -3 25 -7 53 -10 62 -5 18 -11 46 -20
93 -13 73 -66 269 -99 370 -213 633 -580 1171 -1095 1603 -73 61 -310 234
-354 258 -11 6 -51 29 -87 52 -138 85 -368 197 -538 262 -155 60 -373 124
-526 155 -44 9 -89 19 -100 21 -11 2 -45 7 -75 10 -30 3 -58 8 -61 9 -3 2 -35
7 -71 10 -35 4 -78 9 -94 11 -33 5 -540 14 -546 9z m508 -298 c11 -3 52 -8 90
-12 126 -11 204 -25 374 -66 1063 -256 1918 -1030 2280 -2062 23 -67 61 -186
65 -207 1 -3 12 -48 24 -100 13 -52 25 -104 27 -115 1 -11 10 -58 18 -105 33
-190 40 -286 41 -525 0 -243 -7 -332 -41 -540 -131 -800 -590 -1551 -1244
-2032 -185 -136 -442 -284 -620 -358 -36 -14 -78 -32 -95 -40 -165 -74 -579
-181 -775 -200 -36 -4 -76 -9 -90 -12 -44 -9 -532 -12 -610 -3 -41 5 -97 12
-125 15 -70 8 -110 14 -185 30 -36 8 -81 17 -100 20 -19 3 -43 8 -52 11 -9 3
-26 7 -37 9 -46 9 -253 73 -306 95 -11 4 -58 23 -105 41 -152 58 -425 199
-550 284 -129 88 -176 122 -195 136 -466 379 -769 759 -982 1234 -78 174 -163
417 -188 532 -2 10 -15 70 -28 133 -14 63 -28 140 -32 170 -4 30 -9 62 -10 71
-20 109 -28 595 -12 734 52 441 156 792 344 1155 96 185 206 360 310 490 398
501 886 850 1473 1055 115 40 378 108 480 125 36 5 76 12 90 14 47 8 115 16
190 22 41 3 77 8 79 10 5 5 472 -4 497 -9z"/>
<path d="M1752 3422 l3 -1136 252 -1 c246 0 253 1 254 20 0 11 1 195 2 410 l2
389 138 1 c81 0 142 -4 146 -10 5 -5 36 -64 71 -130 62 -119 105 -200 215
-405 31 -58 75 -142 98 -187 l41 -83 288 0 c159 0 288 2 288 4 0 1 -52 95
-116 207 -230 404 -338 595 -365 644 l-27 51 52 27 c255 134 383 415 342 752
-9 74 -48 193 -83 252 -78 133 -245 250 -413 289 -19 4 -37 8 -40 9 -3 1 -27
5 -55 10 -27 4 -59 10 -70 13 -11 2 -246 6 -523 8 l-502 3 2 -1137z m950 712
c87 -20 127 -40 170 -85 49 -53 63 -97 63 -204 -1 -72 -5 -100 -23 -140 -66
-145 -190 -194 -487 -191 l-160 1 -1 318 0 318 188 -1 c124 -1 209 -7 250 -16z"/>
<path d="M3642 4344 l-1 -214 127 -1 c70 0 211 -1 314 -1 l186 -1 1 -866 c0
-476 0 -891 0 -921 l1 -55 252 0 253 1 3 921 2 921 293 0 c160 0 301 1 313 1
20 1 20 5 20 214 l-1 212 -882 2 -881 1 0 -214z"/>
</g>
</svg>
