<?xml version="1.0" encoding="utf-8"?>
<!-- Generator: Adobe Illustrator 16.0.0, SVG Export Plug-In . SVG Version: 6.00 Build 0)  -->
<!DOCTYPE svg PUBLIC "-//W3C//DTD SVG 1.1//EN" "http://www.w3.org/Graphics/SVG/1.1/DTD/svg11.dtd">
<svg version="1.1" id="Layer_1" xmlns="http://www.w3.org/2000/svg" xmlns:xlink="http://www.w3.org/1999/xlink" x="0px" y="0px"
	 width="183.684px" height="161.6px" viewBox="111.502 98.4 183.684 161.6" enable-background="new 111.502 98.4 183.684 161.6"
	 xml:space="preserve">
<g>
	<path fill="#603864" d="M266.824,119.87c0.668-0.58,1.286-1.117,1.904-1.654c1.39,0,2.762,0,4.303,0
		c-1.175,1.033-2.253,1.98-3.369,2.961c0,0.226,0,0.46,0,0.695c0.002,3.915,0.008,7.83,0.005,11.745
		c-0.003,3.329-0.806,6.436-2.595,9.266c-0.995,1.573-2.303,2.811-3.897,3.769c-2.476,1.486-5.074,2.73-7.706,3.9
		c-7.107,3.156-14.387,5.875-21.699,8.509c-0.653,0.235-1.269,0.265-1.935,0.152c-1.353-0.229-2.712-0.417-4.126-0.631
		c-0.017,0.218-0.043,0.391-0.043,0.565c0,3.518,0.021,7.036-0.001,10.554c-0.029,4.661-1.795,8.635-4.852,12.09
		c-2.268,2.563-4.962,4.596-7.892,6.325c-2.923,1.725-6.007,3.106-9.222,4.199c-0.757,0.257-1.436,0.285-2.214,0.015
		c-4.906-1.711-9.504-3.988-13.592-7.225c-2.574-2.036-4.784-4.402-6.352-7.319c-1.339-2.493-2.045-5.145-2.038-7.983
		c0.008-3.412,0.002-6.825,0.002-10.237c0-0.284,0-0.569,0-0.9c-0.29,0-0.495-0.025-0.693,0.004
		c-1.203,0.179-2.404,0.37-3.605,0.558c-0.523,0.082-1.023,0.124-1.556-0.067c-6.918-2.48-13.812-5.027-20.542-7.987
		c-2.659-1.169-5.242-2.511-7.86-3.774c-0.071-0.034-0.138-0.078-0.209-0.113c-4.16-2.097-6.293-5.65-7.22-10.064
		c-0.278-1.324-0.361-2.666-0.354-4.021c0.02-3.994,0.007-7.987,0.007-12.035c-1.078-0.94-2.167-1.891-3.351-2.924
		c1.507,0,2.887,0,4.318,0c0.587,0.509,1.205,1.044,1.868,1.62c0,0.267,0,0.555,0,0.843c-0.001,4.285-0.002,8.57-0.005,12.855
		c0,2.45,0.518,4.775,1.666,6.948c0.832,1.574,1.965,2.859,3.518,3.782c2.302,1.368,4.71,2.516,7.153,3.594
		c7.187,3.171,14.529,5.949,21.928,8.583c0.193,0.069,0.417,0.137,0.61,0.104c1.405-0.243,2.805-0.513,4.189-0.771
		c0.165-0.578,0.203-2.703,0.067-3.788c-0.987-0.527-2.01-1.072-3.081-1.644c-1.429,0.942-2.859,1.884-4.351,2.866
		c-4.388-2.717-8.786-5.439-13.147-8.14c-0.119-0.683-0.187-1.314-0.342-1.924c-0.479-1.891-1.425-3.531-2.84-4.869
		c-1.918-1.813-4.146-3.093-6.734-3.688c-0.561-0.129-1.141-0.175-1.759-0.267c0-0.896,0-1.781,0-2.729
		c3.252-0.016,5.994,1.325,8.582,3.081c2.659,1.804,4.427,4.275,5.427,7.441c1.826-1.448,3.595-2.851,5.364-4.255
		c1.779-1.413,3.557-2.826,5.345-4.248c0.167,0.555,0.203,2.556,0.066,3.572c-2.929,2.327-5.887,4.678-8.846,7.029
		c0.379,0.441,7.402,4.867,8.885,5.598c0.709-0.468,1.454-0.96,2.267-1.496c0-2.654,0-5.321,0-7.987c0-2.642,0-5.284,0-8.016
		c1.122,0,2.192,0,3.381,0c-0.32-1.115-0.607-2.114-0.903-3.145c-1.332,0-2.619,0-3.998,0c-0.576,0.624-1.195,1.306-1.829,1.977
		c-0.197,0.21-0.409,0.419-0.648,0.576c-2.744,1.795-5.494,3.58-8.243,5.366c-0.043,0.029-0.097,0.041-0.171,0.071
		c-0.523-0.745-1.05-1.495-1.603-2.282c0.97-0.638,1.938-1.278,2.91-1.912c1.75-1.14,3.508-2.27,5.252-3.418
		c0.305-0.201,0.583-0.456,0.83-0.726c0.748-0.819,1.474-1.659,2.214-2.498c2.449,0,4.876,0,7.408,0
		c0.569,1.945,1.144,3.912,1.729,5.917c14.646,0,29.258,0,43.94,0c0.569-1.948,1.137-3.897,1.719-5.893c2.459,0,4.908,0,7.435,0
		c0.658,0.744,1.345,1.547,2.066,2.319c0.339,0.362,0.713,0.709,1.125,0.981c2.45,1.616,4.916,3.208,7.376,4.809
		c0.197,0.128,0.392,0.263,0.621,0.417c-0.539,0.767-1.063,1.512-1.608,2.289c-0.154-0.093-0.312-0.182-0.459-0.279
		c-2.499-1.638-4.989-3.291-7.502-4.908c-0.743-0.479-1.398-1.031-1.956-1.713c-0.315-0.387-0.662-0.75-0.977-1.105
		c-1.339,0-2.63,0-3.982,0c-0.295,1.019-0.585,2.025-0.9,3.117c1.156,0,2.229,0,3.386,0c0,5.397,0,10.725,0,16.05
		c0.784,0.519,1.508,0.999,2.303,1.524c2.953-1.826,5.91-3.655,8.952-5.537c-3.051-2.426-6.023-4.79-8.998-7.155
		c0-1.185,0-2.341,0-3.621c3.62,2.875,7.167,5.692,10.801,8.577c0.668-2.027,1.623-3.827,3.031-5.364
		c1.434-1.564,3.183-2.694,5.057-3.645c1.857-0.944,3.808-1.543,5.958-1.5c0,0.917,0,1.805,0,2.734
		c-0.318,0.042-0.629,0.076-0.936,0.125c-3.609,0.582-6.551,2.325-8.776,5.208c-1.186,1.538-1.818,3.333-1.94,5.373
		c-4.367,2.705-8.769,5.429-13.191,8.168c-1.45-0.953-2.883-1.895-4.356-2.863c-1.02,0.543-2.041,1.086-3.074,1.637
		c0,1.252,0,2.462,0,3.757c0.266,0.061,0.539,0.134,0.816,0.186c1.039,0.191,2.084,0.363,3.12,0.571
		c0.352,0.071,0.662,0.051,1.002-0.071c7.242-2.596,14.448-5.287,21.479-8.419c2.362-1.053,4.658-2.262,6.972-3.425
		c2.346-1.179,3.8-3.142,4.729-5.537c0.696-1.795,1.014-3.658,1.006-5.587c-0.017-4.259-0.008-8.517-0.01-12.776
		C266.824,120.441,266.824,120.178,266.824,119.87z M223.84,174.751c0.161-0.459,0.294-0.802,0.402-1.154
		c0.411-1.35,0.592-2.736,0.592-4.146c0.003-6.11,0.002-12.22,0.002-18.33c0-0.26,0-0.52,0-0.804
		c1.766-0.936,3.487-1.85,5.188-2.751c0-4.162,0-8.251,0-12.332c-0.927-0.167-50.284-0.129-50.884,0.039c0,4.084,0,8.176,0,12.303
		c1.734,0.922,3.456,1.838,5.161,2.744c0,1.069,0,2.07,0,3.072c0,5.343-0.007,10.686,0,16.028c0.001,1.543,0.199,3.06,0.716,4.522
		c0.074,0.209,0.187,0.405,0.3,0.648c0.476-0.362,0.888-0.675,1.342-1.021c0.056,0.924-0.273,1.763-0.166,2.636
		c0.757-0.066,1.433-0.124,2.187-0.188c-0.259,0.741-0.49,1.406-0.747,2.145c0.891,0.131,1.732,0.255,2.692,0.398
		c-0.4,0.321-0.705,0.565-1.009,0.811c-0.321,0.258-0.641,0.517-0.976,0.787c3.76,3.527,7.922,6.285,12.559,8.24
		c0.163,0.86-0.064,1.676,0.166,2.552c0.612-0.596,1.152-1.122,1.753-1.706c0.496,1.014,0.95,1.944,1.451,2.969
		c0.516-1.05,0.967-1.967,1.438-2.929c0.62,0.558,1.114,1.128,1.811,1.701c0-0.943,0-1.724,0-2.516
		c4.68-2.033,8.931-4.619,12.513-8.303c-0.682-0.546-1.306-1.046-2.008-1.608c0.973-0.141,1.803-0.262,2.689-0.391
		c-0.254-0.741-0.48-1.404-0.731-2.138c0.771,0.059,1.467,0.112,2.239,0.172c-0.094-0.902-0.181-1.73-0.277-2.67
		C222.801,173.959,223.275,174.32,223.84,174.751z"/>
	<path fill="#603864" d="M126.771,136.35c0,0.909,0,1.774,0,2.748c-0.294-0.017-0.573-0.012-0.845-0.052
		c-2.207-0.325-3.594-1.596-4.115-3.741c-0.565-2.329-0.136-4.529,1.173-6.521c1.134-1.728,2.831-2.592,4.851-2.786
		c0.834-0.08,1.705-0.085,2.526,0.062c2.563,0.46,4.108,2.126,5.009,4.479c0.567,1.483,0.675,3.036,0.678,4.602
		c0.003,1.977-0.454,3.881-0.947,5.775c-1.471,5.658-3.347,11.189-5.258,16.709c-1.073,3.1-0.859,6.093,0.914,8.901
		c1.042,1.65,2.529,2.827,4.223,3.756c0.439,0.242,0.902,0.442,1.344,0.68c2.919,1.57,4.521,3.982,4.623,7.324
		c0.094,3.038-1,5.563-3.285,7.588c-2.098,1.859-4.16,3.758-6.24,5.637c-0.098,0.088-0.208,0.161-0.328,0.253
		c1.396,4.262,2.775,8.47,4.177,12.747c-3.927,0-7.75,0-11.682,0c0.404-0.907,0.782-1.76,1.187-2.671c2.208,0,4.392,0,6.655,0
		c-1.214-3.681-2.398-7.266-3.595-10.894c0.218-0.205,0.422-0.405,0.635-0.598c2.451-2.218,4.897-4.441,7.359-6.646
		c1.367-1.224,2.125-2.726,2.286-4.555c0.216-2.444-0.984-4.597-3.182-5.729c-1.054-0.543-2.121-1.091-3.09-1.77
		c-2.932-2.051-4.782-4.828-5.284-8.41c-0.308-2.201-0.159-4.382,0.581-6.496c1.728-4.941,3.395-9.901,4.796-14.946
		c0.565-2.036,1.145-4.075,1.276-6.2c0.083-1.328-0.003-2.657-0.445-3.915c-0.886-2.522-2.624-3.283-5.204-2.78
		c-1.227,0.24-2.082,0.993-2.604,2.119c-0.396,0.853-0.582,1.756-0.546,2.696C124.474,135.351,125.1,136.064,126.771,136.35z"/>
	<path fill="#603864" d="M281.303,190.951c-1.19,3.604-2.373,7.187-3.59,10.867c1.899,0.101,3.737-0.011,5.606,0.065
		c0.693,0.851,1.391,1.705,2.147,2.632c-3.895,0-7.687,0-11.6,0c1.398-4.269,2.773-8.473,4.164-12.717
		c-1.106-1.004-2.199-1.998-3.295-2.988c-1.237-1.116-2.502-2.202-3.707-3.352c-1.652-1.575-2.569-3.536-2.805-5.802
		c-0.12-1.163-0.067-2.325,0.253-3.462c0.693-2.47,2.257-4.208,4.529-5.328c1.095-0.539,2.164-1.112,3.119-1.877
		c2.606-2.091,3.921-4.793,3.813-8.15c-0.033-1.088-0.26-2.145-0.621-3.178c-1.93-5.515-3.801-11.049-5.269-16.709
		c-0.484-1.869-0.951-3.743-0.96-5.694c-0.009-1.811,0.13-3.599,0.904-5.272c1.242-2.689,3.313-4.125,6.32-4.04
		c0.786,0.022,1.586,0.125,2.345,0.327c1.747,0.467,3.063,1.543,3.889,3.151c1.028,2.004,1.344,4.116,0.66,6.301
		c-0.667,2.132-2.508,3.407-4.746,3.353c-0.166-0.533-0.191-1.847-0.052-2.71c0.021-0.018,0.038-0.049,0.058-0.05
		c1.748-0.108,2.2-1.346,2.252-2.633c0.036-0.885-0.124-1.744-0.496-2.545c-0.187-0.403-0.418-0.807-0.711-1.136
		c-1.805-2.021-5.506-1.56-6.774,0.83c-0.439,0.831-0.641,1.728-0.745,2.655c-0.2,1.758,0.008,3.48,0.408,5.19
		c0.82,3.504,1.883,6.938,3.001,10.354c0.864,2.638,1.822,5.245,2.641,7.896c1.139,3.697,0.959,7.315-1.004,10.73
		c-1.29,2.243-3.214,3.832-5.447,5.072c-0.393,0.218-0.798,0.415-1.205,0.605c-2.492,1.17-3.863,3.586-3.231,6.713
		c0.279,1.385,0.953,2.564,2.013,3.52c2.516,2.265,5.023,4.538,7.533,6.809C280.895,190.555,281.079,190.739,281.303,190.951z"/>
	<path fill="#603864" d="M204.591,195.992c5.939-2.012,11.503-4.653,16.409-8.55c2.714-2.156,5.062-4.644,6.769-7.694
		c1.53-2.736,2.297-5.669,2.302-8.8c0.005-3.041-0.012-6.083-0.017-9.124c-0.001-0.048,0.03-0.097,0.075-0.229
		c0.884,0.143,1.782,0.286,2.741,0.44c0,0.346,0.001,0.656,0.001,0.966c-0.001,2.539-0.042,5.079,0.007,7.617
		c0.107,5.524-1.806,10.296-5.307,14.487c-2.814,3.371-6.254,5.988-10.017,8.2c-3.913,2.301-8.045,4.11-12.382,5.449
		c-0.357,0.11-0.694,0.17-1.076,0.047c-6.423-2.055-12.426-4.928-17.744-9.126c-3.016-2.383-5.608-5.148-7.484-8.533
		c-1.643-2.966-2.567-6.137-2.593-9.54c-0.022-3.015-0.008-6.03-0.006-9.045c0-0.154,0.023-0.307,0.041-0.523
		c0.897-0.147,1.775-0.292,2.741-0.45c0.02,0.268,0.049,0.49,0.049,0.712c0.004,2.671,0.072,5.345-0.012,8.013
		c-0.161,5.123,1.715,9.442,5.008,13.239c2.309,2.663,5.056,4.801,8.03,6.659C196.023,192.644,200.18,194.523,204.591,195.992z"/>
	<path fill="#603864" d="M291.893,233.264c0-6.683,0-13.363,0-20.029c0.641-0.163,2.479-0.179,3.293-0.036
		c0,8.154,0,16.316,0,24.476c-0.572,0.165-2.875,0.199-4.232,0.058c-4.542-6.692-9.109-13.42-13.676-20.149
		c-0.049,0.015-0.095,0.029-0.143,0.042c0,6.691,0,13.382,0,20.123c-1.148,0-2.216,0-3.316,0c0-8.217,0-16.378,0-24.592
		c1.447,0,2.862,0,4.398,0c4.474,6.659,8.995,13.391,13.515,20.121C291.784,233.271,291.839,233.268,291.893,233.264z"/>
	<path fill="#603864" d="M252.5,164.028c-1.131-2.873-2.232-5.669-3.357-8.527c0.869-0.356,1.692-0.693,2.611-1.07
		c1.473,3.63,2.853,7.241,4.313,10.932c-0.879,0.466-1.698,0.937-2.55,1.344c-2.552,1.223-5.067,2.509-7.45,4.042
		c-0.578,0.371-1.138,0.771-1.695,1.173c-1.461,1.054-2.001,2.549-1.965,4.282c0.021,1.009,0.264,1.986,0.6,2.941
		c1.605,4.561,3.205,9.125,4.807,13.689c0.044,0.123,0.078,0.25,0.14,0.455c-0.949,1.973-1.92,3.992-2.908,6.046
		c-0.644,0.082-1.267,0.167-1.892,0.242c-1.338,0.161-2.676,0.33-4.016,0.466c-0.365,0.038-0.655,0.154-0.905,0.415
		c-0.184,0.189-0.371,0.383-0.588,0.53c-0.365,0.252-0.475,0.607-0.521,1.018c-0.094,0.813-0.205,1.624-0.317,2.5
		c-8.145,0.472-15.188-1.98-21.237-7.559c0.493-0.293,0.897-0.526,1.295-0.773c0.38-0.236,0.751-0.488,1.197-0.779
		c4.612,4.019,9.956,6.234,16.22,6.337c0.061-0.401,0.134-0.753,0.161-1.107c0.036-0.447,0.213-0.788,0.56-1.083
		c0.686-0.582,1.346-1.194,2.003-1.808c0.243-0.228,0.506-0.346,0.839-0.382c1.629-0.181,3.255-0.383,4.882-0.578
		c0.13-0.016,0.258-0.045,0.438-0.077c0.566-1.174,1.138-2.362,1.734-3.6c-0.504-1.444-1.016-2.914-1.529-4.382
		c-1.04-2.968-2.077-5.937-3.125-8.902c-0.639-1.808-0.842-3.657-0.516-5.544c0.319-1.853,1.271-3.343,2.765-4.479
		c2.133-1.623,4.457-2.934,6.83-4.162C250.352,165.094,251.394,164.584,252.5,164.028z"/>
	<path fill="#603864" d="M153.067,165.365c1.457-3.706,2.866-7.291,4.301-10.946c0.889,0.37,1.729,0.719,2.62,1.089
		c-1.124,2.859-2.223,5.655-3.35,8.521c0.796,0.396,1.573,0.774,2.343,1.166c2.57,1.309,5.089,2.701,7.424,4.407
		c2.399,1.753,3.316,4.149,3.127,7.048c-0.085,1.305-0.418,2.545-0.853,3.774c-1.493,4.209-2.957,8.427-4.439,12.665
		c0.584,1.213,1.168,2.422,1.752,3.633c1.752,0.211,3.455,0.43,5.161,0.61c0.45,0.048,0.79,0.213,1.11,0.521
		c0.609,0.588,1.238,1.155,1.884,1.702c0.348,0.295,0.534,0.629,0.551,1.086c0.012,0.334,0.083,0.668,0.135,1.066
		c3.063,0.033,5.935-0.573,8.713-1.661c2.757-1.079,5.229-2.637,7.452-4.607c0.838,0.517,1.642,1.011,2.519,1.552
		c-5.995,5.526-13.012,7.966-21.161,7.523c-0.102-0.717-0.245-1.436-0.295-2.162c-0.043-0.646-0.229-1.159-0.77-1.56
		c-0.461-0.342-0.826-0.735-1.491-0.787c-1.686-0.129-3.361-0.376-5.041-0.577c-0.207-0.025-0.413-0.063-0.665-0.101
		c-0.964-1.998-1.928-3.994-2.915-6.042c0.352-1.022,0.706-2.072,1.072-3.116c1.31-3.742,2.629-7.48,3.935-11.224
		c0.43-1.234,0.679-2.494,0.485-3.814c-0.193-1.323-0.796-2.385-1.872-3.19c-1.656-1.238-3.432-2.286-5.255-3.251
		c-1.353-0.718-2.741-1.371-4.107-2.066C154.663,166.231,153.902,165.811,153.067,165.365z"/>
	<path fill="#603864" d="M151.553,224.706c0.656,0.206,1.256,0.32,1.788,0.573c2.059,0.984,3.167,2.685,3.408,4.914
		c0.309,2.849-0.98,5.116-3.527,6.445c-1.639,0.855-3.405,1.132-5.217,1.153c-2.618,0.03-5.237,0.011-7.855,0.008
		c-0.153,0-0.306-0.036-0.49-0.061c0-8.193,0-16.357,0-24.567c0.186-0.024,0.36-0.065,0.536-0.065
		c2.777-0.003,5.554-0.011,8.331,0.003c1.364,0.007,2.688,0.256,3.925,0.845c2.048,0.974,3.136,2.609,3.234,4.88
		c0.115,2.679-0.966,4.423-3.406,5.536C152.052,224.475,151.826,224.58,151.553,224.706z M142.981,234.818
		c2.065,0,4.042,0.032,6.017-0.016c0.818-0.021,1.608-0.28,2.323-0.717c1.332-0.815,2.001-1.99,1.943-3.561
		c-0.059-1.56-0.652-2.809-2.091-3.565c-0.909-0.477-1.884-0.681-2.899-0.689c-1.584-0.014-3.169-0.009-4.753-0.006
		c-0.174,0.002-0.349,0.049-0.539,0.077C142.981,229.178,142.981,231.969,142.981,234.818z M143.007,216.033
		c-0.134,1.335-0.086,6.694,0.058,7.281c0.068,0.018,0.143,0.052,0.218,0.052c1.506,0.004,3.014,0.053,4.517-0.018
		c0.778-0.036,1.585-0.186,2.313-0.459c1.412-0.533,2.15-1.885,2.061-3.503c-0.084-1.508-1.043-2.802-2.429-3.184
		c-0.503-0.139-1.041-0.196-1.564-0.206c-1.505-0.026-3.012-0.009-4.518-0.006C143.458,215.991,143.252,216.017,143.007,216.033z"/>
	<path fill="#603864" d="M204.574,237.755c0-8.234,0-16.379,0-24.571c0.186-0.028,0.358-0.076,0.532-0.076
		c2.884-0.004,5.766-0.016,8.649,0.006c1.813,0.014,3.572,0.341,5.265,1.016c2.375,0.948,4.23,2.506,5.449,4.749
		c1.857,3.424,2.291,7.037,0.977,10.727c-1.521,4.268-4.728,6.688-9.032,7.776c-1.344,0.341-2.721,0.396-4.096,0.413
		c-2.406,0.028-4.813,0.01-7.22,0.007C204.944,237.801,204.79,237.774,204.574,237.755z M207.912,234.623
		c0.182,0.025,0.282,0.053,0.384,0.053c1.48,0,2.96,0.026,4.438-0.015c1.38-0.038,2.73-0.29,4.03-0.771
		c2.451-0.906,4.279-2.497,5.254-4.953c0.786-1.98,0.789-4.021,0.28-6.073c-0.612-2.469-2.024-4.318-4.261-5.543
		c-1.331-0.728-2.764-1.044-4.261-1.072c-1.77-0.032-3.54-0.018-5.31-0.017c-0.176,0-0.35,0.045-0.555,0.072
		C207.912,222.42,207.912,228.487,207.912,234.623z"/>
	<path fill="#603864" d="M196.783,237.803c-2.111-3.646-4.201-7.255-6.292-10.868c-1.243,0-2.448,0-3.75,0c0,3.617,0,7.194,0,10.819
		c-1.143,0-2.19,0-3.297,0c0-8.171,0-16.35,0-24.593c0.194-0.019,0.395-0.054,0.595-0.054c2.776-0.004,5.552-0.002,8.327-0.001
		c1.064,0,2.112,0.124,3.125,0.459c2.616,0.868,4.114,2.652,4.451,5.411c0.543,4.46-2.74,7.104-5.611,7.471
		c-0.102,0.013-0.201,0.046-0.396,0.092c2.328,3.733,4.627,7.423,6.994,11.222c-0.744,0.014-1.408,0.033-2.072,0.039
		C198.196,237.807,197.537,237.803,196.783,237.803z M186.782,223.933c0.147,0.028,0.248,0.066,0.349,0.066
		c1.427,0.004,2.855,0.039,4.28-0.01c1.053-0.036,2.111-0.119,3.093-0.589c0.884-0.423,1.499-1.082,1.774-2.02
		c0.25-0.851,0.265-1.719,0.051-2.585c-0.243-0.983-0.81-1.741-1.731-2.142c-0.62-0.268-1.304-0.497-1.971-0.533
		c-1.871-0.098-3.747-0.088-5.622-0.114c-0.07-0.001-0.142,0.056-0.225,0.092C186.782,218.709,186.782,221.313,186.782,223.933z"/>
	<path fill="#603864" d="M255.427,223.62c3.923,0,7.773,0,11.661,0c0,1.044,0,2.014,0,3.086c-0.974,0.039-1.942,0.013-2.91,0.018
		c-0.979,0.004-1.957,0.001-2.936,0.001c-0.952,0-1.904,0-2.855,0c-0.972,0-1.943,0-2.964,0c0,2.665,0,5.244,0,7.918
		c2.188,0.077,4.371,0.022,6.552,0.033c2.19,0.01,4.382,0.001,6.628,0.001c0,1.042,0,2.031,0,3.074c-5.501,0-10.985,0-16.51,0
		c0-8.206,0-16.365,0-24.522c0.563-0.156,14.351-0.22,15.878-0.068c0,0.981,0,1.972,0,3.068c-2.081,0-4.16,0-6.24,0
		c-2.083,0-4.167,0-6.304,0C255.427,218.701,255.427,221.092,255.427,223.62z"/>
	<path fill="#603864" d="M246.252,213.153c0,1.05,0,2.02,0,3.06c-4.179,0-8.32,0-12.435,0c-0.207,0.607-0.247,6.439-0.06,7.376
		c3.831,0,7.678,0,11.632,0c0.013,1.063,0.017,2.049-0.005,3.114c-3.906,0-7.755,0-11.579,0c-0.19,0.611-0.237,6.873-0.068,7.959
		c4.354,0,8.725,0,13.139,0c0,1.061,0,2.028,0,2.998c-0.016,0.018-0.03,0.038-0.05,0.055s-0.04,0.04-0.064,0.045
		c-0.104,0.016-0.209,0.038-0.313,0.038c-5.261,0.001-10.521,0-15.783-0.003c-0.076,0-0.151-0.033-0.222-0.049
		c-0.156-0.565-0.205-23.468-0.049-24.592C235.657,213.153,240.927,213.153,246.252,213.153z"/>
	<path fill="#603864" d="M165.101,234.666c4.333,0,8.682,0,13.081,0c0,1.069,0,2.057,0,3.091c-5.486,0-10.948,0-16.46,0
		c0-8.207,0-16.385,0-24.608c5.278,0,10.526,0,15.827,0c0,1.008,0,1.996,0,3.07c-4.157,0-8.295,0-12.411,0
		c-0.169,0.649-0.214,6.166-0.069,7.357c0.949,0.048,1.918,0.016,2.885,0.021c0.979,0.006,1.957,0.001,2.936,0.001
		c0.952,0,1.903,0,2.855,0c0.972,0,1.944,0,2.959,0c0,1.066,0,2.055,0,3.118c-3.887,0-7.735,0-11.562,0
		C164.959,227.377,164.932,233.748,165.101,234.666z"/>
	<path fill="#603864" d="M122.374,213.137c1.017,0,1.99,0,3.064,0c3.5,8.157,7.017,16.355,10.543,24.575
		c-0.139,0.044-0.21,0.086-0.281,0.086c-1.162,0.005-2.324,0.003-3.57,0.003c-0.828-2.025-1.655-4.049-2.49-6.093
		c-3.936,0-7.842,0-11.816,0c-0.803,1.993-1.61,3.998-2.433,6.043c-1.268,0-2.522,0-3.889,0
		C115.141,229.512,118.754,221.331,122.374,213.137z M123.838,217.515c-0.054-0.01-0.109-0.018-0.164-0.027
		c-0.773,1.872-1.548,3.743-2.319,5.616c-0.767,1.862-1.565,3.714-2.312,5.626c3.165,0,6.216,0,9.358,0
		C126.858,224.938,125.349,221.226,123.838,217.515z"/>
	<path fill="#603864" d="M147.75,168.599c0.158-0.954,0.308-1.859,0.46-2.779c0.126,0.008,0.209-0.009,0.271,0.02
		c3.501,1.676,5.852,4.289,6.619,8.175c0.552,2.8-0.107,5.351-1.652,7.702c-1.313,1.998-3.026,3.593-5.011,4.906
		c-3.243,2.144-6.484,4.288-9.725,6.434c-0.219,0.145-0.428,0.304-0.691,0.492c0.381,1.1,0.759,2.191,1.152,3.327
		c1.328,0.177,2.632,0.367,3.941,0.521c0.564,0.066,1.065,0.218,1.53,0.569c0.841,0.637,1.719,1.224,2.576,1.827
		c0.052,0.689,0.103,1.34,0.156,2.04c3.083,0,6.092,0,9.163,0c0.511,0.871,1.014,1.728,1.564,2.666c-4.497,0-8.896,0-13.354,0
		c-0.283-1.003-0.088-2.072-0.276-3.127c-0.801-0.687-1.633-1.251-2.776-1.323c-1.316-0.082-2.624-0.316-3.934-0.492
		c-0.232-0.03-0.46-0.093-0.726-0.147c-0.801-2.327-1.6-4.648-2.418-7.021c0.245-0.169,0.477-0.337,0.714-0.494
		c3.793-2.51,7.586-5.02,11.379-7.529c1.535-1.015,2.899-2.215,3.995-3.701c0.794-1.077,1.402-2.246,1.633-3.576
		c0.384-2.219-0.246-4.185-1.571-5.955c-0.657-0.878-1.486-1.574-2.412-2.157C148.179,168.862,147.999,168.753,147.75,168.599z"/>
	<path fill="#603864" d="M260.912,165.754c0.16,0.952,0.313,1.854,0.477,2.829c-0.234,0.148-0.475,0.299-0.713,0.453
		c-1.79,1.166-3.084,2.716-3.693,4.792c-0.671,2.292-0.195,4.39,1.095,6.343c1.096,1.657,2.522,2.981,4.17,4.073
		c3.879,2.569,7.763,5.133,11.643,7.699c0.197,0.13,0.388,0.27,0.63,0.439c-0.809,2.347-1.615,4.686-2.434,7.061
		c-1.149,0.156-2.272,0.31-3.396,0.462c-0.366,0.05-0.734,0.147-1.099,0.141c-1.171-0.019-2.062,0.551-2.966,1.375
		c-0.042,0.964-0.087,2.013-0.133,3.089c-4.504,0-8.931,0-13.449,0c0.535-0.909,1.026-1.748,1.552-2.642c3.029,0,6.062,0,9.17,0
		c0.05-0.717,0.094-1.366,0.142-2.075c1.018-0.711,2.041-1.458,3.102-2.148c0.267-0.174,0.651-0.188,0.987-0.235
		c1.307-0.183,2.615-0.35,3.971-0.529c0.383-1.111,0.762-2.205,1.152-3.336c-0.242-0.171-0.451-0.325-0.666-0.468
		c-3.285-2.175-6.577-4.337-9.854-6.523c-2.252-1.501-4.128-3.369-5.463-5.754c-2.267-4.05-1.365-8.877,1.473-12.019
		c1.097-1.212,2.388-2.161,3.864-2.857C260.587,165.87,260.709,165.832,260.912,165.754z"/>
	<path fill="#603864" d="M247.188,131.71c0-1.055,0-2.134,0-3.215c0.455,0.25,0.897,0.612,1.397,0.732
		c0.486,0.117,1.048,0.05,1.552-0.055c0.558-0.116,0.974-0.518,1.303-0.982c0.753-1.061,0.616-2.564-0.308-3.496
		c-1.056-1.066-2.282-1.04-3.942,0.113c0-2.76,0-5.49,0-8.314c2.715,0,5.395,0,8.16,0c0-0.791,0-1.493,0-2.257
		c3.856,0,7.627,0,11.382,0c0.755-0.664,1.468-1.291,2.205-1.939c1.359,0,2.729,0,4.237,0c-1.816,1.625-3.553,3.179-5.32,4.76
		c-4.119,0-8.235,0-12.375,0c0,0.446,0,0.828,0,1.267c2.057,0,4.06,0,6.063,0c0.024,0.046,0.048,0.092,0.072,0.138
		c-1.036,0.903-2.072,1.806-3.096,2.697c-1.035,0-2.035,0-3.118,0c0-0.59,0-1.158,0-1.703c-0.643-0.181-3.768-0.231-5.349-0.102
		c0,0.556,0,1.119,0,1.747c1.99,0.427,3.524,1.497,4.313,3.44c0.58,1.434,0.557,2.897-0.066,4.324
		C252.899,132.074,249.243,132.781,247.188,131.71z"/>
	<path fill="#603864" d="M159.114,121.1c0-0.583,0-1.127,0-1.667c-0.578-0.155-3.8-0.202-5.313-0.074
		c-0.024,0.573-0.049,1.161-0.073,1.749c-0.121,0.034-0.194,0.073-0.267,0.074c-0.924,0.004-1.849,0.002-2.807,0.002
		c-0.531-0.46-1.069-0.927-1.607-1.393c-0.513-0.444-1.027-0.888-1.675-1.448c2.206,0,4.229,0,6.301,0c0-0.445,0-0.827,0-1.276
		c-4.149,0-8.263,0-12.376,0c-1.761-1.574-3.489-3.119-5.358-4.789c0.962,0,1.751,0.071,2.523-0.015
		c1.259-0.143,2.263,0.218,3.069,1.198c0.23,0.28,0.55,0.489,0.84,0.741c3.762,0,7.513,0,11.352,0c0,0.733,0,1.433,0,2.21
		c0.96,0.128,1.851,0.05,2.735,0.064c0.898,0.015,1.797,0.003,2.697,0.003c0.897,0,1.794,0,2.677,0
		c0.185,0.568,0.241,7.174,0.084,8.291c-1.72-1.144-3.063-1.112-4.065,0.095c-0.884,1.065-0.845,2.631,0.091,3.627
		c1.052,1.121,2.455,1.114,4.044-0.089c0,0.601,0,1.137,0,1.672c0,0.528,0,1.056,0,1.66c-1.796,0.729-3.517,0.587-5.113-0.479
		c-1.973-1.319-2.8-3.24-2.41-5.555C154.893,123.157,156.546,121.695,159.114,121.1z"/>
	<path fill="#603864" d="M157.839,194.013c2.005,3.507,3.98,6.962,6.007,10.503c-1.145,0-2.141,0-3.205,0
		c-1.958-3.355-3.926-6.73-5.915-10.142c0.389-1.195,0.779-2.399,1.172-3.603c0.575-1.759,1.158-3.515,1.725-5.275
		c0.481-1.494,0.16-2.44-1.119-3.361c-0.147-0.105-0.298-0.205-0.418-0.288c0.413-0.838,0.805-1.636,1.197-2.434
		c2.452,0.935,4.061,3.876,3.192,6.5c-0.83,2.509-1.642,5.023-2.462,7.536C157.956,193.625,157.903,193.801,157.839,194.013z"/>
	<path fill="#603864" d="M245.288,204.516c2.038-3.56,4.017-7.018,6.019-10.514c-0.723-2.213-1.452-4.446-2.184-6.679
		c-0.114-0.352-0.218-0.708-0.35-1.052c-0.895-2.346,0.019-4.801,1.908-6.206c0.213-0.158,0.433-0.304,0.654-0.446
		c0.151-0.097,0.313-0.178,0.479-0.271c0.412,0.832,0.808,1.629,1.233,2.486c-0.132,0.097-0.318,0.233-0.505,0.37
		c-1.185,0.875-1.498,1.847-1.041,3.253c0.885,2.713,1.771,5.425,2.656,8.138c0.081,0.249,0.161,0.499,0.25,0.775
		c-1.97,3.381-3.938,6.757-5.913,10.147C247.475,204.516,246.477,204.516,245.288,204.516z"/>
	<path fill="#603864" d="M242.053,255.456c0-3.612,0-7.225,0-10.888c0.592,0,1.135,0,1.689,0c0.008,0.008,0.029,0.022,0.046,0.041
		c0.018,0.02,0.042,0.043,0.043,0.065c0.016,0.184,0.037,0.367,0.037,0.551c-0.005,4.202-0.012,8.404-0.022,12.605
		c0,0.048-0.044,0.093-0.088,0.178c-0.712,0-1.445,0-2.268,0c-2.453-3.611-4.938-7.269-7.423-10.927
		c-0.051,0.018-0.103,0.035-0.154,0.052c0,3.601,0,7.201,0,10.856c-0.639,0-1.199,0-1.807,0c0-4.479,0-8.934,0-13.471
		c0.428,0,0.816,0,1.205,0c0.369,0,0.736,0,1.172,0c2.464,3.663,4.935,7.335,7.406,11.008
		C241.943,255.504,241.997,255.48,242.053,255.456z"/>
	<path fill="#603864" d="M206.611,258.386c-3.7,0.074-7.038-2.666-7.056-7.147c-0.017-4.077,3.019-7.071,7.146-7.057
		c4.046,0.014,7.03,3.034,7.023,7.107C213.718,255.4,210.706,258.404,206.611,258.386z M211.772,251.349
		c-0.017-0.313-0.021-0.604-0.051-0.894c-0.214-2.068-1.649-3.814-3.601-4.389c-2.033-0.6-4.169,0.053-5.476,1.71
		c-1.006,1.274-1.278,2.757-1.102,4.336c0.432,3.859,4.711,5.89,7.928,3.75C211.078,254.792,211.724,253.204,211.772,251.349z"/>
	<path fill="#603864" d="M137.862,169.323c-1.026-0.294-1.867-0.646-2.639-1.286c1.551-8.076,3.102-16.153,4.67-24.317
		c0.767,1.078,1.478,2.076,2.272,3.191C140.753,154.264,139.316,161.749,137.862,169.323z"/>
	<path fill="#603864" d="M273.916,168.049c-0.788,0.615-1.636,0.999-2.64,1.271c-1.447-7.532-2.884-14.997-4.308-22.408
		c0.762-1.069,1.49-2.09,2.273-3.189C270.805,151.85,272.352,159.904,273.916,168.049z"/>
	<path fill="#603864" d="M225.882,244.555c0.638,0,1.183,0,1.755,0c0.028,0.115,0.072,0.213,0.072,0.312
		c0.004,2.854,0.037,5.711-0.011,8.565c-0.037,2.171-1.372,3.954-3.349,4.658c-2.063,0.733-4.434,0.178-5.829-1.384
		c-0.906-1.012-1.3-2.216-1.296-3.565c0.006-1.851,0.001-3.702,0-5.552c0-0.767-0.003-1.534,0.002-2.3
		c0.002-0.231,0.023-0.461,0.039-0.729c0.568,0,1.088,0,1.714,0c0.012,0.264,0.033,0.541,0.034,0.817
		c0.003,2.406,0.003,4.812,0.002,7.218c-0.001,0.775,0.107,1.53,0.449,2.234c0.616,1.269,1.643,1.904,3.045,1.886
		c1.404-0.02,2.408-0.687,2.997-1.968c0.316-0.689,0.378-1.423,0.376-2.169c-0.003-2.38-0.001-4.76-0.001-7.139
		C225.882,245.157,225.882,244.873,225.882,244.555z"/>
	<path fill="#603864" d="M142.231,247.39c-0.662-0.714-1.424-1.214-2.356-1.422c-1.86-0.416-3.884,0.328-4.953,1.919
		c-1.331,1.98-1.484,4.09-0.418,6.238c1.463,2.946,5.766,3.484,7.701,1.109c0.08-0.099,0.183-0.179,0.312-0.303
		c0.337,0.245,0.657,0.47,0.969,0.707c0.164,0.124,0.313,0.267,0.503,0.434c-1.011,1.271-2.329,1.966-3.848,2.225
		c-3.718,0.634-7.082-1.491-7.985-5.129c-0.727-2.927-0.016-5.525,2.334-7.516c2.028-1.719,5.472-1.966,7.775-0.663
		c0.594,0.337,0.969,0.673,1.424,1.296C143.214,246.646,142.737,247.007,142.231,247.39z"/>
	<path fill="#603864" d="M258.189,254.93c0.492,0.371,0.97,0.731,1.481,1.116c-0.961,1.23-2.201,1.925-3.627,2.201
		c-3.703,0.719-6.554-1.123-7.774-3.806c-1.227-2.696-0.928-5.316,0.821-7.718c0.977-1.341,2.359-2.097,3.977-2.402
		c1.571-0.297,3.106-0.181,4.567,0.522c0.671,0.323,1.254,0.759,1.732,1.428c-0.501,0.384-0.977,0.746-1.477,1.128
		c-0.666-0.731-1.421-1.257-2.36-1.428c-1.965-0.359-3.618,0.214-4.858,1.791c-1.412,1.799-1.575,4.529-0.44,6.511
		c1.435,2.504,4.89,3.243,7.064,1.504C257.601,255.533,257.865,255.239,258.189,254.93z"/>
	<path fill="#603864" d="M197.296,246.267c-0.518,0.397-0.976,0.747-1.438,1.1c-0.095-0.058-0.173-0.084-0.221-0.138
		c-1.733-1.98-5.246-1.82-7.032,0.507c-1.394,1.814-1.574,4.509-0.473,6.516c1.5,2.735,5.64,3.373,7.635,1.002
		c0.085-0.101,0.149-0.219,0.252-0.373c0.333,0.244,0.586,0.425,0.835,0.609c0.231,0.173,0.459,0.35,0.737,0.562
		c-0.868,1.117-1.991,1.788-3.292,2.11c-4.986,1.231-8.745-2.509-8.805-6.594c-0.015-0.988,0.104-1.949,0.439-2.883
		c0.955-2.664,3.221-4.342,6.044-4.492c1.266-0.067,2.477,0.108,3.621,0.674C196.25,245.188,196.81,245.616,197.296,246.267z"/>
	<path fill="#603864" d="M171.548,258.012c-0.62,0-1.14,0-1.735,0c-0.02-0.235-0.053-0.46-0.054-0.687
		c-0.005-1.428-0.015-2.856,0.003-4.284c0.006-0.496-0.111-0.909-0.394-1.329c-1.448-2.148-2.866-4.317-4.293-6.479
		c-0.128-0.194-0.242-0.397-0.406-0.667c0.783,0,1.482,0,2.289,0c1.19,1.901,2.419,3.862,3.691,5.896
		c1.292-2.011,2.534-3.939,3.795-5.9c0.703,0,1.407,0,2.177,0c-0.145,0.243-0.255,0.446-0.383,0.64
		c-1.397,2.118-2.781,4.248-4.209,6.345c-0.365,0.536-0.503,1.065-0.491,1.698C171.568,254.802,171.548,256.359,171.548,258.012z"/>
	<path fill="#603864" d="M151.943,246.181c0-0.566,0-1.06,0-1.607c3.505,0,6.978,0,10.504,0c0,0.52,0,1.034,0,1.643
		c-1.415,0-2.83,0-4.324,0c0,3.969,0,7.844,0,11.775c-0.622,0-1.162,0-1.785,0c0-3.877,0-7.75,0-11.708
		C154.856,246.14,153.438,246.291,151.943,246.181z"/>
	<path fill="#603864" d="M270.91,256.358c1.09,0.007,2.113,0.014,3.137,0.017c1.003,0.003,2.007,0.001,3.063,0.001
		c0,0.524,0,1.04,0,1.564c-0.516,0.134-6.556,0.184-7.856,0.056c-0.168-0.546-0.238-11.851-0.076-13.417c0.532,0,1.072,0,1.7,0
		c0.069,0.95,0.022,1.92,0.03,2.887c0.008,0.979,0.002,1.957,0.002,2.936s0,1.957,0,2.936
		C270.91,254.313,270.91,255.287,270.91,256.358z"/>
	<path fill="#603864" d="M148.887,258.008c-0.581,0-1.127,0-1.717,0c0-4.492,0-8.946,0-13.428c0.129-0.024,0.229-0.057,0.327-0.058
		c0.447-0.006,0.895-0.003,1.33-0.003C148.988,245.119,149.038,256.727,148.887,258.008z"/>
	<path fill="#603864" d="M264.555,244.571c0,4.498,0,8.931,0,13.419c-0.571,0-1.109,0-1.704,0c0-4.46,0-8.913,0-13.419
		C263.397,244.571,263.937,244.571,264.555,244.571z"/>
	<path fill="#603864" d="M263.768,155.796c-0.611-0.384-1.221-0.769-1.802-1.135c-0.127-0.801-0.24-1.517-0.38-2.4
		c0.658,0.484,1.203,0.871,1.728,1.282c0.111,0.087,0.198,0.256,0.22,0.399c0.09,0.619,0.152,1.243,0.225,1.865L263.768,155.796z"/>
	<path fill="#603864" d="M145.296,155.976c0.129-0.873,0.236-1.586,0.344-2.314c0.608-0.441,1.198-0.87,1.898-1.377
		c-0.128,0.84-0.237,1.553-0.352,2.311C146.609,155.016,146.022,155.444,145.296,155.976z"/>
	<path fill="#603864" d="M143.285,161.035c-0.073,0.702-0.147,1.403-0.222,2.124c-0.626,0.459-1.229,0.901-1.941,1.424
		c0.127-0.844,0.234-1.539,0.358-2.359c0.563-0.364,1.19-0.771,1.818-1.176L143.285,161.035z"/>
	<path fill="#603864" d="M266.278,153.077c0.124,0.768,0.234,1.465,0.371,2.322c-0.712-0.517-1.297-0.943-1.896-1.375
		c-0.117-0.736-0.233-1.457-0.375-2.338C265.084,152.202,265.666,152.628,266.278,153.077z"/>
	<path fill="#603864" d="M265.754,160.867c0.74,0.542,1.311,0.959,1.895,1.387c0.117,0.729,0.233,1.448,0.373,2.322
		c-0.651-0.473-1.197-0.86-1.73-1.265c-0.094-0.072-0.168-0.211-0.189-0.33C265.984,162.341,265.889,161.697,265.754,160.867z"/>
	<path fill="#603864" d="M264.211,158.319c0.125,0.781,0.235,1.478,0.371,2.324c-0.698-0.502-1.271-0.914-1.886-1.355
		c-0.116-0.704-0.235-1.424-0.388-2.343C263.032,157.468,263.613,157.887,264.211,158.319z"/>
	<path fill="#603864" d="M144.116,156.196c-0.145,0.893-0.257,1.591-0.379,2.338c-0.576,0.417-1.166,0.843-1.884,1.364
		c0.132-0.86,0.238-1.557,0.354-2.307C142.781,157.172,143.372,156.74,144.116,156.196z"/>
	<path fill="#603864" d="M144.723,151.909c-0.113,0.696-0.227,1.392-0.345,2.123c-0.588,0.423-1.18,0.849-1.883,1.354
		c0.129-0.833,0.237-1.529,0.357-2.306c0.554-0.403,1.145-0.831,1.733-1.259C144.632,151.85,144.678,151.879,144.723,151.909z"/>
	<path fill="#603864" d="M266.919,157.576c0.12,0.744,0.23,1.44,0.374,2.326c-0.732-0.528-1.316-0.952-1.887-1.364
		c-0.123-0.747-0.238-1.445-0.371-2.248C265.754,156.655,266.279,157.149,266.919,157.576z"/>
	<path fill="#603864" d="M144.926,158.327c0.575-0.421,1.146-0.838,1.875-1.371c-0.129,0.867-0.234,1.57-0.345,2.313
		c-0.59,0.429-1.18,0.859-1.897,1.381C144.696,159.782,144.81,159.066,144.926,158.327z"/>
	<path fill="#603864" d="M265.86,150.671l-1.973-1.691c0.45-0.271,0.851-0.51,1.315-0.788L265.86,150.671z"/>
	<path fill="#603864" d="M143.299,150.67l0.598-2.484c0.464,0.268,0.869,0.501,1.329,0.768L143.299,150.67z"/>
	<path fill="#603864" d="M263.216,151.483c-0.665-0.486-1.164-0.85-1.759-1.285c0.498-0.245,0.904-0.445,1.399-0.688
		c0.076,0.363,0.143,0.654,0.197,0.948C263.105,150.736,263.143,151.017,263.216,151.483z"/>
	<path fill="#603864" d="M146.238,149.488c0.503,0.248,0.918,0.452,1.44,0.709c-0.582,0.422-1.084,0.787-1.737,1.262
		C146.053,150.72,146.139,150.146,146.238,149.488z"/>
	<path fill="#603864" d="M263.758,155.806c0.021,0.009,0.042,0.017,0.064,0.024c-0.019-0.011-0.036-0.022-0.055-0.034
		L263.758,155.806z"/>
	<path fill="#603864" d="M143.297,161.047c0.006-0.02,0.013-0.039,0.02-0.058c-0.01,0.015-0.021,0.031-0.032,0.046L143.297,161.047z
		"/>
	<path fill="#603864" d="M207.696,140.385c0,0.796,0,1.496,0,2.398c-0.734-0.712-1.331-1.291-1.967-1.907
		c-0.409,0.628-0.794,1.221-1.233,1.895c-0.432-0.665-0.826-1.271-1.254-1.93c-0.641,0.633-1.233,1.218-1.96,1.935
		c0-0.883,0-1.579,0-2.364c-0.908-0.062-1.746-0.025-2.581-0.031c-0.846-0.006-1.693-0.001-2.539-0.001c-0.872,0-1.745,0-2.617,0
		c-0.846,0-1.692,0-2.539,0c-0.845,0-1.689,0-2.55,0c-0.74-0.729-1.467-1.448-2.333-2.303c-0.018,0.833-0.031,1.494-0.047,2.263
		c-0.916-0.304-1.727-0.573-2.665-0.884c0.304,0.915,0.573,1.723,0.875,2.631c-0.728,0-1.375,0-2.234,0
		c0.785,0.923,1.574,1.568,2.251,2.351c0,0.959,0,1.928,0,3.011c-0.975-0.505-1.875-0.972-2.764-1.432c0-2.831,0-5.599,0-8.418
		c15.363,0,30.688,0,46.073,0c0,2.78,0,5.566,0,8.409c-0.883,0.459-1.788,0.93-2.754,1.432c0-1.05,0-2.019,0-3.043
		c0.675-0.688,1.373-1.398,2.149-2.19c-0.757-0.187-1.441-0.003-2.144-0.164c0.286-0.841,0.555-1.633,0.878-2.58
		c-0.923,0.307-1.727,0.574-2.646,0.88c0-0.734,0-1.421,0-2.108c-0.058-0.021-0.114-0.042-0.173-0.062
		c-0.741,0.732-1.483,1.465-2.241,2.213C216.391,140.385,212.11,140.385,207.696,140.385z"/>
	<path fill="#603864" d="M202.766,144.967c0,5.96,0,11.874,0,17.838c-1.914,0-3.801,0-5.771,0c0-0.534,0.001-1.056-0.001-1.577
		c-0.002-0.555,0.019-1.112-0.018-1.664c-0.036-0.533-0.418-0.897-0.904-0.942c-0.497-0.046-0.929,0.236-1.078,0.746
		c-0.065,0.223-0.073,0.468-0.076,0.703c-0.008,0.896-0.003,1.792-0.003,2.735c-1.911,0-3.773,0-5.691,0c0-5.928,0-11.861,0-17.799
		C189.743,144.849,201.68,144.801,202.766,144.967z M192.82,160.754c0-0.496-0.019-0.888,0.003-1.277
		c0.115-2.047,2.089-3.436,4.052-2.859c1.317,0.388,2.206,1.587,2.263,3.028c0.014,0.356,0.015,1.086,0.015,1.086l1.465-0.004
		c0,0,0.036-13.063-0.125-13.623c-0.568,0-1.135,0-1.796,0c0,0.618,0,1.184,0,1.75c-0.636,0-1.175,0-1.799,0c0-0.62,0-1.187,0-1.75
		c-0.655,0-1.225,0-1.879,0c0,0.616,0,1.183,0,1.757c-0.631,0-1.173,0-1.801,0c0-0.619,0-1.186,0-1.811c-0.376,0-0.664,0-0.952,0
		c-0.281,0-0.562,0-0.87,0c0,4.611,0,9.115,0,13.658c0.171,0.019,0.298,0.041,0.424,0.044
		C192.109,160.758,192.398,160.754,192.82,160.754z"/>
	<path fill="#603864" d="M219.658,162.845c-1.841,0-3.687,0-5.588,0c-0.015-0.175-0.043-0.348-0.044-0.521
		c-0.004-0.74,0.008-1.479-0.004-2.219c-0.005-0.262-0.022-0.534-0.097-0.781c-0.131-0.433-0.526-0.7-0.952-0.704
		c-0.437-0.004-0.823,0.242-0.965,0.682c-0.08,0.245-0.095,0.517-0.099,0.778c-0.011,0.895-0.004,1.791-0.004,2.73
		c-1.918,0-3.78,0-5.694,0c0-5.937,0-11.87,0-17.805c0.546-0.155,12.599-0.191,13.484-0.037
		C219.842,145.81,219.811,162.263,219.658,162.845z M208.408,147.083c-0.144,1.129-0.101,13.018,0.047,13.638
		c0.193,0.011,0.399,0.035,0.606,0.032c0.228-0.004,0.455-0.033,0.745-0.056c0-0.394-0.009-0.733,0.002-1.072
		c0.054-1.756,1.425-3.131,3.132-3.148c1.725-0.016,3.134,1.389,3.182,3.18c0.011,0.336,0.002,0.673,0.002,1.052
		c0.525,0,0.957,0,1.485,0c0-2.309,0.009-4.573-0.002-6.838c-0.011-2.258,0.049-4.518-0.038-6.76c-0.665,0-1.231,0-1.885,0
		c0,0.625,0,1.19,0,1.734c-0.631,0-1.172,0-1.778,0c0-0.613,0-1.159,0-1.747c-0.655-0.06-1.242-0.108-1.911,0.051
		c0,0.591,0,1.158,0,1.702c-0.63,0-1.171,0-1.803,0c0-0.625,0-1.189,0-1.769C209.55,147.083,209.003,147.083,208.408,147.083z"/>
	<path fill="#603864" d="M197.832,165.824c4.518,0,8.979,0,13.432,0c0.172,0.58,0.243,16.154,0.088,17.807
		c-0.553,0.161-4.093,0.213-5.651,0.077c-0.016-0.215-0.045-0.44-0.047-0.667c-0.006-0.688-0.001-1.374-0.003-2.062
		c-0.002-0.185,0.007-0.373-0.027-0.553c-0.096-0.535-0.548-0.932-1.033-0.926c-0.516,0.006-0.989,0.451-1.012,1.025
		c-0.031,0.766-0.01,1.532-0.011,2.298c-0.001,0.286,0,0.57,0,0.895c-1.951,0-3.816,0-5.735,0
		C197.832,177.776,197.832,171.844,197.832,165.824z M209.217,181.653c0-4.586,0-9.096,0-13.63c-0.62,0-1.188,0-1.799,0
		c-0.035,0.611-0.068,1.172-0.099,1.71c-0.627,0-1.169,0-1.769,0c0-0.315,0-0.576,0-0.835c0-0.281,0-0.563,0-0.88
		c-0.677,0-1.243,0-1.877,0c-0.021,0.609-0.041,1.171-0.059,1.707c-0.641,0-1.178,0-1.795,0c0-0.609,0-1.151,0-1.7
		c-0.651,0-1.219,0-1.816,0c0,4.563,0,9.07,0,13.615c0.254,0.016,0.46,0.038,0.666,0.036c0.229-0.002,0.458-0.027,0.753-0.048
		c0-0.394-0.013-0.733,0.002-1.072c0.051-1.131,0.517-2.045,1.479-2.663c2.033-1.305,4.704,0.078,4.837,2.498
		c0.023,0.413,0.032,0.825,0.048,1.262C208.287,181.653,208.705,181.653,209.217,181.653z"/>
	<path fill="#603864" d="M195.474,114.336c-0.633,0-1.182,0-1.789,0c-0.584-1.552-1.167-3.099-1.75-4.644
		c-0.038,0.002-0.077,0.006-0.116,0.008c0,1.526,0,3.053,0,4.62c-0.467,0-0.85,0-1.283,0c0-2.219,0-4.423,0-6.652
		c0.621,0,1.196,0,1.87,0c0.552,1.429,1.117,2.893,1.683,4.357c0.05-0.006,0.101-0.014,0.151-0.02c0-1.423,0-2.847,0-4.311
		c0.455,0,0.817,0,1.234,0C195.474,109.869,195.474,112.071,195.474,114.336z"/>
	<path fill="#603864" d="M179.194,107.663c0.918,0,1.787-0.017,2.656,0.004c0.979,0.024,1.435,0.332,1.652,1.058
		c0.269,0.9,0.03,1.522-0.862,2.134c0.999,0.411,1.153,1.208,1.014,2.134c-0.096,0.641-0.456,1.06-1.076,1.231
		c-0.276,0.076-0.568,0.125-0.854,0.131c-0.816,0.017-1.726,0.01-2.529,0.01L179.194,107.663L179.194,107.663z M180.557,113.383
		c0.562-0.008,1.24,0.163,1.619-0.458c0.218-0.358,0.221-0.782-0.016-1.125c-0.407-0.512-1.01-0.376-1.603-0.396
		C180.557,112.07,180.557,112.664,180.557,113.383z M180.581,110.389c0.567-0.019,1.114,0.127,1.496-0.341
		c0.211-0.26,0.191-0.772-0.016-1.042c-0.345-0.421-0.922-0.354-1.481-0.317C180.581,109.246,180.581,109.76,180.581,110.389z"/>
	<path fill="#603864" d="M220.804,114.316c0-2.237,0-4.397,0-6.659c0.393,0,0.776-0.001,1.16,0c0.527,0.001,1.057-0.02,1.583,0.011
		c0.77,0.044,1.196,0.438,1.358,1.195c0.217,1.011-0.049,1.637-0.968,2.161c0.151,0.087,0.264,0.159,0.385,0.219
		c0.365,0.183,0.549,0.487,0.577,0.882c0.049,0.708,0.086,1.417,0.131,2.182c-0.44,0-0.848,0-1.333,0
		c-0.032-0.247-0.081-0.5-0.096-0.754c-0.017-0.29,0.005-0.581-0.007-0.871c-0.038-0.912-0.36-1.168-1.405-1.048
		c0,0.869,0,1.751,0,2.681C221.695,114.316,221.289,114.316,220.804,114.316z M222.195,110.508c0,0,0.941,0.155,1.227-0.358
		c0.216-0.392,0.197-0.986-0.072-1.26c-0.354-0.303-1.154-0.137-1.154-0.137C222.195,109.331,222.195,109.876,222.195,110.508z"/>
	<path fill="#603864" d="M219.648,110.988c0,0-0.032,1.382-0.149,2.026c-0.143,0.78-0.646,1.284-1.437,1.375
		c-0.539,0.062-1.104,0.046-1.64-0.044c-0.547-0.093-0.939-0.474-1.127-1.01c-0.104-0.296-0.206-0.61-0.217-0.919
		c-0.029-0.922-0.047-1.847,0-2.769c0.02-0.409,0.129-0.852,0.328-1.207c0.521-0.934,1.445-0.951,2.363-0.886
		c0.841,0.059,1.494,0.447,1.688,1.301C219.619,109.567,219.648,110.988,219.648,110.988z M218.238,111.023
		C218.242,111.023,218.234,111.023,218.238,111.023c0-0.316,0.001-0.632,0-0.948c0-0.079,0.002-0.159-0.01-0.237
		c-0.035-0.233-0.051-0.474-0.121-0.697c-0.139-0.445-0.416-0.656-0.791-0.634c-0.395,0.023-0.629,0.252-0.724,0.619
		c-0.063,0.253-0.122,0.516-0.128,0.776c-0.017,0.736-0.021,1.474,0.001,2.21c0.01,0.284,0.078,0.573,0.163,0.848
		c0.103,0.335,0.354,0.51,0.713,0.512c0.357,0.001,0.617-0.155,0.724-0.496c0.078-0.249,0.138-0.51,0.154-0.769
		C218.245,111.813,218.238,111.417,218.238,111.023z"/>
	<path fill="#603864" d="M189.366,111.052c-0.022,0.5-0.015,1.005-0.072,1.501c-0.141,1.245-0.763,1.851-2.005,1.919
		c-0.412,0.023-0.846-0.043-1.247-0.151c-0.606-0.163-1.006-0.6-1.132-1.211c-0.291-1.409-0.295-2.832,0.004-4.24
		c0.144-0.678,0.614-1.132,1.295-1.235c0.538-0.082,1.107-0.088,1.645-0.007c0.677,0.101,1.166,0.545,1.3,1.228
		C189.294,109.575,189.371,110.259,189.366,111.052C189.348,111.055,189.383,111.05,189.366,111.052z M187.952,111.024
		c-0.001,0-0.003,0-0.005,0c0-0.448-0.015-0.878-0.046-1.325c-0.017-0.257-0.09-0.519-0.187-0.76
		c-0.118-0.295-0.371-0.438-0.691-0.434c-0.322,0.005-0.595,0.161-0.671,0.461c-0.341,1.349-0.341,2.708-0.002,4.058
		c0.076,0.303,0.348,0.461,0.668,0.466c0.351,0.005,0.62-0.156,0.731-0.494c0.083-0.247,0.142-0.509,0.159-0.769
		C187.934,111.833,187.952,111.419,187.952,111.024z"/>
	<path fill="#603864" d="M226.117,114.363c0-2.298,0-4.482,0-6.687c0.924,0,1.817-0.034,2.708,0.01
		c0.859,0.042,1.371,0.459,1.581,1.307c0.314,1.272,0.322,2.57,0.045,3.847c-0.201,0.925-0.797,1.418-1.718,1.5
		c-0.55,0.048-1.108,0.02-1.663,0.023C226.783,114.365,226.498,114.363,226.117,114.363z M227.464,108.69l-0.01,4.637
		c0.929,0.008,1.468-0.032,1.615-0.723c0.227-1.062,0.224-2.148,0.014-3.214c-0.049-0.447-0.535-0.654-0.882-0.69
		C228.021,108.681,227.681,108.677,227.464,108.69z"/>
	<path fill="#603864" d="M203.87,114.329c-0.517,0-0.954,0-1.429,0c-0.139-0.458-0.275-0.906-0.426-1.405c-0.631,0-1.25,0-1.92,0
		c-0.131,0.458-0.261,0.907-0.4,1.393c-0.432,0-0.84,0-1.348,0c0.621-2.242,1.23-4.436,1.84-6.64c0.629,0,1.202,0,1.869,0
		C202.657,109.881,203.255,112.079,203.87,114.329z M200.378,111.812c0.503,0,0.94,0,1.415,0c-0.238-0.917-0.686-2.738-0.686-2.738
		C200.925,109.911,200.583,110.879,200.378,111.812z"/>
	<path fill="#603864" d="M208.67,109.703c-0.416,0-0.8,0-1.215,0c0,0-0.032-0.561-0.135-0.76c-0.098-0.192-0.313-0.382-0.476-0.399
		c-0.386-0.04-0.497,0.1-0.671,0.298c-0.105,0.12-0.17,0.325-0.198,0.502c-0.179,1.102-0.181,2.206-0.003,3.31
		c0.021,0.128,0.063,0.256,0.115,0.375c0.127,0.296,0.357,0.448,0.685,0.44c0.348-0.009,0.522-0.231,0.599-0.533
		c0.059-0.226,0.071-0.463,0.11-0.748c0.415,0,0.821,0,1.229,0c0.113,1.327-0.402,2.207-1.694,2.284
		c-1.59,0.096-2.407-0.578-2.479-1.993c-0.054-1.049-0.076-2.113,0.032-3.155c0.17-1.624,2.229-2.438,3.522-1.431
		C208.668,108.341,208.663,108.801,208.67,109.703z"/>
	<path fill="#603864" d="M213.992,109.703c-0.416,0-0.8,0-1.215,0c0,0-0.032-0.561-0.135-0.76c-0.098-0.192-0.313-0.382-0.477-0.399
		c-0.385-0.04-0.496,0.1-0.67,0.298c-0.105,0.12-0.17,0.325-0.198,0.502c-0.179,1.102-0.182,2.206-0.003,3.31
		c0.021,0.128,0.063,0.256,0.114,0.375c0.128,0.296,0.358,0.448,0.686,0.44c0.348-0.009,0.522-0.231,0.599-0.533
		c0.059-0.226,0.07-0.463,0.11-0.748c0.415,0,0.821,0,1.229,0c0.113,1.327-0.402,2.207-1.694,2.284
		c-1.591,0.096-2.407-0.578-2.479-1.993c-0.053-1.049-0.075-2.113,0.032-3.155c0.171-1.624,2.229-2.438,3.522-1.431
		C213.989,108.341,213.984,108.801,213.992,109.703z"/>
	<path fill="#603864" d="M195.379,150.518c0.408,0,0.771,0,1.203,0c0.023,0.38,0.045,0.766,0.073,1.238
		c0.388,0.024,0.769,0.048,1.201,0.076c0,0.403,0,0.779,0,1.203c-0.382,0.026-0.744,0.05-1.196,0.081
		c-0.022,0.384-0.044,0.764-0.069,1.195c-0.406,0-0.783,0-1.209,0c-0.023-0.383-0.044-0.742-0.072-1.19
		c-0.395-0.024-0.773-0.048-1.201-0.075c0-0.411,0-0.787,0-1.213c0.387-0.021,0.747-0.042,1.183-0.066
		C195.318,151.37,195.345,150.988,195.379,150.518z"/>
	<path fill="#603864" d="M214.855,153.042c-0.406,0.025-0.769,0.048-1.204,0.075c-0.026,0.394-0.052,0.775-0.079,1.2
		c-0.395,0-0.753,0-1.198,0c-0.023-0.366-0.049-0.747-0.078-1.184c-0.406-0.035-0.787-0.067-1.21-0.104c0-0.389,0-0.747,0-1.185
		c0.374-0.026,0.754-0.053,1.204-0.084c0.023-0.408,0.046-0.791,0.07-1.222c0.396,0,0.778,0,1.207,0
		c0.026,0.378,0.051,0.764,0.081,1.227c0.4,0.022,0.783,0.043,1.207,0.066C214.855,152.228,214.855,152.587,214.855,153.042z"/>
	<path fill="#603864" d="M203.914,172.638c0.026-0.429,0.048-0.79,0.071-1.198c0.41,0,0.788,0,1.2,0
		c0.03,0.396,0.058,0.757,0.09,1.197c0.403,0.024,0.784,0.048,1.227,0.075c0,0.397,0,0.779,0,1.244
		c-0.373,0.02-0.757,0.039-1.228,0.063c-0.025,0.383-0.052,0.765-0.081,1.208c-0.387,0-0.764,0-1.196,0
		c-0.028-0.39-0.056-0.774-0.087-1.205c-0.401-0.023-0.786-0.046-1.208-0.07c0-0.426,0-0.807,0-1.228
		C203.1,172.695,203.462,172.669,203.914,172.638z"/>
	<path fill="#603864" d="M246.922,98.453c-8.284,0-16.489,0-24.693,0c0,0.89,0,1.724,0,2.631c6.859,0,13.669,0,20.578,0
		c-0.715,1.615-1.387,3.131-2.07,4.674c0.674,1.566,1.351,3.137,2.05,4.761c-2.296,0-4.504,0-6.812,0c0-2.589,0-5.138,0-7.705
		c-20.93,0-41.759,0-62.686,0c0,2.59,0,5.138,0,7.67c-1.148,0.155-6.068,0.111-6.653-0.057c0.673-1.553,1.342-3.101,2.017-4.658
		c-0.678-1.539-1.353-3.069-2.07-4.698c0.853,0,1.564,0,2.275,0c0.74,0,1.481,0,2.222,0c0.714,0,1.429,0,2.143,0s1.428,0,2.143,0
		c0.74,0,1.48,0,2.222,0c0.714,0,1.428,0,2.143,0c0.741,0.001,1.481,0.014,2.222,0.005c0.699-0.009,1.405,0.053,2.108-0.044
		c0-0.904,0-1.717,0-2.514c-0.074-0.043-0.12-0.09-0.166-0.09c-6.85-0.012-13.7-0.021-20.55-0.028c-0.236,0-0.473,0.021-0.709,0.034
		c-0.022,0.001-0.05,0.018-0.065,0.037c-0.016,0.019-0.021,0.048-0.046,0.111c1.059,2.384,2.129,4.794,3.196,7.195
		c-1.073,2.485-2.128,4.93-3.221,7.46c1.857,0,3.625-0.003,5.393,0.001c1.786,0.004,3.573-0.02,5.402,0.016c0,2.033,0,3.959,0,5.924
		c1.125,0.17,62.104,0.122,62.721-0.054c0-1.925,0-3.872,0-5.903c3.646,0,7.22,0,10.875,0c-1.102-2.55-2.158-4.996-3.217-7.448
		C244.754,103.333,245.824,100.925,246.922,98.453z M233.258,105.529c0,3.692,0,7.331,0,11.021c-19.073,0-38.104,0-57.136,0h-0.167
		v-5.537c-0.004-0.786-0.005-1.57,0-2.295v-3.35h57.302V105.529L233.258,105.529z"/>
</g>
</svg>
