<svg xmlns="http://www.w3.org/2000/svg" viewBox="0 0 400 99" preserveAspectRatio="xMidYMid meet">
  <path fill="#000" d="M32.8 24.1H19.3v-2.8c0-7.4 2.6-9.6 7.9-9.6 2.8 0 5.6.3 8.8.8V1c-3.7-.7-7.3-1-10-1C14.2 0 6.9 5.9 6.9 21.3v2.8H0v11.3h6.9v46.3h12.3V35.4h13.5V24.1zm29.4-1.4c-16.9 0-30.4 13.5-30.4 30.2S45.4 83 62.2 83c16.9 0 30.4-13.5 30.4-30.2S79.1 22.7 62.2 22.7zm0 48.3c-10.1 0-17.3-8.2-17.3-18.2s7.2-18.2 17.3-18.2c10.1 0 17.3 8.2 17.3 18.2S72.4 71 62.2 71zm131.6-12.9L177.2 24h-26.4V8.6h-12.3V24h-12.3c-6.1.1-11.2 1.7-14.5 6.4V24H99.4v57.6H112V55c0-5.6.6-10.5 3.1-14 2.3-3.3 6.3-5.5 11-5.6h12.3v29.5c0 12.7 5.6 17.4 16.5 17.4 3.8 0 7.7-.5 11.5-1.3V69.8c-4.4.6-8.4.8-11.5.7-2.8-.1-4.2-1.8-4.2-5.1v-30h18l18.1 37.3L174.7 99h13.6l35-74.9H210l-16.2 34zm134.8-33.7l-13.7 37.1-14.7-37.1h-8.6l-14.7 37.1-13.5-37.1h-27.7V8.9h-12.3v56.2c0 12.7 5.6 17.4 16.5 17.4 3.8 0 7.7-.5 11.5-1.3V70.1c-4.4.6-8.4.8-11.5.7-2.8-.1-4.2-1.8-4.2-5.1V35.6h18.5l18.2 46.3h9.2c5-11.7 9.3-23.9 14.5-35.9l14.2 35.9h9.3l22.6-57.6h-13.6zm41-1.4c-16.9 0-30.4 13.5-30.4 30.2s13.5 30.2 30.4 30.2S400 69.9 400 53.2 386.5 23 369.6 23zm0 48.3c-10.1 0-17.3-8.2-17.3-18.2S359.5 35 369.6 35c10.1 0 17.3 8.2 17.3 18.2s-7.1 18.1-17.3 18.1z"/>
</svg>