<svg xmlns="http://www.w3.org/2000/svg" viewBox="0 0 241 241"><defs><style>.cls-1{fill:#fff;}</style></defs><title>logo</title><g id="Layer_2" data-name="Layer 2"><g id="Layer_1-2" data-name="Layer 1"><path class="cls-1" d="M120.5,10a110.51,110.51,0,0,1,78.14,188.64A110.51,110.51,0,0,1,42.36,42.36,109.79,109.79,0,0,1,120.5,10m0-10A120.5,120.5,0,1,0,241,120.5,120.5,120.5,0,0,0,120.5,0Z"/><path class="cls-1" d="M60.21,84.07H88.38c16.58,0,30.18,5.76,30.18,24.36,0,18-13.6,25.71-30.18,25.71H77.89v28.14H60.21Zm26.73,36c9.3,0,14.29-4,14.29-11.67s-5-10.32-14.29-10.32h-9v22Zm-1.8,9.38,12.23-11.32,25,44.12H102.55Z"/><path class="cls-1" d="M146.91,98.9H125.39V84.07h60.73V98.9H164.59v63.38H146.91Z"/></g></g></svg>