<?xml version="1.0" encoding="UTF-8"?><svg id="Layer_2" xmlns="http://www.w3.org/2000/svg" viewBox="0 0 1435.83 324.51"><defs><style>.cls-1{fill:#4dc7e4;}</style></defs><g id="Layer_1-2"><path d="M437.76,232.49V92.06h37.39l47.35,104.17,46.67-104.17h35.79V232.49h-30.81v-80.39l-35.57,80.39h-32.85l-36-79.97v79.97h-31.96Zm217.48,0h-36.25l62.29-140.44h44.65l62.73,140.44h-35.8l-12.34-28.09-73.32,.22-11.96,27.87Zm73.73-54.36l-25.48-58.01-24.9,58.01h50.39Zm74.41,54.36V92.06h134.17v28.07h-101.77v28.11h87.25v27.86h-87.25v28.32h101.77v28.07h-134.17Z"/><path d="M963.58,232.49V92.06h114.86s7.4-.84,15.21,6.77c7,6.8,5.84,16.78,5.84,16.78v47.19s1.38,8.67-6.89,16.08c-7.98,7.15-19.6,5.6-19.6,5.6l26.73,48.02h-35.11l-26.52-48.02h-41.66v48.02h-32.86Zm32.87-76.1h70.45v-36.26h-70.45v36.26Zm162.13,76.1h-11.12s-9.76-.19-15.31-6.03c-6.42-6.8-6.2-14.58-6.2-14.58v-18.35h32.63v10.9h69.32v-28.33h-79.55s-9.81,.99-15.85-5.21c-6.72-6.87-5.99-15.16-5.99-15.16v-42.13s-.14-7.08,4.63-13.37c6.86-9.05,17.44-8.15,17.44-8.15l90.89,.07s7.41-.52,14.67,6.51c7.96,7.67,6.12,15.85,6.12,15.85v16.76h-32.39v-11.11h-69.32v28.1h79.28s9.3-.68,15.85,6.8c6.57,7.48,6.57,15.85,6.57,15.85v39.64s1.06,7.78-5.17,14.85c-7.07,8.05-16.57,7.13-16.57,7.13h-79.97"/><path d="M1291.32,232.45V91.98h33.27v56.18l63.42-56.18h45.12l-75.64,65.25,78.35,75.23h-46.66l-64.58-63.92v63.92h-33.27Z"/><path class="cls-1" d="M307.95,37.2c-.07-18.84-14.58-37.15-37.1-37.05h0L37.21,0C17.61-.11,0,16.32,.01,37.2v249.98c-.01,19.41,15.36,37.29,37.1,37.33h233.57c21.2-.06,37.23-16.93,37.34-37.19l-.07-250.12Zm-14.36,162.28l-95.99,.09,21.95,95.38-.62,.54-62.78-76.72h-.8l-62.14,76.82c-.35,.27-.53,.27-.88,0l21.65-95.72-95.81-.25c-.36-.27-.36-.53-.36-.8l87.11-41.93,.61-.61L45.5,81.58c-.18-.44,.18-.62,.45-.97l86.62,40.83,22.67-92.9h.61l22.52,93.22h.03s86.53-40.83,86.53-40.83c.35-.18,.54,.35,.8,.43l-59.84,74.8,87.41,42.25c.44,.26,.88,.61,.28,1.05Z"/></g></svg>