<svg xmlns="http://www.w3.org/2000/svg" viewBox="0 0 88 88"><defs><style>.a{fill:#005cab;fill-rule:evenodd;}</style></defs><path class="a" d="M580.015,597.006a44,44,0,1,0,44.005,44,44,44,0,0,0-44.005-44Zm0,85.312A41.3,41.3,0,0,1,549.2,613.5l14.1,24.181,8.722-.046-17.145-29.4q.657-.5,1.335-.98L573.9,637.593l8.722-.045-19.871-34.076c.5-.231,1.006-.455,1.518-.666l20.253,34.734,8.779.05-21.609-37.058a41.317,41.317,0,1,1,8.32,81.787ZM552.153,639.6a7.291,7.291,0,0,0-7.954,7.973,8.719,8.719,0,0,0,1.061,4.5,6.5,6.5,0,0,0,2.768,2.627,9.858,9.858,0,0,0,4.313.83,8.673,8.673,0,0,0,4.282-.961,6.475,6.475,0,0,0,2.627-2.689,9.486,9.486,0,0,0,.909-4.427,7.781,7.781,0,0,0-2.081-5.784A8.056,8.056,0,0,0,552.153,639.6Zm2.406,11.366a3.279,3.279,0,0,1-4.731-.021,6.928,6.928,0,0,1,.005-6.722,2.889,2.889,0,0,1,2.31-1.019,3,3,0,0,1,2.38,1,4.766,4.766,0,0,1,.877,3.178A5.7,5.7,0,0,1,554.559,650.968Zm16.055-11.1H562.7v15.4h4.78V649.55h2.606a6.08,6.08,0,0,0,4.282-1.313,4.751,4.751,0,0,0,1.4-3.645,4.607,4.607,0,0,0-1.286-3.5A5.417,5.417,0,0,0,570.614,639.864Zm-.032,6.088a3,3,0,0,1-1.933.478h-1.166V643h1.355a2.5,2.5,0,0,1,1.815.5,1.71,1.71,0,0,1,.483,1.229A1.54,1.54,0,0,1,570.582,645.952Zm7.87,9.313h4.77v-15.4h-4.77Zm7.1-11.6H590.4v11.6h4.76v-11.6h4.854v-3.8H585.55v3.8Zm29.9-2a8.058,8.058,0,0,0-5.927-2.064,7.291,7.291,0,0,0-7.954,7.973,8.72,8.72,0,0,0,1.062,4.5A6.5,6.5,0,0,0,605.4,654.7a9.861,9.861,0,0,0,4.313.83,8.675,8.675,0,0,0,4.282-.962,6.477,6.477,0,0,0,2.627-2.689,9.48,9.48,0,0,0,.908-4.427,7.781,7.781,0,0,0-2.08-5.781Zm-3.52,9.3a3.28,3.28,0,0,1-4.733-.021,6.927,6.927,0,0,1,.005-6.722,2.889,2.889,0,0,1,2.31-1.019,3,3,0,0,1,2.381,1,4.756,4.756,0,0,1,.877,3.178A5.7,5.7,0,0,1,611.931,650.968Z" transform="translate(-536.02 -597.006)"/></svg>