<?xml version="1.0" encoding="UTF-8"?>
<svg xmlns="http://www.w3.org/2000/svg" width="486" height="58" viewBox="0 0 486 58" fill="none">
  <path d="M409.988 56.9911H422.279V14.0342L445.074 56.982H450.818L473.71 14.0342V56.982H486V0.927127H468.66L447.951 39.7574L427.328 0.927127H409.988V56.9911ZM356.588 37.1487L369.873 10.1711L383.148 37.1487H356.588ZM333.204 56.9911H346.779L352.031 46.32H387.705L392.957 56.9911H406.532L377.394 0.927127H362.333L333.195 56.9911H333.204ZM284.457 27.1503V10.0893H308.633C315.565 10.0893 320.025 13.2797 320.025 18.5789C320.025 23.8781 315.565 27.1503 308.633 27.1503H284.457ZM272.167 56.9911H284.457V36.3125H302.396L318.645 56.9911H333.61L315.768 35.4763C325.48 33.6311 332.519 28.5864 332.519 18.5789C332.519 7.73515 323.598 0.927127 309.724 0.927127H272.167V56.9911ZM234.822 58C248.494 58 259.297 53.8825 266.635 48.0016V26.6504H230.072V35.8126H254.354V43.884C250.685 46.1564 243.55 48.8378 234.832 48.8378C219.471 48.8378 208.871 40.6845 208.871 29.0045C208.871 17.3246 219.471 9.17129 234.832 9.17129C244.448 9.17129 251.477 12.5344 255.937 17.8336L266.046 12.7071C260.089 5.46278 249.99 0 234.822 0C212.423 0 196.175 11.4346 196.175 28.9955C196.175 46.5563 212.423 57.9909 234.822 57.9909M123.947 56.9911H136.238V15.3794L176.672 56.982H188.567V0.927127H176.382V41.5208L136.73 0.927127H123.947V56.9911ZM70.5471 37.1487L83.8224 10.1711L97.0977 37.1487H70.5375H70.5471ZM47.1537 56.9911H60.7283L65.9804 46.32H101.655L106.907 56.9911H120.481L91.3531 0.927127H76.2917L47.1537 56.9911ZM23.3838 56.9911H35.568V10.0893H58.9518V0.927127H0V10.0893H23.3838V56.9911Z" fill="#421828"></path>
</svg>
