<?xml version="1.0" encoding="UTF-8"?><svg id="Layer_2" xmlns="http://www.w3.org/2000/svg" viewBox="0 0 388.64 106.09"><defs><style>.cls-1{fill:#fad8cd;}.cls-2{fill:#faaf43;}.cls-3{fill:#fff;}.cls-4{fill:#90c349;}.cls-5{fill:#da291c;}.cls-6{fill:#1c4392;}</style></defs><g id="Layer_1-2"><path class="cls-6" d="M111,97.58l-13.19-34.55h-11.81l1.68,1.26c.7,.38,1.14,1.11,1.16,1.9-.05,.95-.28,1.88-.67,2.74l-11.49,29.1c-1.24,3.13-2.36,4.83-3.84,5.87l-1.84,1.23h13.6l-1.26-1.2c-1.09-1-1.59-1.79-1.59-2.38,0-.82,.16-1.63,.49-2.38l3.73-9.3h14.24l3.47,9.41c.36,.79,.58,1.64,.64,2.51,0,.5-.46,1-1.55,2.16l-1.12,1.18h15.18l-1.45-1.23c-2.02-1.65-3.54-3.84-4.38-6.32Zm-22.81-13.19l5.19-13.07,4.79,13.07h-9.98Z"/><path class="cls-6" d="M145.57,80.48c3.32-2,5-4.62,5-7.76,0-6-5.37-9.71-14-9.71h-15.78l1.42,1.23c2,1.74,2.16,3.66,2.16,6.62v26.36c0,3-.15,4.89-2.17,6.69l-1.37,1.22h14.93c11.36,0,18.42-5.19,18.42-13.55,0-5.24-2.97-9.05-8.61-11.1Zm-8.67,18.87c-1.06,0-2.65-.15-4.64-.36v-14.09c1.47-.25,2.96-.39,4.46-.43,5.56,0,9.45,3.2,9.45,7.77s-3.46,7.11-9.27,7.11Zm-2-19.94c-.87,0-1.74-.05-2.6-.16v-10.65c1.17-.25,2.36-.39,3.56-.41,4.21,0,6.63,2,6.63,5.43-.04,3.68-2.81,5.79-7.63,5.79h.04Z"/><path class="cls-6" d="M176.62,99.17c-2.26-.06-4.52-.26-6.75-.62v-13.3h3c2.93,0,4.78,.06,5.77,1.25l1.24,1.49v-8.58h-10v-10.21c1.76-.39,3.56-.61,5.36-.65,2.5-.14,4.98,.6,7,2.08l1.13,.86v-8.46h-24.91l1.42,1.23c2,1.74,2.16,3.66,2.16,6.62v26.36c0,3-.14,4.88-2.17,6.69l-1.37,1.22h27.08l3.68-10.42-1.74,1.15c-3.21,2.19-7.02,3.34-10.9,3.29Z"/><path class="cls-6" d="M224.43,98.13l-10-13.41c6-2.65,8.73-6.06,8.73-10.68,0-6.6-5.69-11-14.15-11h-16.01l1.41,1.23c2,1.74,2.16,3.66,2.16,6.62v26.36c0,3-.14,4.88-2.16,6.69l-1.41,1.19h14.84l-1.37-1.22c-2-1.81-2.17-3.73-2.17-6.69v-14.26l12.7,17.5c1.94,2.79,5.09,4.49,8.49,4.56l5.39-.28-1.25-1.13c-1.91-1.65-3.65-3.49-5.2-5.48Zm-20.1-15.31v-14.09c1.24-.24,2.49-.38,3.75-.42,4.25,0,7.1,2.52,7.1,6.27,0,4-3.05,6.52-9.9,8l-.95,.24Z"/><path class="cls-6" d="M265.82,67.91c-5.09-4.07-10.39-4.9-16.78-4.9h-16.04l1.42,1.23c2,1.73,2.1,3.64,2.1,6.62v26.36c0,3-.1,4.9-2.11,6.69l-1.41,1.22h14.08c10.09,0,16.05-2,20.58-7,3.68-4,5.67-9.27,5.54-14.71,.15-6.05-2.59-11.81-7.38-15.51Zm-.6,16c0,9-6.3,15.52-15,15.52-1.98-.06-3.96-.25-5.91-.57v-29.5c1.8-.45,3.64-.68,5.49-.69,9.37,0,15.42,6,15.42,15.28v-.04Z"/><path class="cls-6" d="M295.37,99.17c-2.26-.06-4.52-.26-6.75-.62v-13.3h3c2.93,0,4.78,.06,5.77,1.25l1.21,1.53v-8.58h-10v-10.25c1.76-.39,3.56-.61,5.36-.65,2.5-.14,4.98,.6,7,2.08l1.13,.86v-8.46h-24.88l1.42,1.23c2,1.74,2.17,3.66,2.17,6.62v26.36c0,3-.15,4.88-2.17,6.69l-1.37,1.22h27.07l3.67-10.44-1.74,1.15c-3.2,2.19-7.01,3.35-10.89,3.31Z"/><path class="cls-6" d="M329.89,99.17c-2.26-.05-4.51-.26-6.74-.62v-13.3h3c2.93,0,4.78,.06,5.77,1.25l1.24,1.5v-8.59h-10v-10.21c1.76-.39,3.56-.61,5.36-.65,2.5-.14,4.98,.6,7,2.08l1.12,.86v-8.46h-24.91l1.43,1.23c2,1.74,2.16,3.66,2.16,6.62v26.36c0,3-.15,4.89-2.17,6.69l-1.37,1.22h27.08l3.68-10.42-1.74,1.15c-3.21,2.19-7.02,3.34-10.91,3.29Z"/><path class="cls-6" d="M375.64,63.03l1.41,1.23c2,1.74,2.17,3.66,2.17,6.62v21.4l-23.05-29.25h-10.51l1.42,1.23c2,1.74,2.16,3.66,2.16,6.62v26.36c0,3-.14,4.89-2.17,6.69l-1.37,1.22h12.93l-1.37-1.22c-2-1.79-2.11-3.71-2.11-6.69v-22.75l19.77,24.91c2.91,3.71,5.45,6.56,9.42,6.69h.72v-35.23c0-3,.15-4.88,2.16-6.62l1.42-1.23-13,.02Z"/><path class="cls-6" d="M104.46,46.22c-1.91,2.52-5.48,3.57-8.52,3.57-2.93,.11-5.78-1-7.87-3.05-2.31-2.52-2.22-5.43-2.22-8.56v-11.62c0-1.95,.3-5.13-1.92-5.95v-.13h8.27v.13c-2.18,.82-1.92,4-1.92,5.95v11.62c0,5.78,2.44,8.47,6.92,8.47,2.48,.08,4.84-1.04,6.35-3,.95-1.3,.91-2.39,.91-4v-13.09c0-1.95,.26-5.13-1.91-5.95v-.13h8.26v.13c-2.21,.82-2,4-2,6v16.42c0,2-.26,5.13,2,6v.13h-6.39l.04-2.94Z"/><path class="cls-6" d="M120.88,43.44c0,2.43,0,4.17,2.26,5.52v.13h-7.69v-.13c2.3-1.35,2.3-3.09,2.3-5.52V26.09c0-2.44,0-4.18-2.26-5.48v-.13h6.35c.13,.41,.35,.78,.65,1.09l.61,.87,15.9,20.13V26.09c0-2.44,0-4.18-2.27-5.48v-.13h7.66v.13c-2.26,1.3-2.26,3-2.26,5.48v24.39c-3.09-1-4.44-2.48-6.35-5l-14.92-18.91,.02,16.87Z"/><path class="cls-6" d="M150.53,26.61c0-2,.31-5.18-1.91-6v-.13h8.26v.13c-2.17,.82-1.91,4-1.91,6v16.42c0,2-.26,5.13,1.91,6v.13h-8.26v-.13c2.17-.78,1.91-4,1.91-6V26.61Z"/><path class="cls-6" d="M180.47,28.35c1.18-3.09,2.65-6.66,0-7.74v-.13h6.48l-11.48,29.91c-3.05-2-4.05-2.34-5.31-5.78l-6.56-17.79c-.83-2.21-1.48-4.74-3.4-6.21v-.13h6.35v.52c.23,1.37,.63,2.72,1.17,4l6.92,18.92,5.83-15.57Z"/><path class="cls-6" d="M197.19,45.44l5.53,.52c2.9,.26,5.79-.67,8-2.57h.13l-2,5.7h-18.05v-.13c2.22-.78,2-4,2-6V26.61c0-2,.26-5.18-2-6v-.13h13.92c.67,.08,1.36,0,2-.22h.13v5.09h-.13c-1.35-1.57-3.13-1.74-5.13-1.74-1.49-.03-2.97,.07-4.44,.3v8.12h5.18c.65,.05,1.3-.04,1.91-.26h.13v4.61h-.13c-.7-1.26-2.52-1.22-3.87-1.22h-3.22l.04,10.28Z"/><path class="cls-6" d="M224.07,20.48c5.83,0,9,3,9,7s-3.35,6.82-6.92,7.65l6.26,7.87c2.03,2.38,4.4,4.43,7.05,6.09h-4c-1.94,.18-3.84-.64-5.05-2.17l-5.3-6.57-4-6.13c3.48-.52,7.52-2.13,7.52-6.22,0-3.13-2.7-5-5.61-4.83-1.01,.06-2.01,.17-3,.35v19.51c0,2-.26,5.18,2,6v.13h-8.3v-.13c2.21-.78,1.91-4,1.91-6V26.61c0-2,.3-5.18-1.91-6v-.13h10.35Z"/><path class="cls-6" d="M258.29,25.65c-1.84-1.76-4.29-2.74-6.83-2.74-2.48,0-5.61,1-5.61,4,0,6,15,5.87,15,13.91,0,4.66-4.87,9-11.65,9-2.65,.02-5.29-.42-7.79-1.31l-1.3-5.48c2.66,2.27,6.03,3.54,9.53,3.6,2.47,0,6.21-1.47,6.21-4.52,0-6.78-15-5.56-15-14.78,0-5.48,5.61-7.57,10.92-7.57,2.2,0,4.38,.34,6.48,1l.04,4.89Z"/><path class="cls-6" d="M266.47,26.61c0-2,.3-5.18-1.91-6v-.13h8.26v.13c-2.18,.82-1.91,4-1.91,6v16.42c0,2-.27,5.13,1.91,6v.13h-8.26v-.13c2.17-.78,1.91-4,1.91-6V26.61Z"/><path class="cls-6" d="M289.26,43.44c0,2.48,0,4.17,2.26,5.52v.13h-8.61v-.13c2.18-.83,1.92-4,1.92-6V23.61h-3.83c-1.88-.09-3.73,.54-5.18,1.74h-.13l1.53-5.18h.13c.54,.17,1.09,.27,1.65,.31h17.31c.68,.04,1.36-.07,2-.31h.13l-1.39,5.18h-.13c-.57-1.53-2.31-1.74-3.74-1.74h-3.92v19.83Z"/><path class="cls-6" d="M316.19,43.44c0,2.61,0,3.91,2.21,5.52v.13h-8.47v-.13c2.13-1.09,1.82-3.91,1.82-6v-6.43l-7.22-11.62c-1.17-1.91-2-3.34-4.13-4.47h4c1.39,0,2.7,.3,3.26,1.21l7,11.35,5.39-8.09c.74-1.08,1.74-3.17-.69-4.34v-.13h7.61l-10.7,16.09-.08,6.91Z"/><path class="cls-6" d="M368.49,34.48c0,8.87-7.35,15.31-16,15.31s-15.88-6.18-15.88-15.09c0-8.27,7.18-15.18,16.31-15,9.14-.01,15.57,6.95,15.57,14.78Zm-26.92-.18c0,6.09,4.31,12.35,11.13,12.35s10.83-4.82,10.83-11.3-4-12.48-10.91-12.48-11.05,4.87-11.05,11.43h0Z"/><path class="cls-6" d="M378.37,43.03c0,2-.35,5.13,1.83,6v.13h-8.2v-.13c2.22-.78,2-4,2-6V26.61c0-2,.26-5.18-2-6v-.13h13.91c.69,.09,1.39,.01,2.05-.22h.13v5h-.13c-1.35-1.52-3.13-1.69-5.13-1.69-1.49-.03-2.97,.07-4.44,.3v8.16h5.22c.63,.05,1.27-.04,1.87-.26h.13v4.61h-.13c-.7-1.31-2.52-1.22-3.87-1.22h-3.22l-.02,7.87Z"/><path class="cls-5" d="M35.75,105.57V56.37c0-.07,35.44,0,35.44,0v7.54c0,23.48-35.22,41.06-35.41,41.65"/><rect class="cls-2" x="47.48" y="21.15" width="5.79" height="13.66"/><rect class="cls-5" x="53.27" y="21.15" width="5.79" height="13.66"/><rect class="cls-2" x="59.06" y="21.15" width="5.93" height="13.66"/><rect class="cls-5" x="64.99" y="21.15" width="5.97" height="13.66"/><rect class="cls-5" x="41.73" y="21.15" width="5.74" height="13.66"/><rect class="cls-2" x="35.92" y="21.15" width="5.82" height="13.63"/><rect class="cls-6" x=".35" y="20.86" width="35.41" height="35.5"/><polyline class="cls-3" points="43.67 60.55 43.67 59.54 44.17 59.54 44.17 60.12 44.67 60.12 44.67 59.53 45.19 59.53 45.19 60.12 45.69 60.12 45.69 59.54 46.13 59.54 46.13 60.55 43.67 60.55"/><polyline class="cls-3" points="47.31 60.52 47.31 59.51 47.81 59.51 47.81 60.08 48.3 60.08 48.3 59.51 48.83 59.51 48.83 60.08 49.33 60.08 49.33 59.51 49.77 59.51 49.77 60.52 47.31 60.52"/><polyline class="cls-3" points="50.85 60.49 50.85 59.48 51.35 59.48 51.35 60.06 51.85 60.06 51.85 59.48 52.37 59.48 52.37 60.06 52.87 60.06 52.87 59.49 53.31 59.49 53.31 60.49 50.85 60.49"/><polyline class="cls-3" points="44.27 67.32 42.8 77.09 54.27 77.09 52.77 67.32 44.27 67.32"/><polyline class="cls-3" points="42.68 66.02 42.68 63.27 54.4 63.26 54.4 66 52.77 67.32 44.27 67.32 42.68 66.02"/><polyline class="cls-3" points="40.66 79.1 40.66 85.28 56.28 85.28 56.28 79.15 54.22 77.08 42.74 77.08 40.66 79.1"/><polyline class="cls-3" points="43.67 63.12 43.96 61.39 43.67 60.55 46.13 60.55 45.84 61.39 46.13 63.12 43.67 63.12"/><polyline class="cls-3" points="47.29 63.13 47.58 61.39 47.31 60.52 49.77 60.52 49.45 61.39 49.74 63.13 47.29 63.13"/><polyline class="cls-3" points="50.84 63.11 51.13 61.38 50.85 60.49 53.31 60.49 53.02 61.38 53.3 63.11 50.84 63.11"/><path class="cls-3" d="M43.67,63.13h.88v-.85c.08-.57,.66-.58,.73,0v.85h.85l-.29-1.74h-1.84l-.33,1.74Z"/><path class="cls-3" d="M47.29,63.13h.88v-.84c.07-.57,.66-.58,.72,0v.84h.86l-.29-1.73h-1.88l-.29,1.73Z"/><path class="cls-3" d="M50.84,63.12h.89v-.84c.07-.57,.66-.58,.72,0v.84h.85l-.28-1.74h-1.89l-.29,1.74Z"/><path class="cls-2" d="M18,43.03h2.32c-.53,1-1,1.91,0,3.27s4.25,5,.09,8.58h-2.41"/><path class="cls-2" d="M18,43.03h-2.31c.53,1,1,1.91,0,3.27s-4.26,5-.1,8.58h2.41"/><path class="cls-2" d="M23.45,49.62c-.55-.69-.59-1.66-.11-2.4,.45-1,2.54-3.3,1.66-5.1-.57-1.24-2.03-1.78-3.27-1.22-.36,.17-.68,.42-.93,.74-.31,.57-.31,1.27,0,1.84,.24,.36,.68,.54,1.1,.45,.38-.08,.63-.46,.55-.84-.1-.27-.32-.48-.59-.56-.18,.02-.35,.07-.5,.15-.06-.32,.05-.66,.28-.89,.38-.35,.93-.46,1.42-.29,.84,.29,1.36,1.12,1.26,2-.22,.65-.32,1.37-2.32,2.2,.24,.29,.63,.42,1,.33-.92,1.46-1.42,3,.07,4.64,.38,.36,.98,.34,1.34-.04,.3-.32,.34-.81,.1-1.18-.22-.2-.53-.27-.81-.17-.11,.09-.21,.21-.27,.34"/><path class="cls-2" d="M12.48,49.61c.55-.69,.61-1.65,.13-2.4-.44-1-2.51-3.33-1.61-5.11,.57-1.23,2.03-1.77,3.27-1.2,.37,.17,.69,.43,.93,.76,.32,.57,.32,1.27,0,1.84-.25,.35-.68,.52-1.1,.43-.38-.08-.63-.46-.55-.84,.1-.27,.32-.47,.59-.55,.18,.01,.35,.06,.5,.15,.08-.32-.02-.67-.27-.89-.37-.36-.92-.48-1.41-.31-.84,.28-1.38,1.12-1.28,2,.21,.66,.31,1.37,2.3,2.23-.25,.28-.63,.4-1,.31,.91,1.48,1.39,3-.11,4.65-.41,.37-1.04,.33-1.41-.08-.02-.02-.04-.05-.06-.07-.23-.33-.23-.76,0-1.09,.22-.2,.53-.27,.81-.17,.11,.1,.2,.22,.26,.35"/><path class="cls-3" d="M16.07,48.56c-.13-.66-.32-1,.41-1.75,.14,1.16,.29,1.57,1.12,1.8s3,1.35,3.4,2.16,.09,1.48-.68,1.19c-.73-.32-1.37-.82-1.85-1.46-.53-.56-1.16-1.03-1.84-1.39-.48-.14-.99-.1-1.44,.1,.17-.66,.44-.92,.81-1,.02,.12,.04,.24,.07,.35Z"/><path class="cls-3" d="M15.91,52.78c.13,.49,.51,.87,1,1-.25-.48-.3-1.04-.13-1.55,.17-.69,.55-1.31,1.09-1.77,.68-.48,1.33-1,1.93-1.58,.46-.49,.45-.9-.35-.95-1.23-.08-2.35,.69-2.72,1.87-.79,1.7-.51,1.85-.94,2.5-.24,.33-.56,.59-.93,.76,.4,.1,.82,.1,1.22,0-.05-.1-.11-.19-.17-.28Z"/><path class="cls-3" d="M18.89,50.96c-1,.44-1.09,.39-1.86,0-.54-.39-1.19-.6-1.85-.63-.73,0-.63,.51-.56,.72,.89,1.34,2.64,1.81,4.08,1.09,.3-.17,.58-.36,.84-.58-.23-.19-.45-.39-.65-.6"/><path class="cls-3" d="M20.19,49.94c.23-.33,.31-.75,.22-1.14,.31,.24,.49,.61,.47,1,.42-.01,.81,.21,1,.58-.34-.07-.69-.03-1,.12-.21-.21-.44-.4-.69-.56Z"/><path class="cls-3" d="M16.79,36.44c-.11,0-.22,.06-.3,.13-.46-.74-.33-1.7,.31-2.29,.87,.8,.94,1.45,.57,2.2-.16-.05-.18-.07-.26-.05h-.32"/><path class="cls-4" d="M14.57,35.5c.35-.05,.71,.04,1,.25-.37-1.05-1.21-3-1.23-3.2-.09,.99-.02,1.99,.23,2.95Z"/><path class="cls-4" d="M19.66,37.83c.82-1.21,1.89-2.23,3.14-3-.42,2.5-1.07,3.22-1.58,3.68-.79,.69-1.35,1.61-1.59,2.63h-1.13c-.02-.79,.16-1.57,.51-2.28l.65-1.03Z"/><path class="cls-4" d="M19.73,32.85c-.34,.87-.74,1.72-1.2,2.53l-.76,2.76-.36,2.19c.02,.26,.02,.51,0,.77h.73c-.02-.88,.17-1.75,.55-2.54,0,0,1.42-3.53,1.04-5.71Z"/><polygon class="cls-3" points="20.44 21.29 21.45 21.75 20.44 21.94 20.99 22.5 20.08 22.38 20.66 23.21 19.78 22.82 20.04 23.67 19.27 23.07 19.34 23.89 18.71 23.5 18.43 24.56 18.1 23.81 17.79 24.35 17.53 23.72 16.77 24.42 16.8 23.54 16.14 23.88 16.07 23.07 15.48 23.5 15.48 22.96 14.83 23.33 15.02 22.62 14.1 22.82 14.7 22 13.81 21.95 14.92 21.31 11.11 21.38 12.03 22.31 10.67 22.79 11.74 23.25 10.06 23.75 11.4 24.23 9.9 24.98 11.11 25.2 9.37 26.58 11.34 26.38 9.75 27.94 11.23 27.7 9.92 29.5 11.75 28.81 10.83 30.71 12.54 29.64 12.52 31.07 13.46 30.34 13.4 31.49 14.32 30.73 14.53 31.61 15.39 31.05 15.61 32.22 16.55 31.29 17.13 32.36 17.79 31.32 18.67 32.24 19.07 31.2 19.91 32.1 20.2 30.79 21.12 31.99 21.29 30.47 22.65 31.73 22.14 29.64 23.62 30.83 22.93 28.62 24.25 29.49 23.6 28.19 24.91 28.86 23.66 26.85 25.25 27.63 24.5 26.29 26.34 26.54 23.84 25.17 25.66 25.18 23.86 24.18 25.37 24.1 23.52 23.26 25.32 23.04 23.13 22.26 24.57 21.38 20.44 21.29"/><path class="cls-3" d="M16.16,36.95c-.02,.15-.05,.29-.09,.43-.19-.07-.4-.07-.59,0-.64-.44-1.09-1.12-1.24-1.88,.87-.12,1.73,.31,2.17,1.07l-.25,.41"/><path class="cls-3" d="M16.94,38.14c.49,0,.89-.39,.9-.88,0-.49-.39-.89-.88-.9s-.89,.39-.9,.88c0,0,0,0,0,0,0,.49,.38,.88,.87,.89,0,0,0,0,.01,0Z"/><path class="cls-5" d="M16.93,37.63c.21-.03,.36-.23,.32-.45-.03-.17-.16-.3-.32-.32-.21-.03-.41,.11-.45,.32-.03,.21,.11,.41,.32,.45,.04,0,.08,0,.12,0"/><path class="cls-3" d="M18.12,37.17c.83-.27,1.46-.95,1.69-1.79-.76-.21-1.57,.04-2.07,.64-.13,.15-.26,.3-.37,.46,.1,.04,.18,.11,.23,.2l.16,.29"/><path class="cls-3" d="M17.81,37.39c0-.09,0-.18,0-.27,.88-.03,1.69,.47,2.06,1.27-.42,.18-.88,.24-1.33,.18-.4-.13-.74-.37-1-.7,.07-.04,.13-.1,.17-.17l.09-.31"/><path class="cls-4" d="M21.91,39.03c.64-.34,1.31-.61,2-.81,1.58-.66,3.29-.98,5-.94,.66,.09,1.34,.09,2,0,.41-.19-1.3,1.42-3.25,1.14-.63-.04-1.25-.04-1.88,0-.74,.1-1.56,.3-1.43,.24,.29-.03,.59-.03,.88,0,.66,.01,1.32,.13,1.94,.36,.69,.31,1.31,.76,1.82,1.32,.23,.31,.48,.6,.75,.87,.13,.12,.15,.1,.3,.12,.21,.02,.39,.13,.51,.3,.14,.21,.36,.11,.6,.16,.34,.13,.64,.36,.86,.66,.29,.28,.68,.44,1.08,.44-.69,.65-1.09,.66-1.09,.66-.17-.72-.44-1.29-1.21-1.46,.4,.19,.74,.5,.94,.9,.07,.26,.12,.52,.13,.79,.08,.23,.23,.43,.42,.57-.93-.17-1.57-.39-1.71-1.07s-.39-.83-.39-.83c.14,.35,.24,.72,.29,1.09,.08,.23,.23,.42,.44,.54,.34,.19,.71,.32,1.09,.41-1.23,0-2-.08-2.13-1.84-.1,.44-.05,.9,.14,1.31,.12,.2,.28,.36,.48,.48-.38,.34-.85,.54-1.35,.59,.28-.51,.33-1.11,.14-1.66-.11-.26-.09-.55,.05-.8,.1-.25-.07-.38-.05-.56,.03-.13,.05-.27,.05-.41,0-.1-.2-.22-.32-.39-.46-.53-.97-1.01-1.53-1.43-.74-.45-1.58-.7-2.45-.73-1.18,.07-2.34,.32-3.45,.74,0,0,5.78-1.75,7.1,3,.06,.48,.06,.97,0,1.45,0,0-1.1-.79-1.29-1,0,0-2.89-4.62-6.91-2.05h-.79c.15-.69,.5-1.31,1-1.8,.57-.63,1.2-1.2,1.88-1.7,.72-.53,3-2.37,3.34-2.78,.53-.51,1.13-.94,1.78-1.29,.78-.33,1.62-.49,2.47-.46-.66,.37-1.26,.84-1.77,1.4-.56,.6-1.16,1.16-1.82,1.65-.41,.29-1.05,.76-1.36,1-.3,.24-.62,.47-.95,.67-.78,.34-1.53,.72-2.26,1.15"/><path class="cls-4" d="M16.63,41.1h-.36c-.75-1.13-1.89-1.94-3.2-2.28-1.2-.48-1.39-.51-2.51-.87s-2.19-.69-2.45-1.12-.71-1.11-.71-1.11c.7,.35,1.44,.58,2.21,.7,.46,.07,.92,.18,1.37,.33,1.32,.43,2.57,1.04,3.73,1.81,.39,.28,.72,.61,1,1,.15,.38-.29-.59-.29-.59l-.59-.66c-.74-.76-1.59-1.41-2.52-1.92-1.86-.89-1.85-1.38-2.24-2.26,.95,.16,1.85,.5,2.67,1,.34,.21,.39,.27,.73,.48,.67,.54,1.28,1.16,1.8,1.85"/><path class="cls-4" d="M15.28,37.51c.93,1.03,1.61,2.26,2,3.59h-.61"/><path class="cls-4" d="M13.88,39.9c-1.26-.5-2.7-.32-3.8,.47-1.08,.72-1.62,2.03-1.36,3.31,.45-.39,.88-.81,1.28-1.25,.32-.53,.71-1.01,1.14-1.45,1.17-1.01,2.92-.93,4,.17h.76c-.55-.92-1.44-1.59-2.48-1.85-1.29-.46-2.71-.46-4,0-.87,.24-1.66,.69-2.31,1.31-.77,.63-1.1,1.33-1.29,1.41s-.53,.22-.53,.22c-.64,.28-1.08,.89-1.14,1.59-.17,.83-.22,2,.17,1.59,.35-.36,.59-.82,.67-1.32,.06-.43,.06-.65,.3-.87,.13-.12,.28-.22,.45-.29-.04,.18-.13,.34-.26,.48-.09,.14-.14,.3-.13,.47-.09,.51-.28,1-.57,1.43-.24,.24-.25,.85,.34,.39s1.5-1,1.43-2.21c0-.8-.17-1,.25-1.72,.95-1.12,2.24-1.89,3.68-2.19,1.12-.27,2.3-.15,3.34,.35"/><path class="cls-3" d="M16.18,37.73c.08,.1,.17,.19,.28,.26-.37,.68-.45,1.15-2,1.28,.27-1.1,.47-1.65,.85-1.84,.24-.09,.5-.09,.74,0v.1l.09,.25"/><path class="cls-3" d="M17.11,38.03c.13-.03,.25-.09,.35-.18,.46,.8,.35,1.8-.28,2.48-.79-.51-1.09-1.52-.72-2.38,.08,.06,.18,.11,.29,.12h.36"/><rect class="cls-2" x="15.68" y="41.81" width="4.62" height="1.21"/><rect class="cls-2" x="15.55" y="54.86" width="4.78" height=".69"/><polygon class="cls-2" points="14.88 21.31 20.43 21.29 21.43 21.75 20.42 21.94 20.99 22.5 20.08 22.39 20.66 23.21 19.77 22.82 20.01 23.66 19.25 23.1 19.32 23.9 18.68 23.51 18.42 24.52 18.09 23.82 17.77 24.36 17.52 23.74 16.75 24.42 16.8 23.55 16.12 23.87 16.06 23.08 15.47 23.49 15.47 22.96 14.82 23.32 15.02 22.59 14.1 22.82 14.7 22 13.83 21.95 14.88 21.31"/><path class="cls-2" d="M15.12,24.97l-.79,.64v3.76c.38,.27,.8,.48,1.24,.64,.3,.1,.61,.15,.93,.16,.4,0,.79,.11,1.13,.33,.34-.17,.7-.28,1.08-.32,.29,.03,.58,.03,.87,0,.51,.01,1-.2,1.35-.58v-4.16l-.27,.16v-.3l-.25,.14v-.28l-.28,.16v3.61c-.21,.18-.47,.3-.74,.34-.21,.04-.43,.04-.65,0-.39,.02-.77,.11-1.13,.27-.38-.17-.79-.26-1.2-.25-.46,.02-.92-.13-1.29-.41v-3.88"/><path class="cls-3" d="M16.33,25.31c-.42-.08-.83-.22-1.21-.41v3.95c.34,.27,.76,.41,1.19,.4,.45-.03,.9,.06,1.3,.26,.47-.22,.99-.31,1.5-.24,.36-.03,.71-.16,1-.39v-3.72c-.31,.16-.65,.25-1,.25-.5-.15-1.03-.1-1.5,.12l-.7-.18-.58-.04Z"/><path class="cls-1" d="M16.32,23.61c.3-.39,.48-.87,.51-1.36v-1h2c-.14,.36-.2,.74-.18,1.12,.26,1.93,.08,1.9,.08,1.9-.34,.78-.66,1.69-.66,1.69l.11,.87c.14,.36-.2,1.06-.51,1.1s-.3-.43-.3-.43c0,0,0,.08-.13-.42-.14-.58-.24-1.17-.3-1.76-.17-.04-.34-.06-.51-.06-.32-.02-.64-.1-.93-.24,.21-.46,.44-.9,.7-1.33l.06-.09"/><path class="cls-3" d="M6.87,41.75c-.42,.74-.3,.92-.26,1.72,.07,1.22-.83,1.75-1.42,2.21s-.58-.16-.34-.39c.28-.43,.47-.92,.56-1.43,0-.17,.04-.34,.13-.48,.14-.12,.23-.29,.26-.47-.16,.07-.31,.17-.44,.29-.24,.22-.24,.44-.31,.86-.08,.5-.31,.96-.66,1.33-.39,.41-.34-.77-.17-1.6,.05-.7,.49-1.31,1.14-1.58l.52-.22,.34-.37,.65,.13Z"/><path class="cls-3" d="M29.42,42.27c-.11,.15,.06,.05,0,.31-.14,.24-.16,.54-.05,.8,.19,.55,.14,1.15-.14,1.66,.5-.05,.97-.25,1.35-.59-.2-.12-.36-.28-.48-.48-.19-.41-.24-.87-.14-1.31,.09,1.75,.9,1.82,2.13,1.84-.38-.09-.75-.22-1.09-.41-.21-.12-.36-.31-.44-.54-.05-.37-.15-.74-.29-1.09,0,0,.25,.15,.39,.83s.78,.9,1.71,1.07c-.19-.14-.34-.34-.42-.57-.02-.27-.06-.53-.13-.79-.2-.4-.54-.71-.94-.9,.77,.17,1,.73,1.21,1.46,0,0,.4,0,1.09-.66-.4,0-.79-.16-1.08-.44-.22-.3-.51-.53-.86-.66-.24-.06-.46,.05-.6-.16-.46,.09-.88,.31-1.22,.63Z"/><path class="cls-5" d="M5.74,65.59c.4,0,.78-.21,1-.55,.25-.29,.63-.41,1-.32,.43,.11,.58,.1,.76,0s.16-.19,.66-.21c-.66-.74-1.1-.52-1.67-.4-.58,.1-1.15-.21-1.38-.76l-.45,.06c-.27-.24-.84-.06-.84-.06,0,0-1,.39-1.1-.39s.27-.83,.27-.83c.18,0,.45-.45,.45-.45,.09-.51,.47-.48,.47-.48,.21-.14,1.08,.24,1.08,.24,0,0,0,.12,.56,.06s.51-.44,.51-.44c-.06-.6-.75-.42-.75-.42,.48-.63,2,.12,2,.12,.39-.5,1.07-.7,1.67-.48,.47-.5,1.2-.64,1.82-.36,0-.89,1.64-1.31,1.64-1.31,.23-.06,.77-.89,.77-.89,.95,2.53-.75,2.71-.75,2.71l.76-.11c.73-.19,1.29-.77,1.45-1.51,.19,1.62,.05,2.15-.54,2.73,.32,.06,.64,0,.93-.13-.24,.59-.78,1.02-1.41,1.12,.61,0,1.21-.18,1.73-.5-.16,.53-.51,.98-1,1.25,.62-.17,.88-.3,1-.42-.35,1.15-.95,1.36-1.3,1.46,.43,.02,.85-.08,1.22-.29-.55,1.22-.95,1.3-1.15,1.43-.38,.14-.81,.09-1.15-.13,.62,.44,.87,.68,1.12,.84-.56,.24-1.21,.17-1.71-.19-.06,.26-.04,.52,.05,.77-.24-.04-.46-.18-.61-.37l-.05-.05c-.94,.2-1.91,.17-2.84-.08-.34-.16-.74-.14-1.06,.05-.36,.13-.75,.16-1.12,.08-.25-.08-.53-.02-.73,.16-.24,.18-.71,.71-1.46-.08-.21-.24-.29-.19-.49-.21s-.22-.51-.22-.56l.85-.07"/><path class="cls-3" d="M6.15,63.3c.22,.55,.8,.87,1.39,.76,.56-.11,1-.33,1.66,.41-.5,0-.48,.08-.66,.21s-.32,.14-.76,0c-.37-.09-.75,.03-1,.32-.25,.27-.4,.49-.88,.45"/><path class="cls-6" d="M7.39,64.68c-.51-.09-1-.25-1.46-.47-.35-.15-.73-.19-1.1-.1-.6,.08-.5,.5-1.58,.07-.23-.1-.53-.12-1.21,.32-.31,.14-.45,.51-.3,.82,.08,.16,.22,.29,.39,.34,1.18,.5,1.49,.63,2.1,.26,.28-.23,.64-.33,1-.29,.34-.03,.67-.08,1-.15,.2-.05,.37-.17,.48-.35,.18-.22,.43-.38,.71-.45"/><path class="cls-3" d="M10.29,62.6c.26,0,.47-.22,.48-.48,0-.26-.22-.47-.48-.47-.26,0-.47,.21-.47,.47h0c0,.26,.21,.47,.47,.48"/><path class="cls-3" d="M5.17,63.22c-.06,.29-.06,.58,0,.87-.29-.14-.51-.4-.61-.71"/><path class="cls-3" d="M5.91,65.56c-.47-.38-.18-1.17-.18-1.17,.26,.32,.42,.66,.9,.79-.09,.09-.18,.18-.29,.25-.14,.06-.28,.1-.43,.13"/><path class="cls-3" d="M5,63.27c.07,.38,.27,.74,.56,1,.07-.45-.06-.45,.28-.84"/><path class="cls-3" d="M5.52,63.3c.06,.45,.28,.87,.63,1.17,0-.67,.23-.83,.23-.83"/><path class="cls-3" d="M9.2,64.47c-.21,0-.42,.05-.6,.16-.11,.08-.22,.18-.33,.16-.01-.44,.11-.87,.35-1.24,.06,.37,.27,.7,.58,.92"/><path class="cls-3" d="M6.68,63.5c-.16,.06-.24,.24-.17,.4,0,0,0,.02,.01,.03,.08,.12,.07,.07,.26,.16,.2,.08,.42,.06,.6-.06,.25-.13,.41-.37,.45-.65,.1-.63-.05-1.17-1-1.25,.35,.28,.4,.79,.12,1.14-.08,.1-.18,.18-.3,.23"/><path class="cls-3" d="M7.73,64.03c.23-.18,.36-.46,.37-.75,.14,.18,.21,.42,.18,.65-.19,0-.37,.04-.55,.1"/><path class="cls-5" d="M23.59,65.59c.4,0,.78-.22,1-.55,.25-.29,.63-.41,1-.32,.44,.11,.58,.1,.76,0s.16-.19,.66-.21c-.66-.74-1.1-.52-1.66-.4-.58,.1-1.16-.22-1.39-.76l-.45,.06c-.26-.24-.83-.06-.83-.06,0,0-1,.39-1.1-.39s.26-.83,.26-.83c.18,0,.45-.45,.45-.45,.09-.51,.48-.48,.48-.48,.21-.14,1.07,.24,1.07,.24,0,0,0,.12,.57,.06s.51-.44,.51-.44c-.06-.6-.75-.42-.75-.42,.48-.63,2,.12,2,.12,.39-.51,1.06-.7,1.66-.48,.47-.5,1.2-.64,1.82-.36,0-.89,1.64-1.31,1.64-1.31,.24-.06,.78-.89,.78-.89,1,2.53-.76,2.71-.76,2.71l.76-.11c.73-.19,1.29-.77,1.45-1.51,.2,1.62,0,2.15-.53,2.73,.31,.06,.64,.01,.92-.13-.24,.59-.77,1.01-1.4,1.12,.61,0,1.2-.18,1.72-.5-.16,.53-.52,.98-1,1.25,.36-.05,.71-.2,1-.42-.36,1.15-.95,1.36-1.31,1.46,.43,.02,.85-.08,1.23-.29-.55,1.22-1,1.3-1.15,1.43-.39,.14-.82,.09-1.16-.13,.63,.44,.87,.68,1.13,.84-.56,.24-1.21,.17-1.71-.19-.06,.26-.04,.52,.05,.77-.25-.04-.47-.17-.62-.37l-.05-.05c-.94,.2-1.91,.17-2.83-.08-.34-.16-.74-.14-1.07,.05-.35,.13-.74,.16-1.11,.08-.25-.08-.53-.02-.73,.16-.24,.18-.71,.71-1.47-.08-.21-.24-.29-.19-.48-.21s-.23-.51-.23-.56l.86-.07"/><path class="cls-3" d="M24,63.3c.22,.55,.8,.87,1.38,.76,.57-.11,1-.33,1.67,.41-.5,0-.49,.08-.66,.21s-.33,.14-.77,0c-.37-.09-.75,.03-1,.32-.26,.27-.4,.49-.89,.45"/><path class="cls-6" d="M25.24,64.68c-.51-.09-1-.24-1.47-.47-.35-.15-.73-.19-1.1-.1-.6,.08-.5,.5-1.58,.07-.23-.1-.52-.12-1.21,.32-.31,.14-.44,.51-.3,.82,.08,.17,.22,.29,.4,.34,1.18,.5,1.48,.63,2.09,.26,.28-.23,.64-.33,1-.29,.34-.03,.67-.08,1-.15,.2-.05,.38-.17,.49-.35,.18-.22,.43-.38,.71-.45"/><path class="cls-3" d="M28.14,62.6c.26,0,.47-.22,.47-.48,0-.26-.21-.47-.47-.47s-.47,.21-.47,.47h0c0,.26,.21,.47,.47,.48"/><path class="cls-3" d="M23,63.22c-.05,.29-.05,.58,0,.87-.29-.14-.51-.4-.61-.71"/><path class="cls-3" d="M23.75,65.56c-.46-.38-.17-1.17-.17-1.17,.26,.32,.42,.66,.9,.79-.09,.09-.19,.17-.29,.25-.14,.05-.29,.1-.44,.13"/><path class="cls-3" d="M22.88,63.27c.07,.39,.27,.74,.57,1,.06-.45-.07-.45,.27-.84"/><path class="cls-3" d="M23.37,63.3c.05,.46,.28,.87,.63,1.17,0-.67,.22-.83,.22-.83"/><path class="cls-3" d="M27.05,64.47c-.21-.01-.42,.04-.6,.16-.11,.08-.23,.18-.34,.16,0-.44,.11-.87,.35-1.24,.06,.37,.28,.71,.59,.92"/><path class="cls-3" d="M24.53,63.5c-.16,.06-.24,.24-.17,.4,0,0,0,.02,.01,.03,.08,.12,.06,.07,.26,.16,.19,.08,.42,.06,.59-.06,.25-.13,.42-.37,.45-.65,.1-.63,0-1.17-1-1.25,.35,.28,.4,.79,.12,1.14-.08,.1-.18,.18-.3,.23"/><path class="cls-3" d="M25.58,64.03c.22-.19,.35-.46,.37-.75,.14,.19,.2,.42,.18,.65-.19,0-.37,.04-.55,.1"/><path class="cls-5" d="M20.07,90.2c.4-.01,.77-.21,1-.54,.24-.3,.63-.43,1-.32,.44,.11,.58,.09,.76,0s.16-.19,.66-.21c-.66-.74-1.09-.51-1.66-.4-.58,.1-1.16-.21-1.39-.76l-.44,.06c-.27-.24-.84-.06-.84-.06,0,0-1,.39-1.1-.38s.26-.84,.26-.84c.18,0,.45-.45,.45-.45,.09-.5,.48-.47,.48-.47,.21-.15,1.07,.24,1.07,.24,0,0,0,.11,.57,.06s.51-.45,.51-.45c-.06-.6-.75-.42-.75-.42,.48-.62,2,.12,2,.12,.4-.5,1.07-.69,1.67-.48,.47-.5,1.2-.64,1.82-.36,0-.89,1.64-1.31,1.64-1.31,.23-.06,.77-.89,.77-.89,.95,2.53-.76,2.71-.76,2.71l.76-.11c.73-.19,1.29-.77,1.45-1.5,.2,1.61,.05,2.15-.53,2.72,.31,.05,.63,.01,.92-.12-.24,.59-.77,1.01-1.4,1.11,.61,0,1.21-.18,1.73-.5-.17,.53-.52,.98-1,1.26,.36-.06,.7-.21,1-.42-.36,1.14-1,1.35-1.31,1.45,.43,.02,.86-.08,1.23-.29-.55,1.23-.95,1.31-1.15,1.44-.39,.13-.81,.09-1.16-.13,.63,.43,.87,.67,1.13,.84-.57,.24-1.22,.16-1.71-.2-.06,.26-.04,.53,.05,.78-.24-.04-.46-.18-.61-.37l-.05-.05c-.94,.19-1.91,.17-2.84-.08-.34-.17-.73-.17-1.07,0-.35,.13-.74,.17-1.11,.09-.25-.09-.54-.03-.73,.16-.32,.39-.89,.45-1.28,.13-.07-.06-.14-.13-.19-.21-.21-.25-.29-.2-.48-.21s-.23-.52-.23-.56l.86-.08"/><path class="cls-3" d="M20.48,87.92c.23,.55,.81,.86,1.39,.76,.56-.12,1-.34,1.66,.4-.5,0-.49,.08-.66,.21s-.33,.15-.76,0c-.37-.09-.76,.04-1,.33-.26,.27-.4,.48-.89,.45"/><path class="cls-6" d="M21.72,89.29c-.51-.09-1-.24-1.47-.47-.35-.15-.73-.18-1.1-.1-.59,.09-.5,.51-1.58,.07-.23-.09-.52-.12-1.21,.32-.31,.14-.44,.51-.3,.82,.08,.17,.22,.29,.4,.34,1.18,.51,1.48,.63,2.1,.26,.28-.23,.64-.33,1-.29,.34-.02,.67-.07,1-.14,.2-.05,.38-.18,.49-.36,.19-.22,.43-.38,.71-.45"/><path class="cls-3" d="M24.62,87.21c.27,0,.48-.2,.49-.47,0-.27-.2-.48-.47-.49-.27,0-.48,.2-.49,.47,0,0,0,0,0,0,0,.26,.2,.47,.46,.48,0,0,0,0,.01,0"/><path class="cls-3" d="M19.49,87.84c-.05,.29-.05,.58,0,.87-.29-.14-.52-.4-.62-.71"/><path class="cls-3" d="M20.24,90.18c-.47-.39-.18-1.18-.18-1.18,.26,.32,.42,.66,.9,.79-.09,.09-.19,.18-.29,.26l-.43,.13"/><path class="cls-3" d="M19.37,87.89c.07,.39,.27,.74,.56,1,.06-.45-.07-.45,.27-.84"/><path class="cls-3" d="M19.85,87.91c.06,.46,.28,.88,.63,1.18,0-.68,.22-.84,.22-.84"/><path class="cls-3" d="M23.53,89.08c-.21-.01-.42,.04-.6,.16-.11,.08-.23,.18-.34,.16,0-.44,.12-.87,.36-1.24,.06,.37,.27,.71,.58,.92"/><path class="cls-3" d="M21,88.11c-.16,.07-.24,.26-.17,.42,0,0,0,.01,0,.02,.08,.11,.06,.06,.26,.16,.2,.07,.41,.04,.59-.07,.25-.12,.42-.36,.46-.64,.09-.64,0-1.18-1-1.26,.35,.28,.4,.79,.12,1.14-.08,.1-.18,.18-.3,.23"/><path class="cls-3" d="M22.06,88.66c.22-.18,.36-.45,.37-.74,.14,.18,.2,.41,.18,.64-.19,0-.37,.04-.55,.1"/><path d="M54.43,77.03l-1.43-9.64,1.55-1.26s.06-.08,.06-.13v-2.74s-.02-.08-.05-.11c-.03-.03-.07-.05-.12-.05h-1l-.28-1.71,.28-.86h0v-1c0-.07-.05-.12-.12-.12h-.44c-.06,0-.11,.06-.11,.12v.45h-.27v-.46c0-.06-.05-.11-.11-.11,0,0,0,0-.01,0h-.52c-.06,0-.11,.05-.12,.11v.46h-.26v-.46c0-.06-.05-.11-.11-.11,0,0,0,0-.01,0h-.5c-.06,0-.11,.05-.11,.11v1h0l.27,.86-.28,1.71h-.87l-.29-1.69,.31-.85h0v-1c0-.06-.04-.11-.1-.12,0,0,0,0-.01,0h-.44c-.07,0-.12,.05-.12,.12v.45h-.27v-.46c0-.06-.04-.11-.1-.12,0,0,0,0-.01,0h-.53c-.06,0-.11,.05-.11,.11,0,0,0,0,0,.01v.46h-.27v-.46c0-.06-.05-.11-.11-.11h-.5c-.06,0-.11,.04-.12,.1,0,0,0,0,0,.01v1h0l.27,.84-.29,1.71h-.92l-.29-1.71,.28-.81h0v-1c0-.07-.05-.12-.12-.12h-.44c-.06,0-.11,.05-.11,.11,0,0,0,0,0,.01v.46h-.27v-.46c0-.07-.05-.12-.12-.12h-.52c-.07,0-.12,.05-.12,.12v.46h-.26v-.46c0-.06-.05-.11-.11-.11,0,0,0,0-.01,0h-.5c-.06,0-.11,.05-.11,.11v1h0l.28,.81-.28,1.71h-.88c-.09,0-.16,.07-.16,.16h0v2.78c0,.05,.02,.1,.06,.13l1.52,1.24-1.45,9.57h0l-2.08,2s-.05,.08-.05,.12v6.18c0,.09,.07,.16,.16,.17h15.62c.09,0,.16-.08,.16-.17v-6.12s.02-.08,0-.12l-2.03-2Zm-.35-.14h-1.84v-.86h1.7l.14,.86Zm-8.2-13.5v.32h-1.88v-.32h1.88Zm-1.27-1.14c0-.26,.18-.38,.31-.38h0c.13,0,.27,.12,.3,.37v.79h-.61v-.78Zm1.27,1.63v.5h-1.88v-.5h1.88Zm-1.16,.67h2v1.25h-2v-1.25Zm2,1.42l.11,1.15h-1.65l-.43-1.15h1.97Zm2.74-2.58v.3h-1.87v-.3h1.87Zm-1.24-1.13c0-.27,.18-.39,.31-.39h0c.12,0,.27,.12,.3,.38v.78h-.62v-.77Zm4.79,1.17v.3h-1.86v-.3h1.86Zm-1.25-1.15c0-.27,.18-.38,.31-.38h0c.12,0,.27,.12,.29,.37v.76h-.61v-.75Zm1.26,1.62v.52h-1.86v-.52h1.86Zm-.82,.69v1.25h-1.87v-1.25h1.87Zm-.06,1.42l-.55,1.15h-1.43l.16-1.15h1.82Zm-5.42,7.68h3.59v1h-3.59v-1Zm-.57-.17v-1h1.17v1h-1.17Zm1.45-6h1.84v1.12h-1.84v-1.12Zm-.6-.33l-.12-1.15h1.55v1.15h-1.43Zm1.6-1.15h1.55l-.16,1.15h-1.39v-1.15Zm1.64,2.77v1.22h-.47c0-.67-.55-1.22-1.22-1.22s-1.22,.55-1.22,1.22h-.53v-1.28l3.44,.06Zm.8,1.45v1h-1.26v-1h1.26Zm-3.72,0v1h-1.3v-1h1.3Zm2.47,3.29v-1h1.11v1h-1.11Zm.69,.17h1.58v1h-1.58v-1Zm.58-.17v-1h1.52v1h-1.52Zm.63-1.15h-1.91v-1h1.91v1Zm-.48-1.16v-1h1v1h-1Zm.55-1.15h-1.35v-1.28h1.35v1.28Zm-.41-1.45v-1.12h1.27l.17,1.12h-1.44Zm-.17-1.12v1.12h-1.57v-1.12h1.57Zm-2.58-1.65v-1.25h1.57v1.25h-1.57Zm.85-1.94v.52h-1.87v-.52h1.87Zm-1,.69v1.25h-1.56v-1.25h1.56Zm-1,2.9v1.12h-1.57v-1.12h1.57Zm-1.74,0v1.12h-1.46l.17-1.12h1.29Zm-.42,1.29h1.36v1.22h-1.36v-1.22Zm.56,1.45v1h-1v-1h1Zm-.47,1.16h2v1h-2v-1Zm.62,1.17v1h-1.48v-1h1.48Zm-1,1.13h1.54v1h-1.52l-.02-1Zm.69,1.19v1h-1.58v-1h1.58Zm-.67,1.12h1.69v.9h-1.69v-.9Zm.86-.17v-1h1.85v1h-1.85Zm1,.17h1.57v.9h-1.57v-.9Zm1-.17v-1h1.28v1h-1.28Zm.72,.17h1.55v.9h-1.55v-.9Zm.73-.17v-1h1.85v1h-1.85Zm1,.17h1.73v.9h-1.73v-.9Zm1-.17v-1h1.57v1h-1.57Zm2.54,0h-.8v-1h.65l.15,1Zm-.17-1.15h-1.5v-1h1.34l.16,1Zm-.18-1.19h-.8v-1h.65l.15,1Zm-.18-1.15h-1.5v-1h1.35l.15,1Zm-.18-1.16h-.79v-1h.63l.16,1Zm-.14-1.18h-1.09v-1.28h.89l.2,1.28Zm-.32-2.9h-.92l.55-1.15h1.79l-1.42,1.15Zm1.53-1.32h-1.86v-1.25h1.86v1.25Zm-1-2.41h1v1h-1v-1Zm-2.21-3.8h.27v.43c0,.06,.05,.11,.11,.12h.5c.06,0,.12-.06,.12-.12v-.46h.29v.46c0,.06,.05,.11,.11,.12h.5c.06,0,.1-.06,.1-.12v-.45h.21v.77h-2.21v-.75Zm0,1h2.14l-.24,.71h-1.67l-.23-.71Zm.23,.83h1.67l.26,1.56h-.66v-.74c0-.32-.24-.47-.41-.47h0c-.18,0-.38,.14-.42,.48v.77h-.67l.23-1.6Zm-1.61,2h1.38v1h-1.36l-.02-1Zm-.28-2.09h-1.67l-.22-.7h2.14l-.25,.7Zm-1.93-.93v-.78h.27v.46c0,.06,.05,.11,.11,.11,0,0,0,0,.01,0h.49c.06,0,.11-.04,.12-.1,0,0,0,0,0-.01v-.47h.29v.47c0,.06,.05,.11,.11,.11,0,0,0,0,.01,0h.5c.06,0,.11-.05,.11-.11v-.46h.21v.78h-2.23Zm.26,1h1.67l.26,1.57h-.6v-.74c0-.33-.24-.48-.41-.48h0c-.18,0-.38,.15-.42,.49v.78h-.69l.19-1.62Zm-1.63,2h1.37v1h-1.37v-1Zm-2.26-3.77h.27v.46c0,.06,.05,.11,.11,.11h.5c.06,0,.11-.05,.12-.11v-.47h.29v.47c0,.06,.05,.11,.11,.11h.5c.06,0,.11-.04,.12-.1,0,0,0,0,0-.01v-.46h.2v.78h-2.23v-.78Zm.01,1h2.22l-.23,.67h-1.67l-.32-.67Zm.23,.78h1.66l.33,1.61h-.67v-.73c0-.33-.23-.48-.41-.48h0c-.18,0-.38,.14-.42,.48v.73h-.69l.2-1.61Zm-1.23,2h1v1h-1v-1Zm0,1.16h1.7v1.25h-1.7v-1.25Zm.07,1.42h1.66l.43,1.15h-.67l-1.42-1.15Zm1.3,2.77h.9v1.26h-1.05l.15-1.26Zm-.15,1.46h.69v1h-.83l.14-1Zm-.17,1.16h1.38v1h-1.53l.15-1Zm-.18,1.17h.69v1h-.83l.14-1Zm-.17,1.13h1.38v1h-1.53l.15-1Zm-.18,1.19h.7v1h-.82l.12-1Zm-.17,1.15h1.73v.9h-1.86l.13-.9Zm-.32,1.22h11.35l.76,.76h-12.92l.81-.76Zm-1,.94h13.25l.82,.82h-14.88l.81-.82Zm8.74,4.74v-1h1.63v1h-1.63Zm.69,.17v1h-.69v-1h.69Zm-.69-1.31v-1h.69v1h-.69Zm2.73-1v1h-1.87v-1h1.87Zm-.93-.17v-1.43h1.86v1.43h-1.86Zm-.94,2.48h1.85v1h-1.85v-1Zm.94-.17v-1h2v1h-2Zm1.08,.17h1.85v1h-1.85v-1Zm0-1.31v-1h1.85v1h-1.85Zm-8.94,1.14h-2v-1h2v1Zm.93,.17v1h-1.83v-1h1.83Zm-2,0v1h-1.84v-1h1.84Zm0-2.31v1h-1.86v-1h1.86Zm-.79-.17v-1.43h1.86v1.43h-1.86Zm1,1.17v-1h1.85v1h-1.85Zm-2.81-2.6h1.68v1.43h-1.68v-1.43Zm0,1.6h.61v1h-.61v-1Zm0,1.17h1.56v1h-1.56v-1Zm0,1.14h.63v1h-.63v-1Zm1.56,2h-1.56v-.85h1.56v.85Zm2.16,0h-2v-.85h2v.85Zm1.81,0h-1.63v-.85h1.63v.85Zm0-1h-.72v-1h.72v1Zm0-1.17h-1.65v-1h1.65v1Zm0-1.14h-.7v-1h.7v1Zm2.22-2.08c-.8-.04-1.58,.3-2.1,.91h-1.77v-1.43h7.5v1.43h-1.75c-.45-.57-1.14-.91-1.87-.91h-.01Zm3.63,5.41h-1.63v-.85h1.63v.85Zm2.17,0h-2v-.85h2v.85Zm1.74,0h-1.57v-.85h1.57v.85Zm0-1h-.64v-1h.64v1Zm0-1.17h-1.57v-1h1.57v1Zm0-1.14h-.62v-1h.62v1Zm0-1.17h-1.7v-1.43h1.66l.04,1.43Z"/><path d="M10.71,65.03c-.34-.06-.63-.3-.73-.63v-.07c-.05-.28-.1-.52-.51-.58-.02,0-.04,0-.06,0,0,.03,.02,.06,.05,.06,.33,.05,.37,.23,.43,.5v.07c.11,.37,.43,.64,.81,.7,.29,.11,.55,.3,.73,.55h0m0-.07c-.18-.24-.43-.43-.72-.53l.72,.53Z"/><path d="M11.41,61.38s.11-.27,.37-.4c-.35-.19-.76-.24-1.14-.13,.36,.03,.47,.23,.77,.53Z"/><path d="M9.07,65.28v-.05h0c-.03,.2,0,.39,.06,.58h.05v-.07c-.07-.14-.11-.3-.11-.46Z"/><path d="M10.16,65.32s-.02,.05,0,.07c.14,.15,.23,.33,.26,.53m0,.05h0s.05-.03,.05-.06c-.03-.23-.14-.43-.3-.59l.25,.65Z"/><path d="M9.39,65.03v-.06s0,0,0,0c-.04,.25,.01,.5,.15,.71h0m0-.06c-.1-.18-.16-.38-.15-.59l.15,.59Z"/><path d="M6.19,66.38c-.16-.07-.24-.11-.38-.4h-.07m0,.06c.07,.21,.22,.37,.42,.45l.12,.06h0l-.54-.51Z"/><path d="M10.63,65.34s-.05-.02-.07,0m0,.06c.22,.08,.4,.24,.5,.45v.08h0m0-.07v-.08c-.09-.19-.24-.34-.43-.44l.43,.52Z"/><path d="M8.73,65.27h-.06c-.04,.21-.04,.42,0,.63h.05v-.06c-.03-.2-.03-.39,0-.59,0,0,0,.01,0,.02Z"/><path d="M8.37,65.37s-.04,0-.06,0c-.02,.22-.02,.44,0,.66h.05m0-.05c-.02-.21-.02-.43,0-.64,0,0,.04,.03,0,.03v.61Z"/><path d="M6.63,66.27c-.15-.06-.25-.19-.27-.35m-.06,0v.06c.03,.19,.16,.35,.34,.41h.07l-.41-.47Z"/><path d="M7.68,65.5h0c-.03,.18-.03,.37,0,.55,.02,0,.03,0,.05,0h0s.05,0,0-.06c-.04-.14-.05-.29-.05-.43v-.06Z"/><path d="M6.73,65.85h-.05c.02,.13,.09,.24,.2,.31h0m0-.07h0c-.05-.06-.15-.13-.15-.24l.15,.24Z"/><path d="M2.09,65.75c.46,.25,.97,.42,1.49,.49,.25-.01,.49-.09,.7-.23,.16-.11,.33-.19,.52-.25,0,.11,0,.53,.32,.55h.1c.12,0,.17,0,.31,.17,.21,.26,.52,.42,.85,.45,.26-.02,.5-.12,.69-.3l.07-.06c.17-.16,.41-.22,.63-.14,.4,.09,.81,.05,1.19-.09,.31-.16,.69-.16,1,0,.92,.26,1.9,.29,2.84,.09h0c.16,.21,.39,.34,.65,.38,.03,.02,.07,.02,.1,0,.02-.04,.02-.08,0-.12-.04-.18-.04-.36,0-.54,.51,.3,1.13,.35,1.67,.12,.03-.02,.06-.05,.06-.09,0-.04-.01-.08-.05-.1-.11-.07-.22-.16-.36-.27l-.23-.18c.21,.04,.43,0,.63-.08l.08-.05c.23-.13,.61-.34,1.1-1.44,.03-.03,.03-.09,0-.12-.03-.04-.09-.04-.13,0,0,0,0,0,0,0-.16,.11-.35,.18-.54,.2,.39-.32,.67-.77,.8-1.26,.02-.04,.02-.08,0-.12-.04-.03-.09-.03-.13,0-.1,.09-.22,.16-.35,.2,.23-.27,.42-.59,.54-.93,.03-.04,.03-.08,0-.12-.03-.04-.09-.04-.13,0,0,0,0,0,0,0-.25,.17-.53,.28-.82,.33,.28-.22,.5-.5,.66-.82,.03-.04,.03-.09,0-.13-.04-.02-.08-.02-.12,0-.2,.1-.42,.15-.65,.15,.5-.58,.59-1.21,.42-2.66,0-.05-.05-.09-.1-.09-.05,0-.09,.03-.11,.07-.14,.7-.67,1.26-1.36,1.43h-.1c.12-.11,.22-.24,.3-.38,.34-.69,.3-1.51-.09-2.17-.03-.05-.09-.06-.14-.03-.01,0-.02,.02-.03,.03-.12,.14-.24,.29-.34,.44-.18,.32-.5,.54-.87,.59-.57,.14-1.04,.55-1.26,1.1-.17-.09-.36-.13-.55-.14-.45,0-.88,.19-1.19,.52-.49-.22-1.07-.1-1.44,.3-.19,.24-.2,.23-.36,.14l-.23-.13c-.53-.29-1.18-.26-1.68,.08-.03,.04-.03,.08,0,.12,.02,.04,.06,.07,.11,.07,.2-.05,.41-.01,.59,.1,.05,.07,.08,.15,.07,.24,0,.08-.04,.16-.1,.21-.07,.06-.17,.1-.27,.1h-.64c-.07-.01-.13-.04-.19-.07-.21-.12-.44-.18-.68-.18h0c-.27-.01-.52,.12-.67,.34h0c-.06,.28-.25,.51-.51,.62-.13,.08-.23,.22-.26,.37-.07,.27-.04,.56,.08,.82,.16,.2,.41,.31,.67,.3h.16c.09,.2,.23,.37,.4,.51h-.16c-.16,.03-.31,.08-.45,.15-.22,.11-.39,.2-1.08-.08-.28-.12-.62-.11-1.3,.33-.25,.15-.41,.42-.4,.71,0,.21,.11,.41,.27,.55Zm13-4.33s-.02,.08,0,.11c.01,.04,.04,.06,.08,.07,.23,.05,.47,.05,.7,0-.25,.43-.68,.73-1.18,.81-.06,.01-.1,.06-.09,.12,.02,.05,.06,.09,.12,.09,.51-.04,1.01-.16,1.49-.35-.16,.39-.45,.71-.82,.91,0,.02,0,.03,0,.05-.55,.06-1.1,.06-1.65,0,.38-.41,.72-.87,1-1.36h-.06c-.17,.05-.34,.08-.51,.08h.07c.66-.37,1.19-.95,1.5-1.65-.06,.44-.29,.84-.63,1.12h-.02Zm-.82-1.76c-.13,.27-.35,.48-.63,.59h-.33c.27-.24,.51-.51,.71-.81h-.51c.37-.19,.69-.46,.94-.79,.05,.35,0,.7-.16,1.01h-.02Zm-8.27,1.83h.65c.15,0,.3-.04,.42-.14,.11-.09,.17-.22,.18-.36,.02-.15-.04-.29-.14-.4-.09-.09-.21-.14-.33-.15,.38-.1,.78-.06,1.13,.12l.2,.11c.23,.14,.36,.17,.63-.19,.28-.31,.72-.41,1.11-.25-.03,.03-.06,.06-.08,.1-.03,.04-.03,.1,0,.14,.04,.04,.1,.04,.14,0,.29-.41,.75-.67,1.25-.71h0c.2,0,.39,.06,.57,.16h0c.1,.06,.19,.13,.26,.22,.04,.04,.1,.04,.14,0,.04-.03,.04-.09,.01-.13,0,0,0,0-.01-.01-.07-.09-.16-.18-.26-.24,.18-.51,.61-.88,1.13-1,.42-.06,.79-.3,1-.67,.07-.08,.14-.18,.23-.3,.08,.19,.13,.39,.17,.6-.26,.36-.6,.66-1,.86l-.13,.07v.06c0,.06,0,0,0,0,.21-.02,.41-.02,.62,0-.22,.31-.48,.59-.78,.83-.57,.15-.87,.45-.91,1.29,0,.05,0,.1,.1,.11s.1,0,.11-.1c0-.91,.38-1.06,1.09-1.16h.16l.58-.09c.61-.14,1.13-.56,1.38-1.14v.65c-.29,.77-.85,1.41-1.56,1.81l-.21,.14m0,.05h0c.2,0,.4-.02,.6-.05-.29,.47-.62,.9-1,1.3v.05h0c.33,.05,.67,.07,1,.07h.77s.08,.02,.11,0c.25-.07,.49-.16,.73-.26-.15,.54-.58,.96-1.13,1.09-.05,.02-.08,.07-.07,.12,0,.05,.05,.09,.1,.09,.34,0,.68-.05,1-.16-.14,.29-.32,.56-.53,.8-.84-.11-1.64-.42-2.34-.9m-.07,0v.07c.69,.48,1.47,.79,2.3,.9-.08,.07-.17,.13-.26,.18l-.1,.05c-.34,.1-.7,.05-1-.13-.04-.04-.11-.04-.15,0-.04,.04-.04,.11,0,.15,.34,.23,.57,.41,.75,.55l.21,.17c-.12,.03-.25,.05-.38,.05-.53-.31-1.02-.7-1.43-1.15h-.07m0,.07c.38,.43,.82,.79,1.3,1.09-.3-.02-.6-.12-.84-.3-.03-.02-.07-.02-.1,0-.04,.01-.06,.04-.07,.08-.03,.21-.03,.43,0,.64-.14-.06-.26-.15-.35-.26h0v-.05h0c-.18-.27-.3-.57-.36-.89m-.06,0v.06c.06,.29,.16,.58,.31,.84-.9,.21-1.84,.18-2.73-.08-.37-.16-.79-.14-1.14,.05-.32,.12-.67,.15-1,.08-.29-.09-.6-.02-.82,.18l-.09,.06c-.25,.2-.63,.51-1.24-.13-.1-.16-.28-.25-.47-.24h-.08c-.07,0-.13-.25-.14-.38h.24c.34-.03,.67-.08,1-.15,.23-.05,.42-.2,.54-.4,.17-.2,.39-.34,.64-.4h0c.11-.02,.23-.02,.34,0,.16,.04,.32,.07,.48,.08,.13,0,.27-.04,.37-.13l.08-.06c.1-.08,.14-.12,.52-.13,.04,0,.08-.02,.1-.06,.02-.03,.02-.08,0-.11-.11-.13-.24-.25-.39-.34-.1-.16-.18-.34-.22-.53h0c-.07,.11-.13,.22-.18,.34h-.06c0-.21-.08-.41-.2-.57h0c-.02,.21-.11,.42-.26,.57h-.22c.17-.14,.28-.34,.31-.56,.08-.32,.02-.66-.16-.94-.22-.24-.53-.37-.85-.37h-.05v.05c.2,.16,.31,.4,.3,.66-.06,.27-.23,.49-.47,.63-.07,.03-.13,.09-.16,.16-.08-.08-.14-.17-.2-.27,.2-.11,.32-.33,.32-.56,.01-.28-.13-.55-.37-.7-.19-.09-.33-.25-.39-.45-.02-.06-.04-.12-.07-.17v-.06c-.03,.12-.03,.26,0,.38l6.41,3.65Zm-6.49,.35c-.2-.29-.25-.66-.13-1l.08,.11c.16,.26,.39,.46,.67,.58-.09,.1-.2,.17-.33,.2l-.29,.11Zm-.27-2c.16,.08,.34,.08,.5,0,.05,.09,.1,.17,.17,.25-.13,.21-.19,.45-.18,.69-.27-.27-.46-.62-.53-1l.04,.06Zm.12,.6h-.06s0-.03,0-.05h0l.06,.05Zm.62-.28l.09,.08s-.01,.09,0,.13c.03,.06,.09,.1,.15,.12l.13,.06c.08,.04,.16,.05,.25,.05h.16c.13,.01,.26,.01,.39,0l.2-.05c.18-.05,.38-.07,.57-.06-.07,.2-.1,.4-.1,.61-.15,0-.29-.02-.43-.06-.13-.02-.25-.02-.38,0h0c-.41-.08-.81-.19-1.19-.35-.02-.2,.02-.41,.12-.59l.04,.06Zm.2,0c.02-.08,.08-.15,.15-.18h0c.26-.15,.45-.41,.52-.71,.02-.24-.07-.47-.24-.64,.25,.02,.48,.14,.65,.33,.18,.25,.23,.57,.14,.86-.03,.26-.19,.48-.42,.6h0c-.17,.1-.37,.12-.55,.06l-.14-.06-.1-.09c-.08-.06-.11-.17-.05-.26l.04,.09Zm1.35,.23c.12-.14,.2-.31,.23-.49,.07,.13,.11,.29,.11,.44l-.34,.05Zm.7-.28c.08,.29,.24,.55,.46,.76-.17,0-.34,.06-.48,.16h-.05c-.06,.06-.14,.1-.22,.12-.02-.39,.07-.78,.25-1.13l.04,.09Zm-4.68-.56c-.09-.21-.11-.44-.06-.66,.02-.1,.08-.18,.16-.24,.31-.14,.54-.41,.62-.74,.1-.15,.27-.24,.45-.23h0c.21,0,.41,.13,.5,.32l.06,.15c.08,.24,.25,.44,.48,.55,.18,.11,.27,.31,.26,.52,0,.16-.07,.3-.21,.38-.34,.17-.4,.14-.52,.07h0c-.32-.16-.7-.14-1,.05-.29,.1-.61,0-.78-.26l.04,.09Zm1.19,.24c.12-.04,.26-.04,.38,0,.02,.13,.06,.26,.11,.39-.01,.06-.01,.13,0,.19,0,.06,0,.13,0,.19-.26-.22-.45-.52-.53-.86l.04,.09Zm.18,.63h-.06s0-.07,0-.11l.06,.11Zm-.61-.51h.07l.26-.09c0,.09,.05,.18,.08,.26-.01,.12-.01,.24,0,.36-.22-.14-.38-.37-.45-.62l.04,.09Zm-2.59,1.11c.26-.2,.56-.32,.88-.36,.08,0,.16,.02,.24,.05,.78,.32,1,.2,1.24,.08,.12-.07,.25-.12,.39-.14,.21-.02,.42-.02,.63,0l.08,.07h0l.22,.07h.05c.05,.07,.12,.14,.19,.19h0s0-.03,0-.05h0c.27,.11,.55,.2,.84,.27-.18,.08-.34,.21-.45,.37h0c-.28-.11-.51-.31-.66-.56l-.14-.19m-.05,0h0c-.13,.36-.11,.75,.07,1.09-.18,.03-.35,.05-.53,.06h-.12c-.19,0-.37,0-.92,.31s-.8,.25-2-.26c-.2-.07-.35-.25-.38-.46-.04-.27,.12-.54,.38-.63l3.5-.11Z"/><path d="M9.28,62.62s.03,0,.05,0h0m0-.06c-.08-.14-.22-.24-.38-.26,.07-.15,.07-.33,0-.48,.08-.03,.16-.07,.23-.12,.25,.05,.5,.05,.75,0-.14,.09-.23,.25-.23,.42,0,.29,.22,.52,.51,.53,0,0,0,0,.01,0h.11c.03,.1,.07,.2,.12,.29h0v-.07s.05-.09,.08-.13l.1-.07h.07c.09-.02,.18-.02,.27,0h.06l-.36-.24s0-.05,0-.08c0-.04,0-.09,0-.13,0-.05,0-.09,0-.14v-.05h0c-.05-.08-.12-.15-.2-.19l-.13-.15s-.04,0-.06,0c-.35,.13-.72,.17-1.09,.11h-.05c-.09,.06-.19,.11-.29,.15h0v.48h0c.36,.01,.43,.18,.43,.19l.05-.06Zm1.16-.81l.19,.2h0v.25h0c-.15-.11-.29-.23-.4-.38h0c-.01,.22,.02,.44,.09,.65h-.08c-.23-.04-.4-.26-.36-.49,.03-.19,.17-.33,.36-.36,.08,.02,.15,.07,.2,.13Z"/><path d="M5.8,63.03c.06,0,.13,0,.19,0,.11-.09,.16-.22,.15-.36h0c-.04-.14-.18-.23-.33-.19-.02,0-.04,.01-.06,.02-.07,.06-.11,.14-.12,.23,0,0,0,.1,.15,.13-.05,.03-.11,.06-.17,.08-.02-.01-.05-.01-.07,0,0,.02,0,.04,0,.06,.08,.03,.17,.04,.26,.03Zm.11-.27h0s-.14,0-.15-.06c.02-.05,.04-.1,.08-.14,.03-.01,.06-.01,.09,0,.12,0,.13,.08,.14,.12h0c0,.09-.03,.17-.09,.24-.06,.01-.13,.01-.19,0,.06-.03,.1-.09,.12-.15h0Z"/><path d="M4.44,62.28h0c-.07,0-.31,.05-.35,.16-.06,.14-.06,.31,0,.45h.06s.01-.05,0-.07c0-.06,.03-.12,.06-.17,.05,.14,.15,.14,.16,.14,.08-.02,.16-.06,.21-.13,.03-.05,.03-.12,0-.17,0-.09-.06-.17-.14-.21Zm.1,.32s-.08,.07-.13,.09l-.07-.15h0c-.05,.04-.1,.09-.13,.15,0-.06,0-.13,0-.19,0-.05,.2-.11,.23-.1h0c.05,0,.1,0,.13,.13s0,.05-.03,.07h0Z"/><path d="M28.56,65.03c-.35-.05-.63-.3-.74-.63v-.07c-.06-.28-.11-.52-.51-.58h-.06v.06c.34,.05,.37,.23,.43,.5v.07c.11,.37,.43,.64,.81,.7,.3,.11,.55,.3,.74,.55h0s.02-.05,0-.07c-.17-.23-.4-.42-.67-.53Z"/><path d="M29.26,61.38c.09-.16,.21-.3,.37-.4-.35-.19-.76-.24-1.15-.13,.39,.03,.52,.23,.78,.53Z"/><path d="M26.92,65.23h-.05c-.02,.2,0,.4,.07,.58h0s.01-.05,0-.07c-.04-.15-.05-.31-.02-.46v-.05Z"/><path d="M28,65.39c.15,.14,.24,.33,.26,.53,0,.02,0,.03,0,.05h0v-.06c-.03-.22-.13-.43-.29-.59l.03,.07Z"/><path d="M27.24,65.03s.01-.04,0-.06h-.06c-.03,.25,.02,.5,.15,.71h.05m0-.06c-.11-.18-.16-.38-.14-.59l.14,.59Z"/><path d="M24,66.38c-.16-.07-.24-.11-.38-.4m-.06,.06c.07,.21,.23,.37,.43,.45l.11,.06h0s.02-.05,0-.07l-.54-.44Z"/><path d="M28.41,65.34v.06c.22,.08,.4,.24,.5,.45v.08c0,.08,0,0,0,0h0s.02-.05,0-.07v-.08c-.1-.19-.25-.34-.44-.44h-.06Z"/><path d="M26.57,65.27s-.04,0-.06,0c-.04,.21-.04,.42,0,.63,.02,0,.03,0,.05,0h0m0-.06c-.04-.2-.04-.39,0-.59,0,0,.04,.03,0,.02v.57Z"/><path d="M26.21,65.37h-.05c-.02,.22-.02,.44,0,.66h.05m0-.05c-.02-.21-.02-.43,0-.64,0,0,0,.02,0,.03v.61Z"/><path d="M24.48,66.27c-.15-.05-.26-.19-.27-.35h-.06m0,.06c.03,.19,.15,.35,.33,.41h.08s.02-.05,0-.07l-.41-.34Z"/><path d="M25.53,65.56v-.06h0c-.03,.18-.03,.37,0,.55,.02,0,.03,0,.05,0h0s.01-.04,0-.06c-.04-.14-.05-.29-.05-.43Z"/><path d="M24.58,65.85s-.02-.05-.05-.05c-.03,0-.05,.02-.05,.05h0c.01,.13,.08,.24,.19,.31h0m0-.07h0c-.06-.06-.09-.15-.09-.24l.09,.24Z"/><path d="M19.94,65.75c.46,.25,.96,.42,1.48,.49,.25-.01,.5-.09,.71-.23,.16-.11,.33-.19,.51-.25,0,.11,.05,.53,.32,.55h.1c.12,0,.17,0,.32,.17,.21,.26,.52,.43,.85,.45,.26-.01,.5-.12,.68-.3l.07-.06c.17-.16,.42-.22,.64-.14,.39,.09,.8,.05,1.18-.09,.31-.16,.69-.16,1,0,.92,.26,1.9,.29,2.84,.09h0c.16,.2,.39,.34,.65,.38,.03,.02,.08,.02,.11,0,.02-.04,.02-.08,0-.12,0,0-.08-.14-.05-.54,.5,.3,1.12,.35,1.66,.12,.04-.02,.06-.05,.07-.09,0-.04-.02-.08-.05-.1-.11-.07-.23-.16-.37-.27l-.22-.18c.21,.04,.43,.01,.62-.08l.08-.05c.23-.13,.62-.34,1.11-1.44,.03-.04,.03-.08,0-.12-.03-.04-.09-.04-.13,0,0,0,0,0,0,0-.17,.11-.35,.17-.55,.2,.4-.32,.68-.76,.8-1.26,.02-.05,0-.1-.05-.12-.04-.03-.09-.03-.13,0-.1,.09-.22,.16-.35,.2,.24-.27,.42-.59,.54-.93,.02-.05,0-.11-.06-.13-.03-.01-.07,0-.1,.02-.25,.17-.53,.28-.82,.33,.28-.22,.5-.5,.66-.82,.02-.04,.02-.09,0-.13-.04-.02-.08-.02-.12,0-.2,.1-.43,.15-.66,.15,.51-.58,.59-1.21,.42-2.66,0-.05-.04-.09-.09-.09-.05,0-.09,.03-.11,.07-.14,.7-.68,1.26-1.37,1.43h-.13c.12-.11,.22-.24,.3-.38,.33-.69,.29-1.5-.09-2.17,0,0,0-.06-.08-.06-.03-.02-.07-.02-.1,0-.15,.17-.25,.32-.34,.44-.18,.32-.5,.54-.86,.59-.57,.14-1.04,.55-1.26,1.1-.17-.09-.37-.13-.56-.14-.45,0-.87,.19-1.18,.52-.5-.21-1.08-.1-1.45,.3-.18,.24-.2,.23-.35,.14l-.23-.13c-.54-.29-1.18-.26-1.69,.08-.02,.04-.02,.08,0,.12,.02,.04,.06,.07,.1,.07,.2-.05,.41-.01,.59,.1,.06,.06,.09,.15,.07,.24,0,.08-.03,.16-.1,.21-.07,.06-.16,.1-.26,.1h-.65c-.06-.01-.12-.04-.18-.07-.2-.13-.44-.21-.68-.23h0c-.27-.01-.53,.12-.68,.34h0c-.06,.28-.25,.5-.51,.62-.14,.08-.23,.21-.26,.37-.07,.27-.04,.56,.07,.82,.16,.2,.41,.31,.67,.3,.06,0,.11,0,.17,0,.09,.2,.23,.38,.4,.51h-.16c-.16,.03-.31,.08-.46,.15-.21,.11-.38,.2-1.07-.08-.29-.12-.62-.11-1.3,.33-.26,.14-.41,.42-.4,.71,.02,.29,.2,.54,.47,.65Zm13-4.33s-.02,.08,0,.11c.01,.04,.04,.06,.08,.07,.23,.05,.47,.05,.7,0-.25,.44-.69,.73-1.19,.81-.05,0-.09,.06-.08,.12,0,0,0,0,0,0,.01,.05,.06,.09,.11,.09,.51-.04,1.02-.16,1.49-.35-.16,.39-.44,.71-.81,.91,0,.02,0,.03,0,.05-.55,.06-1.09,.06-1.64,0,.38-.42,.71-.87,1-1.36h0c-.17,.05-.34,.08-.51,.08h.07c.66-.38,1.18-.96,1.49-1.65-.06,.44-.29,.85-.65,1.12h-.06Zm-.81-1.76c-.13,.27-.36,.48-.63,.59h-.33c.27-.23,.51-.51,.7-.81h-.51c.37-.19,.7-.46,.95-.79,.04,.35-.02,.7-.17,1.01h-.01Zm-8.34,1.83h.65c.16,0,.31-.04,.43-.14,.1-.09,.16-.22,.17-.36,.02-.15-.03-.29-.13-.4-.09-.09-.21-.14-.33-.15,.38-.1,.78-.06,1.12,.12l.21,.11c.23,.14,.36,.17,.63-.19,.28-.3,.72-.4,1.1-.25l-.08,.1s-.03,.1,0,.14c.04,.04,.11,.04,.15,0,.29-.41,.74-.67,1.24-.71h0c.2,0,.39,.06,.56,.16h0c.1,.05,.19,.13,.26,.22,.04,.04,.11,.04,.15,0,.03-.04,.03-.1,0-.14-.08-.09-.17-.17-.27-.24,.18-.5,.61-.88,1.13-1,.42-.06,.78-.31,1-.67,.06-.08,.13-.18,.23-.3,.07,.2,.13,.4,.17,.6-.26,.36-.6,.65-1,.86l-.14,.07s0,.04,0,.06c.02,0,.03,0,.05,0,.21-.02,.42-.02,.63,0-.23,.31-.49,.58-.78,.83-.58,.15-.87,.45-.92,1.29,0,.06,.05,.1,.1,.11,.05,0,.1-.03,.11-.09,0,0,0,0,0-.01,.05-.91,.39-1.06,1.09-1.16h.17l.58-.09c.61-.14,1.13-.56,1.38-1.14v.65c-.29,.77-.84,1.41-1.55,1.81l-.22,.14s0,.03,0,.05c.02,0,.03,0,.05,0,.2,0,.4-.02,.6-.05-.29,.46-.63,.9-1,1.3v.05s0,0,0,0c.33,.05,.67,.07,1,.07h.77s.08,.02,.11,0c.25-.07,.5-.16,.74-.26-.15,.54-.59,.95-1.13,1.09-.05,.02-.08,.07-.08,.12,0,.05,.05,.09,.1,.09,.34,0,.68-.05,1-.16-.14,.29-.32,.56-.54,.8-.84-.11-1.64-.42-2.33-.9m-.07,.07c.69,.47,1.47,.78,2.3,.9-.08,.07-.17,.13-.26,.18l-.09,.05c-.35,.11-.74,.07-1.05-.13-.04-.03-.1-.03-.14,0-.04,.04-.04,.11,0,.15,.35,.23,.57,.41,.75,.55l.21,.17c-.12,.03-.25,.05-.37,.05-.45-.24-.87-.53-1.25-.88-.02-.02-.05-.03-.07,0-.02,.02-.03,.05,0,.07,.38,.42,.82,.79,1.31,1.09-.31-.02-.6-.12-.85-.3-.03-.02-.07-.02-.1,0-.03,.01-.06,.04-.06,.08-.02,.21-.02,.43,0,.64-.14-.06-.26-.15-.35-.26h0l-.05-.05h0c-.18-.27-.3-.57-.35-.89,0,0,0-.05-.06,0m0,.06c.05,.3,.16,.58,.31,.84-.9,.21-1.84,.18-2.73-.08-.37-.16-.79-.14-1.15,.05-.32,.12-.67,.15-1,.08-.29-.09-.61-.02-.83,.18l-.08,.06c-.25,.2-.63,.51-1.25-.13-.1-.16-.27-.25-.46-.24h-.22c-.07,0-.13-.25-.13-.38h.23c.34-.03,.67-.08,1-.15,.23-.06,.43-.2,.55-.4,.16-.2,.38-.34,.63-.4h0c.12-.02,.23-.02,.35,0,.15,.04,.31,.07,.47,.08,.14,0,.27-.04,.38-.13l.07-.06c.1-.08,.15-.12,.53-.13,.04,0,.07-.02,.09-.06,.03-.03,.03-.08,0-.11-.11-.13-.24-.25-.38-.34-.11-.16-.19-.34-.23-.53h0s-.03,0-.05,0c0,0-.09,.14-.18,.34h-.06c0-.2-.07-.4-.19-.57-.02,0-.03,0-.05,0h0c-.02,.21-.1,.41-.25,.57h-.22c.17-.14,.28-.34,.3-.56,.17-.52-.11-1.09-.64-1.26-.12-.04-.24-.05-.36-.05-.02,0-.03,0-.05,0m0,.05c.2,.16,.32,.4,.31,.66-.06,.27-.23,.49-.47,.63-.07,.03-.13,.09-.17,.16-.07-.08-.14-.17-.19-.27,.2-.12,.32-.33,.31-.56,.01-.28-.13-.55-.37-.7-.18-.09-.32-.25-.38-.45-.02-.06-.04-.12-.07-.17v-.06s0,.08,.02,.12l1.01,.64Zm-1.1,3.36c-.2-.29-.25-.67-.12-1l.07,.11c.16,.26,.39,.46,.67,.58-.08,.1-.2,.17-.32,.2l-.3,.11Zm-.27-2c.16,.08,.34,.08,.5,0,.05,.09,.11,.17,.17,.25-.13,.21-.19,.45-.17,.69-.26-.28-.43-.63-.49-1v.06Zm.12,.6h-.06v-.09l.06,.09Zm.62-.28l.08,.08s.02,.09,.05,.13c.03,.06,.08,.1,.14,.12l.13,.06c.08,.03,.16,.05,.25,.05h.16c.13,.01,.26,.01,.39,0l.21-.05c.18-.05,.37-.07,.56-.06-.06,.2-.1,.4-.1,.61-.14,0-.28-.02-.42-.06-.13-.02-.26-.02-.39,0h0c-.41-.07-.81-.19-1.2-.35,0-.21,.04-.41,.15-.59v.06Zm.18,0c.02-.08,.08-.14,.15-.18h0c.27-.15,.46-.41,.53-.71,.01-.24-.08-.47-.24-.64,.25,.02,.48,.14,.65,.33,.17,.25,.22,.57,.13,.86-.03,.25-.18,.48-.41,.6h0c-.17,.1-.37,.12-.55,.06l-.14-.06s-.06,0-.1-.09c-.06-.07-.07-.18,0-.26v.09Zm1.34,.23c.12-.14,.21-.31,.24-.49,.07,.13,.11,.29,.1,.44l-.34,.05Zm.71-.28c.08,.29,.24,.56,.46,.76-.18,0-.35,.06-.49,.16h0c-.06,.06-.13,.1-.21,.12-.02-.39,.07-.78,.25-1.13v.09Zm-4.7-.56c-.07-.21-.07-.45,0-.66,.02-.1,.07-.19,.16-.24,.3-.14,.53-.41,.61-.74,.1-.15,.28-.24,.46-.23h0c.21,0,.4,.13,.49,.32,.03,.05,.05,.1,.07,.15,.07,.24,.24,.44,.47,.55,.17,.11,.28,.31,.27,.52,0,.16-.08,.3-.22,.38-.33,.17-.39,.14-.52,.07h0c-.32-.16-.7-.14-1,.05-.29,.1-.61,0-.78-.26v.09Zm1.19,.24c.12-.04,.26-.04,.38,0,.03,.13,.06,.26,.1,.39,0,.06,0,.13,0,.19,0,.06,0,.13,0,.19-.23-.24-.38-.54-.43-.86l-.05,.09Zm.18,.63h-.06s0-.07,0-.11c.02,.03,.04,.05,.07,.07v.04Zm-.63-.51h.08l.26-.09c.02,.09,.04,.18,.08,.26-.02,.12-.02,.24,0,.36-.2-.16-.34-.37-.41-.62v.09Zm-2.59,1.11c.26-.2,.56-.32,.88-.36,.08,0,.16,.02,.23,.05,.78,.32,1,.2,1.25,.08,.12-.07,.25-.12,.39-.14,.21-.02,.42-.02,.63,0l.07,.07h0l.23,.07h0c.06,.07,.12,.14,.2,.19h.19s0-.03,0-.05h0c.27,.11,.55,.2,.84,.27-.18,.08-.34,.2-.45,.37h0c-.28-.11-.51-.31-.67-.56,0-.06-.09-.12-.13-.19s0,0-.05,0,0,0,0,0c-.13,.36-.11,.75,.07,1.09-.18,.03-.35,.05-.53,.06h-.13c-.18,0-.37,0-.92,.31s-.8,.25-2-.26c-.2-.07-.35-.25-.39-.46-.04-.25,.08-.5,.3-.63v.09Z"/><path d="M27.13,62.62s.03,0,.05,0h0m0-.06c-.07-.14-.21-.24-.37-.26,.07-.15,.07-.33,0-.48,.08-.03,.16-.07,.23-.12,.24,.05,.5,.05,.74,0-.13,.1-.22,.25-.22,.42,0,.29,.22,.52,.51,.53,0,0,0,0,.01,0h.1c.03,.1,.07,.2,.12,.29h0v-.07s.04-.09,.08-.13l.1-.07h.07c.09-.02,.17-.02,.26,0h.19c-.13-.07-.25-.15-.36-.24v-.08s0-.09,0-.13c.01-.05,.01-.09,0-.14v-.08h0c-.04-.08-.11-.15-.19-.19l-.14-.15h0c-.35,.13-.72,.17-1.09,.11h-.06c-.09,.06-.19,.11-.29,.15h0v.48h0c.11,.03,.21,.11,.26,.22l.05-.06Zm1.15-.81l.19,.2h0c0,.08,0,.17,0,.25h0c-.15-.11-.28-.24-.4-.38h0c0,.22,.03,.44,.09,.65h-.07c-.23-.04-.4-.26-.36-.49,.03-.19,.17-.33,.36-.36,.07,.02,.14,.07,.19,.13Z"/><path d="M23.64,63.03c.07,.01,.13,.01,.2,0,.11-.09,.16-.22,.14-.36h0c-.02-.11-.11-.19-.22-.2-.05-.02-.12-.02-.17,0-.07,.06-.11,.14-.12,.23,0,0,0,.1,.14,.13-.05,.03-.1,.06-.16,.08h-.07m0,.06c.08,.04,.17,.06,.26,.06l-.26-.06Zm.37-.16v-.05h0c-.12,0-.15,0-.15-.06,0-.05,.03-.1,.07-.14,.03-.01,.07-.01,.1,0,.07,0,.13,.05,.14,.12h0c0,.09-.03,.17-.09,.24-.06,0-.13,0-.19,0,.05-.04,.1-.09,.12-.15v.04Z"/><path d="M22.29,62.28h0c-.07,0-.31,.05-.35,.16-.06,.14-.06,.31,0,.45h.06s.02-.05,0-.07c.01-.06,.04-.12,.07-.17,0,.14,.14,.14,.15,.14,.08-.01,.16-.06,.21-.13,.03-.05,.03-.12,0-.17,0-.09-.06-.17-.14-.21Zm.1,.32s-.08,.08-.14,.09c0,0-.05,0-.06-.15s0,0,0,0h0c-.05,.04-.1,.09-.12,.15-.02-.06-.02-.13,0-.19,.06-.06,.14-.1,.23-.1h0s.1,0,.13,.13c0,.03-.02,.05-.04,.07Z"/><path d="M25,89.63c-.35-.05-.64-.29-.74-.63v-.07c-.06-.27-.11-.51-.51-.58-.03,0-.06,.02-.06,.05v.05c.34,.05,.38,.23,.43,.5v.07c.11,.37,.43,.64,.81,.7,.29,.11,.54,.3,.73,.55h0v-.07c-.17-.24-.39-.44-.66-.57Z"/><path d="M25.74,86.03c.08-.17,.21-.31,.37-.41-.35-.19-.77-.24-1.15-.12,.39,0,.47,.19,.78,.53Z"/><path d="M23.4,89.89v-.05h0c-.02,.2,0,.4,.07,.58h0s.02-.05,0-.07c-.06-.15-.08-.3-.07-.46Z"/><path d="M24.49,90.01c.14,.14,.23,.33,.25,.53,.02,0,.03,0,.05,0h0m0-.05c-.03-.23-.13-.44-.29-.6l.29,.6Z"/><path d="M23.72,89.68h-.06c-.04,.25,.02,.5,.16,.71h0s.02-.05,0-.07c-.1-.2-.14-.42-.1-.64Z"/><path d="M20.51,91.03c-.18-.07-.32-.22-.38-.41m-.06,0s-.02,.05,0,.07c.07,.21,.23,.37,.43,.45l.11,.05h0s.01-.05,0-.07l-.54-.5Z"/><path d="M25,90.05c.22,.08,.4,.24,.5,.45l.05,.07h0v-.14c-.12-.22-.31-.39-.55-.47v.09Z"/><path d="M23.05,89.89h-.06c-.04,.21-.04,.42,0,.63h0v-.06c-.03-.2-.03-.39,0-.59l.06,.02Z"/><path d="M22.69,90.03s-.05,.02-.05,.05c-.02,.22-.02,.43,0,.65m.05,.05h0s.05-.03,.05-.06c-.02-.21-.02-.42,0-.63,0-.03-.02-.06-.05-.06v.75Z"/><path d="M21,90.88c-.15-.05-.25-.18-.27-.34-.02-.01-.04-.01-.06,0v.06c.03,.19,.15,.35,.33,.41h0v-.13Z"/><path d="M22,90.17s0-.04,0-.06h0s-.03,0-.05,0c0,.19,0,.38,.05,.56h0v-.06c-.02-.15-.02-.29,0-.44Z"/><path d="M21.06,90.47s-.02-.05-.05-.05-.05,.02-.05,.05c.02,.12,.09,.23,.19,.3h0s.02-.05,0-.07h0s-.09-.13-.09-.23Z"/><path d="M18.25,86.64c-.14,.08-.23,.21-.26,.37-.07,.28-.04,.57,.08,.83,.16,.2,.4,.31,.66,.3,.06,0,.11,0,.17,0,.09,.2,.23,.37,.4,.5h-.16c-.16,.03-.32,.08-.46,.16-.21,.11-.38,.19-1.07-.09-.29-.11-.62-.1-1.3,.34-.25,.14-.41,.42-.4,.71,.04,.29,.23,.53,.51,.63,.46,.25,.97,.41,1.49,.48,.25,0,.49-.09,.7-.23,.16-.1,.33-.19,.51-.25,0,.11,0,.53,.32,.56h.1c.12,0,.17,0,.32,.17,.21,.27,.51,.43,.85,.46,.25-.02,.49-.12,.68-.3,.02-.03,.05-.05,.08-.06,.16-.17,.41-.22,.63-.15,.4,.08,.81,.06,1.19-.08,.31-.17,.68-.19,1-.05,.92,.27,1.9,.3,2.84,.09h0c.17,.19,.4,.33,.65,.38,.04,.02,.07,.02,.11,0,.02-.03,.02-.08,0-.11,0,0-.08-.14-.05-.54,.5,.3,1.12,.34,1.66,.11,.04-.01,.07-.05,.07-.09,0-.04-.02-.08-.05-.1-.11-.07-.22-.16-.37-.27l-.22-.17c.21,.03,.43,0,.62-.09h.08c.23-.13,.62-.34,1.11-1.43,.03-.04,.03-.09,0-.13-.04-.03-.09-.03-.13,0-.17,.11-.35,.17-.55,.2,.4-.32,.68-.76,.8-1.26,.02-.05,0-.1-.05-.12,0,0,0,0,0,0-.04-.03-.09-.03-.13,0-.1,.09-.22,.15-.35,.19,.24-.27,.43-.59,.55-.93,.02-.04,.02-.08,0-.12-.04-.03-.09-.03-.13,0-.25,.17-.53,.28-.82,.34,.28-.23,.5-.51,.66-.83,.03-.04,.02-.11-.02-.14-.04-.03-.08-.03-.12,0-.2,.1-.43,.15-.66,.14,.51-.58,.6-1.21,.42-2.66,0-.05-.04-.09-.09-.09-.05,0-.1,.03-.11,.08-.14,.7-.68,1.25-1.37,1.42h-.09c.12-.11,.22-.23,.3-.37,.33-.7,.29-1.51-.09-2.18-.02-.03-.05-.05-.08-.06-.03-.01-.06-.01-.09,0l-.35,.44c-.18,.32-.5,.54-.86,.59-.57,.14-1.04,.55-1.26,1.1-.17-.08-.36-.13-.55-.13-.45,0-.88,.19-1.19,.52-.5-.22-1.08-.1-1.45,.29-.18,.24-.2,.23-.35,.14l-.23-.12c-.53-.29-1.18-.26-1.68,.07-.03,.04-.03,.08,0,.12,0,.05,.05,.08,.1,.07,.2-.04,.41,0,.59,.1,.06,.07,.09,.16,.07,.25,0,.08-.04,.16-.1,.21-.07,.06-.17,.09-.26,.09h-.65c-.06-.02-.13-.04-.18-.08-.21-.12-.44-.18-.68-.18h0c-.27-.01-.53,.12-.67,.35h0c-.09,.3-.34,.53-.64,.61Zm.75,1.45h.08l.26-.09c.02,.09,.04,.18,.08,.27-.02,.12-.02,.24,0,.36-.19-.14-.33-.33-.42-.54Zm.44-.13c.12-.04,.26-.04,.38,0,.02,.13,.06,.26,.11,.38,0,.07,0,.13,0,.2,0,.06,0,.12,0,.18-.23-.2-.4-.47-.49-.76Zm.18,.63h-.06s0-.07,0-.1c.02,.03,.04,.07,.06,.1Zm-1.12,1.85c-.55,.34-.8,.25-2-.26-.2-.07-.35-.25-.39-.46,0-.22,.12-.42,.31-.52,.25-.2,.56-.33,.88-.36,.08-.01,.15-.01,.23,0,.78,.32,1,.21,1.25,.08,.12-.07,.25-.11,.39-.13,.21-.03,.42-.03,.63,0l.07,.07h.13c.08,.02,.16,.04,.23,.08h0l.19,.19h.05c.27,.11,.55,.2,.84,.26-.18,.08-.34,.2-.45,.37h0c-.28-.11-.51-.31-.66-.56l-.14-.18h0c-.13,.36-.11,.75,.07,1.09l-.53,.07h-.13c-.34-.04-.69,.05-.97,.26Zm2.45-1.74l.13,.05c.08,.02,.17,.02,.25,0h.16c.13,.02,.27,.02,.4,0l.2-.05c.19-.04,.38-.06,.57-.06-.07,.2-.1,.41-.11,.62-.14,0-.28-.03-.42-.07-.13-.02-.26-.02-.39,0h0c-.41-.08-.81-.19-1.2-.35,0-.17,.06-.33,.14-.48l.08,.08s.02,.1,.05,.14c.06,.08,.07,.09,.19,.12h-.05Zm-.08-.37c.02-.08,.08-.14,.16-.17h0c.27-.15,.46-.4,.53-.7,.01-.24-.07-.47-.24-.64,.25,.02,.48,.13,.65,.32,.17,.25,.22,.57,.14,.86-.03,.26-.19,.48-.42,.6h0c-.16,.11-.37,.13-.55,.06l-.14-.06s-.08-.04-.1-.08c-.04-.06-.05-.13-.03-.19h0Zm1.35,.23c.13-.13,.21-.31,.24-.49,.08,.13,.11,.29,.1,.44l-.34,.05Zm.71-.28c.07,.29,.23,.56,.46,.76-.17,0-.34,.06-.49,.16h-.05c-.06,.05-.13,.09-.21,.11,.01-.36,.11-.72,.29-1.03h0Zm-2.5,.7c-.25-.26-.42-.59-.5-.94,.16,.09,.34,.09,.5,0,.05,.09,.11,.17,.17,.25-.14,.22-.2,.48-.17,.74v-.05Zm-.37-.33h-.06v-.05h0s.04,.03,.06,.05h0Zm.76,1.14c-.09,.1-.2,.17-.32,.21h-.3c-.18-.28-.23-.63-.12-.95,.02,.04,.05,.08,.08,.11,.14,.28,.38,.5,.66,.63h0Zm8.61-3.75s-.02,.07,0,.1c.01,.04,.04,.06,.08,.07,.23,.05,.47,.05,.7,0-.25,.45-.7,.76-1.21,.82-.06,0-.1,.05-.09,.11,0,0,0,0,0,.01,0,.05,.06,.09,.11,.09,.51-.03,1.02-.15,1.49-.35-.16,.39-.44,.71-.81,.91h0c-.55,.06-1.09,.06-1.64,0,.38-.42,.72-.88,1-1.37m0-.05h-.05c-.16,.06-.34,.08-.51,.08h.07c.66-.38,1.19-.96,1.5-1.65-.04,.48-.27,.92-.64,1.22l-.37,.35Zm-.44-2.1c-.14,.26-.36,.47-.63,.59h-.33c.27-.23,.51-.5,.7-.8h-.52c.37-.2,.69-.46,.95-.79,.05,.34-.01,.69-.17,1h0Zm-8.33,1.82h.64c.16,0,.31-.05,.43-.15,.1-.09,.17-.21,.17-.35,.02-.15-.03-.3-.13-.41-.1-.08-.21-.13-.33-.15,.38-.1,.78-.05,1.12,.13,.08,.02,.15,.06,.21,.11,.23,.14,.36,.16,.63-.19,.28-.31,.71-.41,1.1-.26l-.07,.1s-.04,.09-.01,.13c0,0,0,0,.01,.01,.04,.04,.1,.04,.14,0,.29-.41,.75-.67,1.25-.71h0c.2,0,.39,.06,.56,.17h0c.1,.06,.18,.14,.26,.22,.04,.04,.1,.04,.14,0,.04-.04,.04-.11,0-.15-.07-.09-.16-.17-.26-.23,.18-.5,.6-.88,1.12-1,.42-.05,.79-.3,1-.67l.23-.3c.07,.2,.13,.4,.17,.6-.26,.36-.6,.66-1,.86-.05,.02-.09,.05-.13,.08,0,.02,0,.03,0,.05,.02,0,.03,0,.05,0,.21-.01,.42-.01,.63,0-.22,.31-.49,.59-.78,.84-.58,.14-.87,.44-.92,1.28,0,.06,.04,.1,.1,.11,.05,0,.1-.03,.11-.09,0,0,0,0,0-.01,.05-.91,.39-1.05,1.09-1.16h.17l.57-.08c.62-.14,1.13-.57,1.38-1.15,.01,.22,.01,.43,0,.65-.29,.77-.84,1.41-1.55,1.82l-.22,.13h0s.03,0,.05,0c.2,0,.4,0,.6-.05-.3,.46-.63,.9-1,1.31v.05h0c.33,.05,.67,.08,1,.07h.77c.13,0,.07,.06,.11,0,.25-.07,.5-.15,.74-.26-.16,.54-.59,.96-1.13,1.1-.06,0-.1,.04-.1,.1s.04,.1,.1,.1c.34,0,.68-.05,1-.16-.13,.29-.32,.57-.54,.8-.84-.1-1.64-.41-2.33-.9-.02-.02-.05-.02-.07,0m0,.07c.68,.48,1.47,.79,2.3,.9-.08,.07-.17,.13-.26,.18l-.09,.06c-.34,.09-.7,.05-1-.13-.05-.03-.11-.02-.14,.03-.03,.05-.02,.11,.03,.14,.34,.24,.56,.41,.74,.55l.22,.17c-.12,.03-.25,.05-.38,.06-.53-.31-1.02-.7-1.43-1.16m-.07,0v.07c.39,.42,.83,.78,1.31,1.08-.31-.02-.6-.12-.85-.3-.03-.01-.07-.01-.1,0-.03,.02-.05,.05-.06,.09-.02,.21-.02,.42,0,.63-.14-.05-.26-.14-.35-.26h0l-.05-.05h0c-.18-.27-.3-.57-.35-.89-.02,0-.04,0-.06,0-.01,.02-.01,.04,0,.06,.06,.3,.16,.58,.31,.85-.9,.19-1.84,.17-2.73-.08-.37-.16-.79-.14-1.15,.05-.32,.11-.67,.14-1,.08-.29-.1-.6-.03-.83,.17l-.08,.06c-.25,.21-.63,.52-1.25-.12-.1-.16-.27-.25-.46-.25h-.09c-.07,0-.13-.25-.13-.38h.23c.34-.02,.67-.07,1-.15,.23-.05,.43-.2,.55-.4,.17-.19,.39-.33,.63-.4h0c.12-.02,.23-.02,.35,0,.15,.04,.31,.07,.47,.08,.14,0,.27-.04,.38-.13l.08-.06c.09-.08,.14-.11,.52-.13,.04,0,.08-.02,.09-.06,.02-.03,.02-.08,0-.11-.12-.13-.25-.24-.39-.34-.11-.16-.19-.33-.23-.52h0s-.03,0-.05,0c-.07,.11-.13,.22-.18,.34h-.07c0-.21-.07-.41-.19-.58h-.05c-.02,.21-.11,.41-.26,.57h-.39c.17-.14,.28-.33,.3-.55,.09-.32,.03-.66-.15-.94-.22-.24-.53-.38-.86-.38-.02,0-.03,0-.05,0,0,.02,0,.04,0,.06,.2,.16,.32,.4,.31,.66-.06,.27-.23,.49-.47,.63-.07,.03-.13,.08-.17,.15-.07-.08-.14-.17-.19-.27,.2-.12,.32-.33,.32-.56,0-.28-.14-.54-.37-.7-.19-.09-.33-.25-.39-.45,0,0,0-.11-.07-.17l-.05-.05c.04,.16,.13,.3,.27,.39l7,3.26Zm-8.33-3.26c.11-.15,.28-.23,.46-.23h0c.21,0,.4,.13,.49,.32,.03,.05,.05,.1,.07,.15,.07,.24,.24,.44,.47,.55,.17,.12,.27,.31,.27,.52,0,.16-.07,.3-.21,.38-.34,.18-.4,.14-.53,.08h0c-.32-.16-.7-.14-1,.05-.26,.11-.56,.05-.76-.15-.08-.21-.1-.45-.05-.67,.02-.1,.08-.18,.16-.23,.34-.14,.58-.44,.67-.79l-.04,.02Z"/><path d="M23.61,87.17c-.07-.14-.21-.24-.37-.26,.07-.15,.07-.33,0-.48,.08-.03,.16-.07,.23-.12,.24,.05,.5,.05,.74,0-.14,.09-.22,.25-.22,.41,0,.29,.22,.52,.51,.53,0,0,0,0,.01,0h.1c.03,.1,.07,.2,.13,.29h0v-.07l.08-.13,.1-.06h.07c.09-.01,.17-.01,.26,0h.07c-.13-.07-.25-.15-.36-.23v-.09s0-.09,0-.13c0-.05,0-.09,0-.14v-.08h0c-.04-.08-.11-.15-.19-.2l-.14-.15m-.05,0c-.35,.12-.72,.16-1.09,.1h-.06c-.09,.07-.19,.12-.29,.16h0s0,.03,0,.05c.15,.15,0,.47,0,.47h0c.39,0,.47,.18,.47,.19l.97-.97Zm.23,.1l.19,.2h0c0,.09,0,.17,0,.26h0c-.15-.11-.29-.23-.41-.37h0c0,.22,.03,.43,.1,.64h-.08c-.23-.04-.4-.26-.36-.49,.03-.19,.17-.33,.36-.36,.08,.02,.15,.06,.2,.12h0Z"/><path d="M20.12,87.61c.07,.02,.13,.02,.2,0,.11-.09,.16-.22,.14-.36h0c-.03-.1-.11-.18-.22-.2-.05-.03-.12-.03-.17,0-.07,.05-.11,.13-.12,.22,0,0,0,.1,.14,.14-.05,.04-.1,.06-.16,.07h-.07s0,.04,0,.06c.08,.05,.17,.07,.26,.07Zm.12-.28h-.15c0-.05,.03-.11,.07-.14,.03-.01,.07-.01,.1,0,.07,0,.13,.06,.14,.13h0s0,.21-.09,.23c-.06,0-.13,0-.19,0,.05-.05,.09-.1,.12-.17v-.05Z"/><path d="M18.48,87.51h0v-.07c0-.06,.03-.12,.06-.17,.01,.07,.07,.13,.15,.14,.08-.01,.16-.06,.21-.13,.02-.05,.02-.12,0-.17,0-.17-.15-.2-.21-.21h0c-.13-.01-.27,.04-.35,.15-.06,.14-.06,.31,0,.45h.14Zm0-.42s.2-.1,.23-.1h0c.05,0,.1,0,.13,.13,.02,.03,.02,.07,0,.1-.04,.04-.09,.07-.14,.08l-.06-.14s0-.03,0-.05h0c-.05,.04-.09,.09-.12,.15-.02-.05-.03-.11-.03-.17h-.01Z"/><path d="M24,46.38c.74-1.15,1.84-2.88,1.14-4.3-.4-.85-1.23-1.43-2.17-1.5-.86-.08-1.7,.3-2.21,1-.33,.61-.33,1.33,0,1.94,.27,.39,.75,.58,1.21,.49,.21-.04,.39-.16,.51-.34,.12-.19,.16-.41,.12-.63-.11-.31-.36-.54-.68-.63-.14,0-.28,.03-.41,.09-.03-.25,.07-.49,.25-.66,.36-.33,.87-.43,1.32-.26,.44,.15,.79,.46,1,.87,.19,.3,.25,.66,.18,1v.13c-.2,.61-.4,1.25-2.22,2-.03,.01-.06,.04-.06,.08-.01,.03-.01,.06,0,.09,.22,.25,.55,.38,.88,.36-.53,.79-.8,1.72-.76,2.67-.4-.83-.89-1.61-1.47-2.33l-.2-.25c-1-1.34-.52-2.22,0-3.16,.02-.03,.02-.07,0-.1h0v-1.15s-.04-.08-.08-.08h-4.63s-.08,.04-.08,.08v1.15h0s-.01,.07,0,.1c.51,.94,1,1.83,0,3.16,0,.08-.12,.16-.19,.25-.6,.74-1.11,1.55-1.52,2.41,.07-.97-.18-1.94-.73-2.74,.33,.02,.65-.11,.88-.35,.01-.03,.01-.07,0-.1,0-.03-.03-.06-.06-.07-1.82-.79-2-1.42-2.2-2v-.14c-.07-.35,0-.7,.19-1,.21-.4,.57-.71,1-.86,.45-.16,.96-.05,1.31,.28,.2,.16,.29,.42,.25,.67-.13-.07-.27-.1-.41-.1-.32,.07-.58,.31-.68,.62-.04,.22,0,.44,.11,.63,.11,.18,.3,.31,.51,.34,.46,.1,.94-.09,1.21-.48,.34-.61,.34-1.34,0-1.95-.5-.7-1.33-1.08-2.19-1-.94,.06-1.78,.62-2.19,1.47-.71,1.42,.38,3.16,1.1,4.32,.19,.28,.36,.58,.51,.88,.43,.66,.43,1.51,0,2.17-.06-.09-.13-.17-.21-.24-.32-.13-.69-.06-.94,.18-.29,.34-.31,.84-.06,1.21,.13,.24,.36,.41,.63,.46h.18c.3,0,.59-.11,.82-.3,.25-.28,.46-.59,.63-.92-.38,1.52-.13,3.31,1.91,5.09v.74h5v-.68h.05c2-1.72,2.33-3.47,2-5,.15,.28,.34,.54,.55,.77,.22,.2,.51,.31,.81,.31h.18c.27-.04,.5-.21,.63-.45,.27-.36,.27-.85,0-1.21-.25-.24-.62-.32-.94-.19-.09,.07-.16,.15-.22,.24-.43-.66-.43-1.51,0-2.17,.13-.31,.28-.61,.44-.91Zm-8.19-4.49h4.46v1h-4.46v-1Zm-3,8.7c-.22,.2-.52,.29-.82,.24-.21-.03-.4-.17-.5-.36-.21-.3-.21-.7,0-1,.14-.12,.32-.19,.51-.19,.06-.02,.11-.02,.17,0,.1,.08,.18,.19,.23,.31,.02,.03,.05,.05,.09,.05,.03,.02,.06,.02,.09,0,.57-.72,.63-1.72,.13-2.5-.15-.31-.33-.62-.52-.91-.74-1.18-1.75-2.8-1.09-4.12,.38-.77,1.14-1.29,2-1.36,.78-.07,1.54,.28,2,.92,.3,.55,.3,1.2,0,1.75-.23,.31-.62,.47-1,.39-.16-.03-.29-.12-.38-.26-.09-.14-.12-.31-.09-.47,.09-.22,.27-.4,.5-.47h0c.14,.02,.28,.06,.41,.13h0s.07,.01,.1,0c.03-.02,.04-.05,.05-.08,.09-.37-.03-.75-.31-1-.4-.38-.98-.51-1.5-.33-.5,.14-.91,.49-1.14,.95-.23,.34-.31,.77-.22,1.17v.13c.19,.61,.41,1.29,2.16,2.08-.18,.17-.42,.24-.66,.2h-.15s-.07,.02-.09,.05c-.02,.03-.02,.07,0,.1,.88,1.38,1.51,2.95,0,4.58h.04Zm7.45,4.86h-4.57v-.48h4.57v.48Zm.16-.69h-4.8c-3.8-3.31-1.26-6.59,0-8.17l.2-.25c.78-.92,.82-2.25,.11-3.22h4.29c-.72,.97-.68,2.31,.1,3.23l.2,.25c1.13,1.59,3.66,4.87-.14,8.16h.04Zm3-5.08s.06,.01,.09,0c.04,0,.07-.02,.09-.06,.05-.12,.13-.22,.23-.3,.24-.07,.5-.01,.68,.16,.22,.3,.22,.7,0,1-.1,.19-.29,.32-.5,.35-.29,.05-.59-.04-.81-.23-1.51-1.66-.88-3.22,0-4.53,.02-.03,.02-.07,0-.1-.02-.04-.05-.06-.09-.06h-.14c-.24,.04-.49-.03-.67-.2,1.77-.77,2-1.46,2.18-2.06v-.14c.09-.4,.02-.82-.2-1.16-.22-.47-.63-.84-1.13-1-.52-.18-1.1-.06-1.51,.32-.28,.25-.4,.63-.31,1,0,0,0,.07,.05,.08,.03,.01,.06,.01,.09,0h0c.13-.06,.27-.1,.42-.12,.23,.08,.4,.26,.49,.48,.03,.16,0,.33-.09,.47-.09,.13-.23,.22-.38,.25-.38,.07-.77-.08-1-.4-.29-.54-.29-1.19,0-1.73,.46-.64,1.22-.99,2-.92,.87,.07,1.63,.6,2,1.39,.65,1.32-.38,2.93-1.13,4.1-.19,.29-.37,.59-.53,.9-.5,.78-.45,1.78,.11,2.51h.06Z"/><path d="M20.31,48.81c.09,.34,.03,.7-.16,1-.23-.17-.48-.32-.73-.46,.14-.12,.28-.25,.41-.39,.28-.3,.38-.57,.3-.78s-.32-.32-.73-.34c-.7-.06-1.4,.17-1.92,.65-.63-.22-.77-.59-.9-1.67,0-.04-.03-.07-.07-.08-.03-.02-.07-.02-.1,0-.44,.32-.65,.87-.53,1.4-.42,.17-.72,.55-.79,1-.02,.03-.02,.08,0,.11,.03,.02,.08,.02,.11,0,.42-.19,.9-.22,1.35-.1,.08,.03,.15,.07,.22,.12-.09,.14-.16,.28-.23,.43-.11,.26-.21,.49-.3,.72-.34-.17-.72-.26-1.1-.24-.23-.02-.46,.07-.62,.25-.09,.19-.09,.41,0,.6,.26,.48,.67,.87,1.17,1.1v.05c-.23,.31-.53,.56-.88,.73-.04,.01-.07,.05-.08,.09,0,.04,.03,.08,.07,.1,.39,.11,.81,.13,1.21,.05,.18,.34,.5,.58,.87,.67h0s.05,.01,.08,0c.02-.03,.02-.07,0-.1-.2-.37-.26-.79-.19-1.2,.2,.05,.41,.07,.62,.07,.43,0,.85-.1,1.22-.31l.13-.06c.3-.16,.57-.34,.83-.56,.22,.16,.46,.29,.72,.39,.12,.04,.24,.07,.37,.07,.16,0,.32-.06,.43-.17,.24-.37,.24-.86,0-1.23,0-.05-.06-.1-.09-.16,.27-.11,.56-.14,.84-.07,.03,.02,.07,.02,.1,0,.02-.03,.02-.07,0-.1-.19-.38-.58-.62-1-.63,0-.39-.19-.76-.5-1-.04-.02-.08-.02-.12,0,0,.02-.01,.03-.01,.05Zm-3.64,.21c-.43-.14-.89-.14-1.32,0,.15-.47,.36-.63,.57-.7h0c0,.08,.03,.16,.06,.24,0,.05,.05,.08,.1,.07,0,0,.01,0,.02,0,.05-.01,.08-.07,.07-.12v-.2h0v-.11s0-.03,0-.05c-.12-.4,0-.83,.32-1.11,.11,.87,.29,1.32,.93,1.57-.16,.17-.3,.35-.42,.54-.11-.05-.22-.09-.33-.12h0Zm.1,.8c.25-.63,.7-1.17,1.28-1.52,.02,.29,.18,.56,.44,.7h0m0-.07c-.24-.14-.4-.39-.4-.67,.38-.19,.81-.28,1.24-.24,.31,0,.51,.1,.55,.22h0c-.22,0-.43,.08-.6,.22m0,.07h0c.15-.12,.33-.19,.52-.19-.03,.18-.12,.34-.25,.46-.6,.57-1.24,1.1-1.92,1.57-.21,.16-.39,.35-.54,.57l-.11-.05h0l-.32-.17-.3-.15c.19-.26,.29-.49,.41-.75l2.51-1.29Zm-1.12,1.78c.08,.09,.17,.17,.23,.25l.32,.35c-.69,.3-.87,.32-1.31,.11,.13-.19,.29-.36,.47-.5l.29-.21Zm-2,2.68c-.03-.09-.07-.18-.11-.26-.03-.03-.09-.03-.12,0-.05,.01-.08,.06-.06,.11,0,0,0,0,0,0,.02,.07,.04,.14,.07,.2-.27,.04-.53,.04-.8,0,.29-.18,.54-.41,.74-.68v-.08c.21,.1,.43,.17,.65,.23h0c-.07,.37-.02,.76,.12,1.11-.24-.14-.43-.36-.54-.61l.05-.03Zm2.55-1l-.14,.07c-.61,.34-1.34,.4-2,.18-.77-.13-1.45-.6-1.84-1.28-.02-.1-.02-.19,0-.29,.27,0,.41,.1,.49,.28h0m0-.06c-.1-.21-.32-.34-.55-.34h0s.22-.16,.45-.17h.07c.35,0,.69,.09,1,.25,0,.33,0,.54-.3,.62-.02,.02-.02,.05,0,.07,.02,0,.03,0,.05,0h0c.28-.1,.44-.38,.37-.67l.3,.15,.32,.17h0l.17,.08h0c.61,.3,.8,.31,1.67-.07l.25,.24,.11,.09,.16,.15c-.19,.21-.4,.4-.63,.56l-3.44-1.13Zm5.77,.88l-.09-.09c-.18-.21-.4-.37-.65-.48-.02-.01-.04-.01-.06,0v.06c.24,.1,.45,.25,.61,.45l.07,.06c-.15,.08-.34,.08-.49,0-.37-.14-.7-.35-1-.61l-.17-.15-.09-.09s-.09-.08-.13-.13h0c-.14-.15-.28-.3-.4-.45-.07-.08-.15-.17-.23-.24,.32-.23,.64-.48,.93-.73,.35,.2,.68,.42,1,.67l.06,.05c.23,.17,.42,.38,.56,.63,.19,.51,.21,.9,.03,1.09l.05-.04Zm-.41-2.74c.18,.2,.27,.47,.25,.74,0,.06,.04,.1,.1,.1h0c.3,0,.58,.13,.77,.35-.26-.02-.53,.02-.77,.13l-.09-.08-.16-.16-.06-.05-.25-.2c.14-.24,.2-.52,.16-.79l.05-.04Z"/><path d="M19.2,48.22s-.03-.06-.07-.06c-.03,0-.06,.03-.06,.06,0,0,0,.07,.06,.07,.04,0,.07-.03,.07-.07h0Z"/><path d="M20.47,51.03s.03,.07,.07,.07c.04,0,.07-.03,.07-.07s-.03-.07-.07-.07h0s-.07,.03-.07,.07Z"/><path d="M15.32,50.62s.03,.07,.07,.07c.04,0,.07-.03,.07-.07,0-.03-.03-.06-.07-.06,0,0-.07,.03-.07,.06Z"/><path d="M19.52,50.45c-.1,.12-.14,.27-.11,.42h0v-.06c-.02-.12,.02-.25,.1-.34,.12-.14,.29-.21,.47-.21,.02,0,.03,0,.05,0,0-.03-.02-.05-.05-.05-.18,.02-.34,.1-.46,.24Z"/><path d="M15.09,41.21h.82s.05,.01,.07,0c.02-.02,.02-.06,0-.08-.49-.87-1.3-1.5-2.26-1.78l-.26-.11c-1.29-.46-2.71-.46-4,0h-.08c-.84,.25-1.62,.7-2.26,1.3-.38,.32-.71,.68-1,1.08l-.09,.12-.18,.19h0l-.53,.22c-.67,.28-1.13,.91-1.18,1.64-.13,.53-.15,1.09-.07,1.63,.02,.05,.05,.1,.1,.13,.06,0,.15,0,.28-.09s.13-.17,.2-.25v-.06c.06-.09,.11-.18,.16-.27v-.09c.05-.09,.09-.19,.12-.29,0-.02,0-.03,0-.05,.04-.14,.07-.26,.09-.36,0-.05,0-.11,0-.16,0-.24,.1-.48,.26-.66,.08-.07,.16-.13,.25-.18-.03,.05-.06,.1-.1,.15l-.09,.11c-.1,.15-.15,.33-.14,.51-.09,.49-.27,.96-.54,1.38-.16,.16-.25,.48-.12,.63h0s.1,.07,.16,.07c.15-.01,.28-.08,.39-.18l.19-.14c.8-.41,1.29-1.24,1.27-2.14v-.38c-.09-.45,0-.91,.27-1.29h0c.93-1.1,2.2-1.86,3.61-2.15l.37-.05c.55-.09,1.12-.09,1.67,0-.18-.01-.37-.01-.55,0-.72,.08-1.4,.34-2,.74-1.11,.74-1.66,2.08-1.4,3.39,0,.02,0,.04,0,.06,.02,.02,.06,.02,.08,0,.47-.39,.91-.82,1.32-1.28l.32-.45c.22-.37,.49-.7,.8-1,1.14-1.08,2.93-1.03,4.02,.1,.01,.01,.02,.02,.03,.04Zm-8.59,1.88v.38c0,.84-.47,1.61-1.21,2l-.19,.14c-.18,.14-.3,.17-.34,.13s0-.28,.11-.4c.3-.44,.5-.94,.59-1.47,0-.29,0-.32,.12-.44,.02-.03,.04-.07,.07-.1,.11-.11,.18-.26,.2-.41h0s.01-.05,0-.07h0c-.17,.08-.33,.18-.47,.31-.2,.2-.31,.47-.31,.75v.16c-.08,.48-.31,.93-.64,1.28-.06,.06-.09,.06-.09,.06h0c-.07-.51-.04-1.03,.08-1.53,.05-.68,.47-1.27,1.1-1.53,0,0,.34-.13,.53-.22h0l-.05-.1c.06-.05,.11-.11,.15-.17l.11-.11,.49,.1c-.23,.37-.31,.81-.25,1.24Zm3.77-1.16c-.11,.14-.21,.3-.32,.45-.37,.4-.75,.78-1.16,1.14-.2-1.2,.32-2.41,1.33-3.08,.58-.39,1.24-.64,1.94-.72,.61-.05,1.22,.04,1.79,.26,.04,0,.08-.01,.1-.05,.02-.03,.02-.07,0-.1-.93-.47-1.98-.62-3-.41l-.37,.05c-1.44,.3-2.74,1.07-3.7,2.19l-.49-.09c.25-.35,.55-.66,.88-.94,.62-.59,1.38-1.03,2.21-1.27h.08c1.26-.45,2.63-.45,3.89,0l.26,.11c.88,.25,1.63,.81,2.11,1.59h-.59c-1.11-1.11-2.89-1.18-4.08-.15-.34,.3-.64,.64-.88,1.02Z"/><path d="M22.55,37.55c-.69,.51-1.32,1.08-1.9,1.71l-.08,.09c-.11,.13-.22,.26-.31,.4,.28-.45,.61-.86,1-1.22,.55-.51,1.18-1.25,1.6-3.72,.02-.02,.02-.06,0-.08-.03-.02-.06-.02-.09,0-1.26,.78-2.34,1.82-3.17,3.05h0c-.12-.15-.27-.27-.44-.37,.13-.39,.25-.78,.34-1.15h0c.19-.27,.33-.56,.41-.88,.01-.02,.01-.05,0-.07h-.13c.17-.8,.21-1.63,.11-2.45-.01-.04-.04-.06-.08-.07-.04,0-.07,.03-.08,.07-.34,.86-.74,1.69-1.19,2.5v.05c-.32,.1-.59,.3-.79,.57l-.08,.09c.14-.71-.16-1.43-.75-1.83-.03-.02-.07-.02-.1,0-.59,.48-.79,1.3-.5,2-.17-.2-.38-.37-.62-.5-.18-.49-.45-1.17-.69-1.77s-.51-1.26-.52-1.36c0-.04-.04-.07-.08-.07h0s-.07,.03-.08,.07c-.09,.96-.02,1.92,.2,2.86h-.29s0,.05,0,.07c.11,.44,.29,.85,.55,1.22-.35-.42-.75-.8-1.19-1.12l-.35-.23c-.1-.07-.2-.14-.39-.25-.82-.51-1.73-.85-2.68-1-.03-.01-.05-.01-.08,0-.01,.02-.01,.06,0,.08l.13,.31c.28,.7,.49,1.2,2.15,2,.88,.48,1.69,1.09,2.39,1.81-.02,.04-.04,.09-.05,.14-1.13-.73-2.35-1.31-3.62-1.74-.46-.14-.93-.25-1.4-.33-.76-.12-1.49-.36-2.18-.69-.04-.02-.09,0-.11,.03-.01,.03-.01,.06,0,.09,0,0,.46,.68,.71,1.1s1.34,.79,2.49,1.16l.59,.18c.66,.21,1,.31,1.93,.69,1.29,.33,2.41,1.12,3.15,2.23,.01,.03,.04,.05,.07,.05h.97s.04,0,.06,0h.79s.07-.03,.08-.07v-.22c0-.78,.17-1.55,.51-2.25h.23l-.08,.12c-.36,.72-.55,1.52-.53,2.32-.01,.02-.01,.04,0,.06,.02,0,.03,0,.05,0h2.03c.94-.67,2.11-.91,3.24-.67,1.46,.46,2.72,1.41,3.56,2.7,.19,.22,1.26,1,1.3,1,.02,.01,.06,.01,.08,0l.05-.05c.06-.49,.06-1,0-1.49-.28-1.15-1.02-2.12-2.05-2.7-1.17-.56-2.48-.75-3.76-.57,.67-.21,1.37-.32,2.07-.32h.21c.78,.04,1.54,.28,2.21,.69,.55,.41,1.05,.89,1.5,1.41,.06,.07,.12,.14,.19,.2,.05,.05,.12,.12,.12,.15,.01,.06,.01,.12,0,.18v.21c-.02,.08-.02,.16,0,.24v.06s-.02,.07,0,.11h0s0,.08,0,.12h0v.08c-.09,.24-.09,.5,0,.74h0v.07c.16,.51,.1,1.07-.15,1.54h0s.04,0,.06,0h0c.52-.05,1.01-.27,1.4-.62,0-.02,0-.04,0-.06h0s0-.04,0-.06c-.18-.11-.34-.27-.45-.45-.06-.11-.1-.22-.13-.34,.06,.21,.18,.4,.33,.56l.16,.13h.06c.47,.21,.99,.3,1.5,.26h0s.08-.04,.08-.08h0s-.04-.08-.08-.08c-.23-.04-.45-.11-.66-.21l.25,.07,.15,.05,.5,.11h0s.08,0,.09-.04c0,0,0,0,0,0v-.1c-.12-.1-.23-.22-.31-.35-.03-.05-.06-.11-.07-.17v-.22h0s.45,0,1.14-.68c.01-.03,.01-.06,0-.09h0s-.05-.01-.07,0h-.27l-.2-.08h-.12c-.11-.06-.2-.14-.29-.22-.23-.31-.54-.55-.9-.69-.08,0-.17,0-.25,0-.15,0-.24,0-.3-.1h0c-.13-.19-.34-.31-.57-.34h-.09c-.08,0-.15-.03-.2-.09-.2-.2-.38-.41-.55-.63l-.19-.23c-.9-1.06-2.22-1.68-3.61-1.7l.35-.05c.62-.04,1.24-.04,1.86,0,1.24,.13,2.48-.3,3.38-1.17,.03-.03,.03-.09,0-.12-.05-.05-.12,0-.15,0-.66,.1-1.34,.1-2,0-1.73-.05-3.45,.27-5.05,.94l-.35,.11c.24-.14,.49-.25,.75-.34h0c.35-.2,.68-.43,1-.68,.28-.24,.88-.69,1.36-1,.66-.5,1.28-1.06,1.84-1.67,.51-.54,1.09-1,1.74-1.37,.02-.03,.02-.06,0-.09-.01-.03-.04-.05-.07-.06-.86-.03-1.72,.13-2.51,.47l-.22,.14c-.58,.32-1.11,.71-1.58,1.17-.29,.43-2.5,2.28-3.25,2.8Zm-3.55-.19c-.21-.1-.43-.17-.65-.22,.32-.14,.62-.33,.88-.56-.08,.25-.15,.51-.23,.78Zm.69-4.16c.04,.7,0,1.4-.15,2.08-.3-.04-.61-.02-.9,.05,.3-.55,.81-1.55,1.05-2.13h0Zm-1.89,2.83c.46-.56,1.21-.8,1.91-.62-.2,.72-.74,1.3-1.44,1.56l-.18,.09h-.23s0-.07,0-.1h0c-.03-.09-.08-.18-.14-.26v-.05h0l-.09-.09-.09-.09c.07-.18,.26-.44,.26-.44Zm-1.6,1.48c-.01-.06-.01-.13,0-.19h0v-.06h0c0-.24,.11-.46,.3-.61h0l.06-.05h0c.06-.04,.12-.07,.18-.09,.08-.03,.16-.04,.24-.05h0c.07,0,.15,0,.22,0h.09c.08,.04,.15,.09,.21,.14h0c.07,.07,.11,.15,.14,.24h0c0,.07,0,.13,0,.2h0v.07s0,.03,0,.05h0c0,.07,0,.15,0,.22h0c-.03,.08-.08,.15-.14,.21h-.07c-.14,.11-.31,.17-.49,.18h-.27c-.2-.08-.35-.24-.43-.44h0l-.04,.18Zm.59-3.15c.66,.43,.9,1.29,.54,2-.12-.05-.26-.08-.39-.08h-.08c-.12,0-.24,.04-.35,.1-.34-.66-.23-1.45,.28-1.99v-.03Zm-2.4-1.42c.09,.23,.22,.56,.4,1s.46,1.15,.64,1.63c-.25-.11-.52-.17-.8-.18-.2-.79-.28-1.61-.24-2.42v-.03Zm0,2.58h0c.78-.05,1.53,.33,1.95,1-.21,.18-.34,.44-.34,.72h0c-.16-.04-.33-.04-.49,0-.58-.41-.99-1.01-1.17-1.69l.05-.03Zm1,1.79h0l-.21-.25c.04,.1,.09,.19,.15,.28l.06-.03Zm-3-1c-1.61-.76-1.79-1.22-2.07-1.91l-.07-.18c.88,.18,1.73,.52,2.49,1l.37,.24c.1,.07,.19,.14,.36,.24,.64,.51,1.21,1.1,1.7,1.75-.19,.18-.33,.4-.41,.65-.71-.7-1.52-1.3-2.4-1.76l.03-.03Zm3,1.16c.12-.06,.26-.09,.4-.09,.08,0,.16,0,.24,0l.05,.17h0v.13h0c.07,.1,.16,.18,.26,.25,0,0-.05,.09-.08,.14-.28,.54-.47,.9-1.7,1,.27-.87,.44-1.4,.8-1.57l.03-.03Zm.91,1v.17c0,.06,0-.05,0-.08v-.09Zm.36,2.5h-.31c-.77-1.12-1.91-1.92-3.22-2.27-1-.38-1.29-.48-1.93-.68l-.6-.19c-1.06-.34-2.15-.68-2.39-1.08l-.55-.87c.64,.28,1.31,.47,2,.58,.46,.08,.91,.18,1.36,.32,1.28,.43,2.49,1.02,3.62,1.75-.06,.2-.12,.41-.18,.66-.02,.02-.02,.05,0,.07,.02,.01,.04,.01,.06,0h0c.29-.02,.57-.07,.85-.14,.12,.12,.23,.25,.31,.4,.05,.12,.06,.14,.11,.14h0s.05,.01,.07,0c.01-.02,.01-.05,0-.07h0v-.06c-.06-.15-.13-.3-.21-.45,.2-.08,.37-.21,.51-.37l.15,.24c.03,.48,.25,.92,.61,1.23,.11,.26,.2,.53,.27,.8h-.53Zm.67-.01c-.06-.2-.13-.4-.21-.6h.05s.04,0,.06,0c.04-.06,.08-.12,.11-.19v.11c.01,.25,0,.5-.04,.74l.03-.06Zm-.14-.75c-.68-.48-.95-1.36-.65-2.14h.06c.06,.03,.12,.04,.19,.05h.18c.11,0,.21-.03,.31-.07l.17-.08h0c.39,.75,.28,1.66-.29,2.28l.03-.04Zm.47-2.16l.06,.06v.06l-.06-.12Zm.4,2.8v.13h-.56c.03-.22,.03-.45,0-.67l.08-.46h0c.22-.41,.3-.89,.23-1.35h0v-.26c.21,.17,.44,.3,.7,.38h0c-.34,.71-.51,1.48-.51,2.27l.06-.04Zm.57-2.41h-.06c-.34-.13-.64-.33-.89-.6,.05-.04,.1-.09,.14-.14h0v-.08h0v-.33h0c.78,0,1.5,.44,1.86,1.14-.35,.1-.72,.12-1.08,.05l.03-.04Zm1,2.53h-1c-.01-.75,.16-1.48,.49-2.15l.15-.23c.24-.02,.47-.09,.68-.19h0s0-.05,0-.07c-.08-.14-.17-.28-.27-.41v-.06c.79-1.17,1.81-2.17,3-2.92-.41,2.28-1,3-1.52,3.45-.79,.7-1.35,1.61-1.61,2.63l.08-.05Zm11,.71h0c.04,.05,.1,.09,.17,.1h0c.07,0,.13,0,.2,0,.07,0,.14,0,.21,0,.27,.09,.5,.26,.68,.48l.14,.15c.11,.12,.25,.22,.4,.29,.17,.09,.35,.14,.54,.17-.24,.23-.52,.4-.83,.5-.08-.46-.32-.87-.67-1.17l-.07-.06c-.05-.04-.11-.06-.17-.07-.1-.07-.22-.11-.34-.14h0s-.08,.02-.1,.05c-.02,.03-.02,.07,0,.1,.29,.16,.56,.37,.77,.63h0l.05,.09,.06,.12c.06,.16,.09,.33,.1,.5,0,.09,0,.18,0,.27,.05,.16,.13,.31,.24,.43-.49-.04-.94-.28-1.25-.67-.05-.09-.09-.18-.12-.28-.04-.27-.14-.52-.29-.74-.04-.05-.09-.1-.14-.15-.03-.02-.06-.02-.09,0-.02,.03-.02,.06,0,.09,.06,.13,.1,.27,.14,.41v.05c0,.13,.05,.25,.07,.36v.26c.04,.14,.12,.27,.22,.38h0c.07,.08,.14,.14,.23,.19,.16,.09,.33,.17,.5,.23-.59,.05-1.13-.33-1.29-.9-.08-.27-.12-.55-.13-.83,0-.04-.03-.07-.07-.08-.04,0-.08,.02-.09,.07,0,0,0,0,0,0-.11,.52,0,1.07,.3,1.51,.06,.11,.14,.2,.23,.29,.06,.06,.12,.11,.19,.16-.31,.26-.68,.42-1.08,.48,0-.03,0-.07,0-.1,.15-.36,.19-.76,.12-1.15,0-.11-.05-.22-.07-.33s0-.15-.05-.21c-.04-.12-.04-.26,0-.38v-.07s0-.06,0-.09c.02-.07,.02-.13,0-.2v-.08h0c.34-.33,.77-.54,1.23-.62l.06-.04Zm.59,2.37l-.22-.03c-.19-.11-.33-.28-.4-.49,0-.02,0-.05,0-.07,.05,.15,.13,.28,.24,.39l.1,.07c.07,.06,.14,.12,.22,.17l.06-.04Zm-3.63-10.34l.23-.14c.67-.31,1.41-.46,2.15-.44-.59,.34-1.12,.76-1.57,1.26-.54,.6-1.15,1.15-1.8,1.63-.44,.31-1.06,.78-1.37,1-.29,.24-.6,.45-.92,.65-.69,.29-1.36,.62-2,1-.12,.06-.24,.12-.35,.19-.03,.02-.04,.07-.01,.1,0,0,0,0,.01,.01,.03,.03,.08,.03,.11,0h0l.27-.16c.53-.25,1.09-.46,1.65-.63,1.58-.66,3.29-.98,5-.93,.62,.08,1.25,.1,1.88,.05-.86,.7-1.96,1.03-3.07,.93-.63-.04-1.27-.04-1.9,0-.37,.05-.75,.12-1,.18h-.1c-.11-.02-.21-.02-.32,0-.04,.02-.05,.07-.05,.11,0,.07,0,.08,.39,0,.19-.01,.39-.01,.58,0,.65,.01,1.3,.13,1.91,.35,.68,.31,1.28,.75,1.79,1.3l.19,.23c.17,.23,.36,.45,.57,.65,.07,.08,.17,.13,.28,.13h.07c.14,.02,.27,.09,.37,.18-.37,.1-.71,.29-1,.54v-.11c0-.07,0-.13,0-.2,.01-.08,.01-.15,0-.23,0-.09-.09-.16-.17-.24-.06-.06-.12-.12-.17-.19-.46-.54-.98-1.03-1.55-1.44-.68-.43-1.46-.67-2.27-.72h-.42c-1.12,.11-2.22,.37-3.27,.76-.04,0-.06,.04-.06,.08,0,0,0,.01,0,.02,.01,.04,.06,.06,.1,.05,0,0,2.91-.87,5,.29,1,.55,1.72,1.49,2,2.59,.05,.43,.05,.87,0,1.3-.4-.28-.79-.58-1.16-.91-.86-1.32-2.15-2.29-3.65-2.76-1.16-.24-2.37,0-3.35,.68h-.67c.13-.6,.43-1.15,.85-1.59l.08-.08c.57-.62,1.19-1.19,1.87-1.69,.68-.5,3-2.36,3.35-2.78,.43-.39,.91-.72,1.43-.98l.06-.04Z"/><path d="M71.53,20.86v-.38H0V63.77c0,13.88,12.27,28.59,34.53,41.42l1.28,.83,1.33-.81c22.25-12.79,34.5-27.51,34.5-41.44-.07-6.07-.11-42.91-.11-42.91ZM12.62,30.86v-1.4l-1.56,1,.88-1.82-1.76,.67,1.25-1.72-1.4,.22,1.57-1.54-1.91,.2,1.64-1.3-1.13-.21,1.43-.72-1.27-.45,1.65-.5-1.09-.47,1.27-.44-.87-.88,3.19-.06-1.06,.62,1,.06-.64,.88,1-.23-.21,.79,.71-.4v.56l.61-.44v.66c-.21,.35-.39,.71-.55,1.08l-.28-.12h-.12v3.95h0c.35,.28,.79,.43,1.24,.41,.44-.03,.87,.06,1.26,.26h0v.22c-.3-.19-.65-.28-1-.26h-.29c-.52-.02-1.02-.17-1.45-.45v-3.91m-.05-.05s-.06,.02-.06,.05v4h0c.46,.29,.99,.46,1.53,.48h.29c.35-.02,.7,.07,1,.27v.16c-.28-.17-.6-.26-.93-.25h-.29c-.61-.06-1.19-.26-1.7-.59v-3.9s-.04-.01-.06,0m-.05,0v3.93h0c.53,.35,1.14,.56,1.78,.62h.28c.33-.01,.66,.08,.94,.26v.23c-.34-.2-.73-.31-1.13-.3l-.64-.09c-.51-.15-.99-.38-1.43-.67v-3.85s-.03-.05-.06-.05c-.03,0-.05,.02-.05,.05v3.88h0c.46,.3,.97,.54,1.5,.7l.66,.09c.4-.01,.8,.1,1.14,.32h.05c.34-.18,.72-.28,1.11-.29,.78,.09,1.56-.15,2.17-.65h0v-4.16h0l-.18,.11v-.24h-.05l-.18,.09v-.2s0-.03,0-.05h-.06l-.2,.13h0s0-.03,0-.05h-.05c-.27,.14-.57,.23-.87,.25h-.06c-.23-.06-.46-.09-.7-.09,.11-.29,.24-.62,.38-.94h0s.09-.08,.07-.57l.53,.33-.06-.79,.83,.65-.28-.94,1,.44-.65-.94,1,.13-.61-.63,1.13-.21-.85-.39,3.3,.06-1.34,.82,2,.71-1.74,.21,1.8,.81-1.44,.08,1.76,1h-1.83l2.37,1.3-1.49-.2,.69,1.23-1.63-.79,1.25,2-1.25-.64,.61,1.23-1.25-.82,.68,2.17-1.36-1.19,.5,2-1.26-1.16-.16,1.46-.9-1.16-.29,1.33-.89-.82-.39,1-.87-.9-.64,1-.56-1-.89,.9-.22-1.13-.87,.56-.21-.9-.87,.72,.06-1.15,.87-4.84Zm6.31,.3l.15-.1v4c-.58,.47-1.33,.69-2.07,.6-.38,.01-.76,.11-1.1,.28v-.25c.29-.2,.65-.28,1-.25h.26c1-.05,1.2-.17,1.51-.38l.27-.17s0-.03,0-.05l-.02-3.68Zm-.36,3.84c-.3,.2-.48,.32-1.46,.36h-.25c-.35-.03-.7,.06-1,.24v-.16c.32-.22,.72-.32,1.11-.27h.2c.51,.03,1.02-.13,1.42-.45v-3.72l.15-.07v3.91l-.17,.16Zm0-4h0v3.7c-.39,.29-.86,.43-1.34,.41h-.2c-.39-.04-.78,.05-1.11,.26v-.23c.43-.2,.92-.27,1.39-.21h0c.37-.04,.71-.18,1-.41h0v-3.57l.17-.1,.09,.15Zm-.28,3.46c-.29,.22-.64,.35-1,.37-.48-.08-.97,0-1.41,.19v-1.42h0c.18-.05,.34-.17,.42-.34,.17-.25,.23-.55,.17-.84l-.11-.85c0-.06,.1-.3,.22-.61h0c.24,0,.47,.03,.7,.09,.32,0,.63-.07,.92-.21l.09,3.62Zm-2-2.9h0l.11,.89c.06,.25,0,.51-.14,.72-.06,.13-.17,.23-.31,.27-.04,.02-.09,.02-.13,0-.05-.08-.08-.17-.09-.27,.02-.05,.02-.11,0-.16,.07-.05,.15-.07,.23-.08,.03-.01,.05-.01,.08,0m.07-.07c-.04-.05-.09-.09-.15-.1-.1,0-.2,.03-.28,.09,0-.07,0-.14-.08-.23-.14-.57-.24-1.16-.29-1.75,0-.03-.03-.05-.05-.06-.18-.04-.36-.06-.54-.07-.29-.01-.57-.08-.84-.2,.15-.37,.67-1.24,.67-1.25l.06-.09h0c.31-.4,.49-.89,.52-1.4v-.88h1.85c-.11,.34-.15,.7-.13,1.05,.13,.6,.17,1.22,.11,1.83h0c-.37,.8-.69,1.71-.69,1.72l-.16,1.34Zm-.39,.7s.07,0,.1,0v1.47c-.4-.19-.84-.27-1.28-.24-.41,0-.8-.13-1.13-.37v-3.82c.36,.17,.75,.3,1.14,.37h.61c.05,.58,.15,1.15,.3,1.71,.05,.13,.09,.26,.12,.39h0c-.01,.16,.03,.31,.12,.44l.02,.05Zm-.72-6.65v1c-.03,.48-.21,.93-.5,1.31h0l-.06-.73-.58,.42v-.52l-.59,.34,.17-.64-.82,.18,.55-.75h-.74l1.08-.63h1.59s-.12-.05-.12-.03l.02,.05Zm4.34,.42l-.87,.17,.47,.48-.84-.11,.51,.73-.76-.34,.23,.76-.7-.54,.07,.84-.31-.19c0-.27-.06-.63-.12-1.13-.02-.37,.03-.73,.16-1.08h1.15l1.01,.41Zm14.39,83.24l-.64-.42c-12.51-7.2-21.82-15-27.54-22.85l11.35-6,16.83,9.54v19.73Zm0-28.41l-16.85-9.56-15.27,8.1c-1.72-3.53-2.65-7.4-2.7-11.33v-7.1H35.5l.02,19.89Zm0-20.43H.7V21.3H10.85l1,1-1.45,.51,1.05,.45-1.71,.52,1.41,.5-1.55,.78,1.28,.24-1.88,1.42,2-.21-1.62,1.58,1.55-.25-1.36,1.88,1.91-.73-1,2,1.84-1.16v1.45l.93-.73-.06,1.17,1-.81,.2,.87,.86-.56,.23,1.21,1-1,.59,1.1,.69-1.07,.9,.94,.39-1,.87,.93,.29-1.29,.93,1.22,.18-1.57,1.46,1.35-.52-2.12,1.51,1.21-.71-2.26,1.4,.92-.68-1.36,1.36,.7-1.26-2,1.57,.77-.81-1.45,2.18,.3-2.63-1.44h1.82l-1.85-1,1.58-.09-1.9-.86,1.87-.23-2.4-.85,1.56-.95h10.63l.02,34.83Zm35.3,0H36.05v-21.13h34.73c.01,6.93,.02,15.09,.02,21.08l.02,.05ZM41.92,21.3h5.44v13.45h-5.46l.02-13.45Zm17.31,0h5.64v13.45h-5.64v-13.45Zm-5.77,0h5.46v13.45h-5.46v-13.45Zm-5.79,0h5.48v13.45h-5.48v-13.45Zm17.51,13.45v-13.5h5.61v13.45l-5.61,.05Zm-23.58-13.5v13.45h-5.55v-13.45h5.55Zm-4.92,83.29l-.63,.39V56.67h34.75v7.1c.01,18.41-21.37,33.45-34.12,40.77Z"/><path class="cls-6" d="M7.43,14.03V1.89l-2.37,.24,.36-1.63L9.42,.13V14.03h-1.99Z"/><path class="cls-6" d="M27.29,10.37v3.66h-2v-3.68h-5.49l-.34-1.55L25.94,.3h1.31V8.76h1.61v1.59l-1.57,.02Zm-2-6.63c-.39,.63-.82,1.19-1.23,1.73l-2.54,3.31h3.79V3.77l-.02-.03Z"/><path class="cls-6" d="M41.47,14.48l-1.93-.9c2.5-1.1,4.51-3.07,5.66-5.55-.58,.58-1.36,.9-2.18,.88-2.37,.07-4.34-1.8-4.41-4.17,0-.09,0-.18,0-.26C38.56,2.06,40.48,.05,42.91,0c.09,0,.18,0,.26,0,2.53-.05,4.63,1.96,4.69,4.49,0,.17,0,.34-.02,.51,0,3.67-2.69,7.59-6.37,9.48Zm1.66-12.67c-1.51,.04-2.7,1.29-2.66,2.8,.04,1.51,1.29,2.7,2.8,2.66,1.18-.03,2.21-.82,2.55-1.96v-.66c0-1.51-1.18-2.76-2.69-2.84Z"/><path class="cls-6" d="M61.13,14.29c-.9,.02-1.78-.17-2.6-.54l-.22-1.94c.82,.5,1.76,.76,2.72,.76,1.54,.02,2.79-1.21,2.81-2.75s-1.21-2.79-2.75-2.81h0c-.81-.02-1.61,.1-2.37,.37l.22-7.06h6l-.36,1.68h-3.77l-.09,3.34c.19-.03,.37-.05,.56-.05,2.44-.13,4.53,1.74,4.67,4.18,0,.13,0,.25,0,.38,.05,2.37-1.65,4.44-4.82,4.44Z"/></g></svg>