<svg xmlns="http://www.w3.org/2000/svg" xmlns:xlink="http://www.w3.org/1999/xlink" width="67.313" height="72.181" viewBox="0 0 67.313 72.181">
  <defs>
    <clipPath id="clip-path">
      <rect id="Rectangle_128" data-name="Rectangle 128" width="67.313" height="72.181" fill="#0039bc"/>
    </clipPath>
  </defs>
  <g id="Group_1319" data-name="Group 1319" clip-path="url(#clip-path)">
    <path id="Path_180" data-name="Path 180" d="M25.421,340.087q-.4-2.155-.9-4.949t-1.094-5.926q-.6-3.134-1.154-6.108T21.2,317.542q-.518-2.589-.835-4.269a.482.482,0,0,0-.516-.453H11.261a.513.513,0,0,0-.516.453q-.359,1.726-.835,4.2t-1.035,5.359q-.558,2.885-1.134,5.9T6.648,334.5q-.518,2.748-.954,5.041t-.677,3.7c-.054.3.04.454.279.454H10.9c.238,0,.4-.152.477-.454l.994-6.312a.324.324,0,0,1,.358-.318h5.051c.185,0,.291.107.318.318l1.035,6.312c.025.3.171.454.437.454H25.7c.238,0,.332-.152.277-.454q-.159-1-.556-3.156Zm-8.114-9.6H13.289c-.106,0-.159-.061-.159-.182q.119-.727.337-2.156t.477-3.043q.259-1.612.518-3.133t.458-2.475a.257.257,0,0,1,.1-.183.668.668,0,0,1,.418-.091c.213,0,.338.032.378.091a1.35,1.35,0,0,1,.1.183q.157.954.4,2.5t.458,3.156q.218,1.614.418,3.043t.318,2.111C17.505,330.422,17.439,330.483,17.307,330.483Z" transform="translate(-4.727 -295.651)" fill="#0039bc"/>
    <path id="Path_181" data-name="Path 181" d="M412.77,325.534a13.152,13.152,0,0,0,.616-4.223q0-4.359-1.889-6.426t-5.987-2.065H397q-.4,0-.4.453v29.969c0,.3.133.454.4.454h5.608c.265,0,.4-.152.4-.454v-10.4c0-.151.032-.241.1-.272a.626.626,0,0,1,.259-.046H404.4a.448.448,0,0,1,.437.363l3.063,10.353a.887.887,0,0,0,.218.387.537.537,0,0,0,.3.068h6.244a.251.251,0,0,0,.259-.136.287.287,0,0,0-.019-.272l-4.257-12.215a4.456,4.456,0,0,1-.238-1.249,1.5,1.5,0,0,1,.437-.975,9.771,9.771,0,0,0,1.929-3.315Zm-6.543.749a2.062,2.062,0,0,1-1.949,1.068H403.4c-.266,0-.4-.122-.4-.364v-7.992a.54.54,0,0,1,.079-.273.341.341,0,0,1,.319-.135h1.153a1.921,1.921,0,0,1,1.69.84,6.271,6.271,0,0,1,.577,3.246,7.9,7.9,0,0,1-.6,3.61Z" transform="translate(-374.833 -295.651)" fill="#0039bc"/>
    <path id="Path_182" data-name="Path 182" d="M712.1,343.7h5.608c.265,0,.4-.151.4-.454V319.677c0-.182.08-.273.239-.273h3.341c.265,0,.4-.15.4-.454v-5.676c0-.3-.133-.453-.4-.453H708.168q-.4,0-.4.453v5.676c0,.3.132.454.4.454h3.3c.159,0,.238.092.238.273v23.566c0,.3.133.454.4.454Z" transform="translate(-668.925 -295.651)" fill="#0039bc"/>
    <path id="Path_183" data-name="Path 183" d="M972.876,310.663a13,13,0,0,0-.557,4.109,15.794,15.794,0,0,0,.2,2.656,10.431,10.431,0,0,0,.616,2.18,9.868,9.868,0,0,0,1.114,2,22.834,22.834,0,0,0,1.731,2.112,18.075,18.075,0,0,1,2.108,2.633,4.376,4.376,0,0,1,.636,2.316,2.724,2.724,0,0,1-.6,2.044,2.922,2.922,0,0,1-1.989.544,11.809,11.809,0,0,1-1.77-.113q-.737-.114-1.73-.3c-.185-.06-.278.015-.278.227l-.318,5.767q0,.365.2.409a22.858,22.858,0,0,0,5.251.545,13.507,13.507,0,0,0,3.559-.431,6.114,6.114,0,0,0,2.646-1.454,6.614,6.614,0,0,0,1.651-2.7,13.2,13.2,0,0,0,.577-4.223,16.8,16.8,0,0,0-.2-2.769,9.853,9.853,0,0,0-.616-2.179,9.544,9.544,0,0,0-1.093-1.93q-.677-.929-1.632-2.021l-1.551-1.771a9.533,9.533,0,0,1-.934-1.226,3.568,3.568,0,0,1-.457-1.044,5.127,5.127,0,0,1-.119-1.18,2.24,2.24,0,0,1,.576-1.817,3.09,3.09,0,0,1,1.889-.453,10.768,10.768,0,0,1,1.591.113,11.112,11.112,0,0,1,1.631.386c.186.061.279-.015.279-.226l.436-5.541a.531.531,0,0,0-.04-.272,1.11,1.11,0,0,0-.159-.137,11.88,11.88,0,0,0-2.307-.522,21.044,21.044,0,0,0-2.983-.2,12.3,12.3,0,0,0-3.3.408,5.625,5.625,0,0,0-2.487,1.407,6.619,6.619,0,0,0-1.57,2.657Z" transform="translate(-918.691 -289.385)" fill="#0039bc"/>
    <path id="Path_184" data-name="Path 184" d="M10.107,942.789a.565.565,0,0,0-.227.016,9.245,9.245,0,0,1-1.008.23,7.433,7.433,0,0,1-1.168.077,3.319,3.319,0,0,1-1.4-.261,1.989,1.989,0,0,1-.913-.9,5.119,5.119,0,0,1-.5-1.761,22.1,22.1,0,0,1-.148-2.836,25.688,25.688,0,0,1,.148-3.065,5.772,5.772,0,0,1,.5-1.885,2.04,2.04,0,0,1,.913-.965,3.142,3.142,0,0,1,1.4-.276,10.126,10.126,0,0,1,1.06.047,6.529,6.529,0,0,1,1.008.2c.143.041.214-.009.214-.154l.188-4.045q0-.245-.134-.276a7.267,7.267,0,0,0-1.4-.321,13.505,13.505,0,0,0-1.825-.108,6.129,6.129,0,0,0-3.155.766,5.84,5.84,0,0,0-2.107,2.16,10.715,10.715,0,0,0-1.181,3.4A24.529,24.529,0,0,0,0,937.319a25.174,25.174,0,0,0,.362,4.49,9.941,9.941,0,0,0,1.168,3.3,5.368,5.368,0,0,0,2.094,2.037,6.576,6.576,0,0,0,3.14.69,10.9,10.9,0,0,0,1.92-.153,7.35,7.35,0,0,0,1.623-.49q.108-.03.108-.337l-.188-3.892c0-.1-.04-.158-.121-.169Z" transform="translate(0 -875.65)" fill="#0039bc"/>
    <path id="Path_185" data-name="Path 185" d="M217.316,947.194h-4.59q-.134,0-.134-.183v-3.555c0-.122.045-.184.134-.184h3.867c.178,0,.268-.1.268-.306v-3.648c0-.2-.09-.307-.268-.307h-3.867c-.089,0-.134-.061-.134-.183v-3.249c0-.124.045-.184.134-.184h4.3c.161,0,.241-.1.241-.306v-3.831c0-.2-.08-.306-.241-.306h-8.4c-.18,0-.268.1-.268.306v20.227c0,.205.088.306.268.306h8.7c.144,0,.216-.1.216-.306V947.5c0-.2-.071-.307-.216-.307Z" transform="translate(-196.915 -879.856)" fill="#0039bc"/>
    <path id="Path_186" data-name="Path 186" d="M407.709,930.98h-3.383c-.179,0-.269.1-.269.306l.269,11.8c0,.2-.063.306-.188.306a.206.206,0,0,1-.175-.092,1.02,1.02,0,0,1-.122-.368l-2.415-11.616c-.036-.081-.071-.158-.108-.23a.193.193,0,0,0-.189-.107h-5.18c-.18,0-.269.1-.269.306v20.227c0,.205.089.306.269.306H399.3c.178,0,.268-.1.268-.306L399.3,939.07a.915.915,0,0,1,.026-.429.2.2,0,0,1,.189-.092.215.215,0,0,1,.188.077,1.2,1.2,0,0,1,.108.384l2.98,12.5c.054.205.161.306.323.306h4.591c.178,0,.268-.1.268-.306V931.286c0-.2-.09-.306-.268-.306Z" transform="translate(-373.964 -879.885)" fill="#0039bc"/>
    <path id="Path_187" data-name="Path 187" d="M639.9,930.97h-9.128c-.18,0-.269.1-.269.306v3.831c0,.205.089.306.269.306H633c.108,0,.161.061.161.184V951.5c0,.2.089.306.269.306h3.785c.179,0,.268-.1.268-.306V935.6c0-.123.054-.184.161-.184H639.9c.178,0,.268-.1.268-.306v-3.831c0-.2-.09-.306-.268-.306Z" transform="translate(-595.896 -879.875)" fill="#0039bc"/>
    <path id="Path_188" data-name="Path 188" d="M826.338,943.281a3,3,0,0,1-.161-.843,1.011,1.011,0,0,1,.3-.659,6.607,6.607,0,0,0,1.3-2.238,8.878,8.878,0,0,0,.416-2.85,6.269,6.269,0,0,0-1.275-4.337,5.23,5.23,0,0,0-4.041-1.395h-5.745q-.269,0-.269.307v20.227q0,.306.269.306h3.785c.178,0,.268-.1.268-.306v-7.019c0-.1.023-.164.068-.184a.416.416,0,0,1,.174-.031h.7a.3.3,0,0,1,.3.246l2.066,6.988a.589.589,0,0,0,.148.26.349.349,0,0,0,.2.047h4.215a.173.173,0,0,0,.175-.091.2.2,0,0,0-.014-.184Zm-2.98-3.233a1.394,1.394,0,0,1-1.317.72h-.59c-.179,0-.27-.081-.27-.246v-5.393a.366.366,0,0,1,.054-.185.229.229,0,0,1,.216-.091h.778a1.3,1.3,0,0,1,1.142.567,4.23,4.23,0,0,1,.389,2.192,5.347,5.347,0,0,1-.4,2.437" transform="translate(-772.028 -879.866)" fill="#0039bc"/>
    <path id="Path_189" data-name="Path 189" d="M1060.626,947.194h-4.59c-.089,0-.134-.061-.134-.183v-3.555c0-.122.045-.184.134-.184h3.866c.178,0,.268-.1.268-.306v-3.648c0-.2-.09-.307-.268-.307h-3.866c-.089,0-.134-.061-.134-.183v-3.249c0-.124.045-.184.134-.184h4.3c.161,0,.241-.1.241-.306v-3.831c0-.2-.079-.306-.241-.306h-8.4c-.18,0-.268.1-.268.306v20.227c0,.205.088.306.268.306h8.7c.143,0,.216-.1.216-.306V947.5c0-.2-.073-.307-.216-.307Z" transform="translate(-993.941 -879.856)" fill="#0039bc"/>
    <path id="Path_190" data-name="Path 190" d="M15.673,10.942H13.41a.158.158,0,0,0-.16.146l-.446,2.9c-.036.167-.107.209-.214.209H10.077c-.107,0-.143-.083-.125-.209.446-2.566,1.942-10.64,2.566-13.77.036-.125.089-.209.232-.209H16.6a.216.216,0,0,1,.232.209c.606,3.067,2.21,11.892,2.513,13.77.018.125-.018.209-.125.209H16.474c-.107,0-.178-.042-.2-.209l-.463-2.9C15.8,10.984,15.744,10.942,15.673,10.942Zm-.214-2.817c.053,0,.089,0,.089-.083-.125-.856-.517-3.8-.713-4.965-.018-.063-.036-.125-.214-.125-.2,0-.232.063-.232.125-.232,1.148-.677,4.089-.8,4.965,0,.083.036.083.071.083h1.8Z" transform="translate(-9.402 -0.009)" fill="#0039bc"/>
    <path id="Path_191" data-name="Path 191" d="M195.91,0c2.12,0,3.671.918,3.671,3.526a3.538,3.538,0,0,1-1.122,2.983c-.178.146-.214.188-.214.292,0,.083.053.125.16.209.695.48,1.39,1.231,1.39,3.171,0,2.9-1.728,4.006-3.617,4.006h-3.849a.184.184,0,0,1-.178-.209V.209A.184.184,0,0,1,192.328,0Zm-.356,5.884c.838,0,1.194-.563,1.194-1.752,0-1.022-.3-1.5-1.069-1.5h-.535a.157.157,0,0,0-.16.167V5.7c0,.167.053.188.16.188Zm.143,5.571c.873,0,1.176-.5,1.176-1.711s-.463-1.606-1.194-1.606h-.535c-.107,0-.16.042-.16.188v2.921c0,.146.053.209.178.209h.534Z" transform="translate(-181.604)" fill="#0039bc"/>
    <path id="Path_192" data-name="Path 192" d="M353.83.209A.184.184,0,0,1,354.008,0h5.577c.107,0,.16.083.16.209V2.817c0,.125-.053.209-.16.209h-2.851c-.071,0-.089.042-.089.125V5.362c0,.083.018.125.089.125H359.3a.184.184,0,0,1,.178.209V8.178a.184.184,0,0,1-.178.209h-2.566c-.071,0-.089.042-.089.125v2.42c0,.083.018.125.089.125h3.047c.089,0,.143.083.143.209v2.712c0,.125-.053.209-.143.209h-5.773a.184.184,0,0,1-.178-.209V.209Z" transform="translate(-334.411)" fill="#0039bc"/>
    <path id="Path_193" data-name="Path 193" d="M491.039,7.365c-.25.313-.232.563-.089,1.022L492.857,14a.125.125,0,0,1-.107.188h-2.8c-.125,0-.16-.021-.232-.209l-1.372-4.757a.193.193,0,0,0-.2-.167h-.463c-.089,0-.16,0-.16.146v4.778a.184.184,0,0,1-.178.209h-2.513a.184.184,0,0,1-.178-.209V.209A.184.184,0,0,1,484.838,0h3.813c2.423,0,3.528,1.252,3.528,3.9A5,5,0,0,1,491.039,7.365ZM488.224,2.65h-.517a.168.168,0,0,0-.178.188V6.509c0,.083.036.167.178.167h.392c.8,0,1.141-.6,1.141-2.149,0-1.46-.356-1.878-1.016-1.878Z" transform="translate(-458.06)" fill="#0039bc"/>
    <path id="Path_194" data-name="Path 194" d="M650.981,0c3.492,0,4.169,3.025,4.169,7.073s-.766,7.115-4.223,7.115h-3.76a.184.184,0,0,1-.178-.209V.209A.184.184,0,0,1,647.168,0h3.813Zm-.392,2.942h-.659q-.107,0-.107.125v7.99c0,.1.018.125.089.125h.695c1.265,0,1.568-.814,1.568-4.194s-.267-4.048-1.586-4.048Z" transform="translate(-611.481)" fill="#0039bc"/>
    <path id="Path_195" data-name="Path 195" d="M815.8.209A.184.184,0,0,1,815.978,0h5.577c.107,0,.16.083.16.209V2.817c0,.125-.053.209-.16.209H818.7c-.071,0-.089.042-.089.125V5.362c0,.083.017.125.089.125h2.566a.184.184,0,0,1,.178.209V8.178a.184.184,0,0,1-.178.209H818.7c-.071,0-.089.042-.089.125v2.42c0,.083.017.125.089.125h3.047c.089,0,.143.083.143.209v2.712c0,.125-.053.209-.143.209h-5.773a.184.184,0,0,1-.178-.209V.209Z" transform="translate(-771.026)" fill="#0039bc"/>
    <path id="Path_196" data-name="Path 196" d="M946.96.209A.184.184,0,0,1,947.138,0h5.577c.107,0,.16.083.16.209V2.817c0,.125-.053.209-.16.209h-2.851c-.071,0-.089.042-.089.125V5.362c0,.083.018.125.089.125h2.566a.184.184,0,0,1,.178.209V8.178a.184.184,0,0,1-.178.209h-2.566c-.071,0-.089.042-.089.125v2.42c0,.083.018.125.089.125h3.047c.089,0,.143.083.143.209v2.712c0,.125-.053.209-.143.209h-5.773a.184.184,0,0,1-.178-.209V.209Z" transform="translate(-894.988)" fill="#0039bc"/>
    <path id="Path_197" data-name="Path 197" d="M1082.716,14.187c-.107,0-.178-.063-.214-.209l-1.978-8.512c-.053-.271-.089-.313-.2-.313s-.16.063-.143.355l.178,8.471a.184.184,0,0,1-.178.209h-2.227a.184.184,0,0,1-.178-.209V.209a.184.184,0,0,1,.178-.209h3.439c.125,0,.16.125.2.229l1.6,7.907c.053.25.107.313.2.313.107,0,.125-.083.125-.209l-.178-8.032a.184.184,0,0,1,.178-.209h2.245a.184.184,0,0,1,.178.209v13.77a.184.184,0,0,1-.178.209h-3.047Z" transform="translate(-1018.628)" fill="#0039bc"/>
  </g>
</svg>
