<svg xmlns="http://www.w3.org/2000/svg" viewBox="0 0 543.3434 138.4183">
  <g id="white-rgb">
    <g>
      <path id="fullLogo" d="M415.042,88.4627a57.6708,57.6708,0,0,1-22.7,31.8544A46.1006,46.1006,0,0,1,381.613,125.78c-10.7905,3.7574-23.8006-1.7384-23.4786-14.4135a21.1388,21.1388,0,0,1,4.3884-12.6423c7.2145-8.9487,29.41-10.5878,42.1347-10.5878C408.1191,88.1364,411.5874,88.2379,415.042,88.4627Zm14.0061,49.0183V76.988A31.5609,31.5609,0,0,0,424.0234,59.3,32.2246,32.2246,0,0,0,410.016,47.6286a49.7729,49.7729,0,0,0-20.5147-4.0478,51.1949,51.1949,0,0,0-20.6065,4.0478c-6.2175,2.7152-9.8018,5.2725-13.6958,9.7638-.6613.7652-1.2606,1.5244-1.832,2.2856l10.2892,7.754a30.37,30.37,0,0,1,10.3193-8.8468c5.3464-2.7831,9.1485-3.2726,15.1622-3.2726a39.6349,39.6349,0,0,1,14.1553,2.3615,21.4682,21.4682,0,0,1,9.564,6.739,16.4359,16.4359,0,0,1,3.2446,8.7349l.0857,3.7561c-4.3447-.2745-8.6923-.4415-13.0462-.4415-17.7775,0-38.3483,1.8687-49.898,14.6687a29.6744,29.6744,0,0,0-3.9975,33.7281c3.9626,7.1,13.6892,13.5559,24.7393,13.4477,15.7615-.1543,31.3839-9.6929,41.4774-24.11l1.4765-2.1118.5574,25.3956Z" style="fill: #75ffe3"/>
      <path id="fullLogo-2" data-name="fullLogo" d="M483.6848,55.4263c6.6671.6333,12.6149,3.57,16.319,8.0556,6.1756,7.4842,5.8939,17.9173,5.6461,27.1217-.05,1.8041-.0958,3.5763-.0958,5.2885v41.5867h13.0923V78.1666c0-10.4771-3.1607-19.62-8.9007-25.7432a30.4862,30.4862,0,0,0-7.0387-5.5642c-14.2571-8.2234-35.8926-5.7-49.2527,5.742-.937.8012-1.8321,1.6463-2.6632,2.5154l-1.4725,1.5384-.014-5.5063c-.01-1.6423-.018-3.5163-.0219-4.8529l-12.98-.014-.07,91.197h13.09V91.93c0-9.17,2-16.8664,5.9438-22.87a31.3033,31.3033,0,0,1,28.4184-13.6338" style="fill: #75ffe3"/>
      <path id="fullLogo-3" data-name="fullLogo" d="M534.197,119.3854a9.1485,9.1485,0,1,0,9.1464,9.15,9.159,9.159,0,0,0-9.1464-9.15" style="fill: #75ffe3"/>
      <path id="fullLogo-4" data-name="fullLogo" d="M304.994,55.4263c6.667.6333,12.6148,3.57,16.3209,8.0556,6.1756,7.4842,5.8939,17.9173,5.6442,27.1217-.048,1.8041-.0959,3.5763-.0959,5.2885v41.5867h13.0923V78.1666c0-10.4791-3.1607-19.6216-8.8987-25.7432a30.4951,30.4951,0,0,0-7.0407-5.5642c-14.2551-8.2234-35.8906-5.7-49.2527,5.742-.937.8032-1.832,1.6483-2.6612,2.5154l-1.4744,1.5384L270.5918,0l-12.98,2.6632-.0679,134.8156h13.0883V91.93c0-9.1724,2-16.8664,5.9438-22.87A31.32,31.32,0,0,1,304.994,55.4263" style="fill: #75ffe3"/>
      <path id="fullLogo-5" data-name="fullLogo" d="M12.7288,124.23l-.0459-36.51,1.0449.2338a58.7421,58.7421,0,0,0,15.6537.923c14.4651-.7751,29.2619-3.5928,42.2128-10.3189a63.7294,63.7294,0,0,0,7.1522-4.2964,31.9805,31.9805,0,0,1,5.3848,4.47c8.6515,8.2163,12.6707,20.3575,6.828,30.7237-7.1405,12.6688-20.3128,14.2372-33.1934,14.7566C56.28,124.2717,12.7288,124.23,12.7288,124.23ZM66.291,67.0634l-1.78.873A78.6763,78.6763,0,0,1,44.5093,74.314c-8.018,1.5225-16.5675,2.5827-24.73,1.7823a22.86,22.86,0,0,1-5.7-1.0912L12.9546,74.59l.9486-1.0812c2.1837-2.6652,8.2538-6.433,16.8309-8.7466A55.6245,55.6245,0,0,1,64.435,66.3681Zm-53.7-53.6262s33.3013-.2457,34.4461-.2537c6.735-.042,13.7077-.0779,20.3368,1.1947,6.4832,1.2487,11.89,3.92,15.6337,7.73a22.5619,22.5619,0,0,1,6.3414,16.76,21.2317,21.2317,0,0,1-3.5705,10.1735,43.2964,43.2964,0,0,1-8.0394,9.492l-.6054-.3236a67.3017,67.3017,0,0,0-31.9926-8.0017c-11.2024,0-22.58,2.8231-31.2175,7.7459l-1.2767.7253ZM58.2774,136.9126c13.854-.5581,28.6931-3.4417,38.5937-13.9749,8.1786-8.7013,10.999-21.38,8.2325-32.8943A44.0131,44.0131,0,0,0,88.36,65.4053c8.0624-7.5047,15.0656-20.4907,13.4773-32.7371A36.3719,36.3719,0,0,0,80.4547,4.4523C71.9587.8322,62.45.58,53.2152.5734,35.5124.5614,17.8643.6988,0,.8262q.0137,68.04.0274,136.0809c0,.0166,46.8653.1041,51.1258.1135,2.3794.0053,4.7468-.0107,7.1242-.108" style="fill: #75ffe3"/>
      <path id="fullLogo-6" data-name="fullLogo" d="M189.341,112.926a31.41,31.41,0,0,1-10.1494,8.8927,38.358,38.358,0,0,1-33.8657,1.5684,34.3452,34.3452,0,0,1-14.6877-12.2892,35.9131,35.9131,0,0,1-3.48-6.731c.1064.2674,3.7209-.0981,4.1614-.1193a111.6261,111.6261,0,0,0,34.3525-6.8255,54.52,54.52,0,0,0,13.11-7.0347c6.6467-4.9459,12.5447-12.1693,13.8781-20.5637,1.8236-11.48-6.4572-20.8511-16.4365-25.14A46.5883,46.5883,0,0,0,158.38,41.1221c-14.3012-.1536-28.59,6.1908-37.2915,17.6758-6.507,8.5888-9.5579,19.4618-9.5579,30.159a50.4176,50.4176,0,0,0,6.4253,25.3536,48.13,48.13,0,0,0,19.0565,18.4769c10.7854,5.7464,23.5627,6.9132,35.4156,4.3247A46.1108,46.1108,0,0,0,193.4987,126.72a37.4811,37.4811,0,0,0,7.3164-8.9227ZM125.17,81.7005c1.6413-10.9246,6.262-19.42,17.7635-25.2714,12.9371-6.582,35.7472-3.291,37.336,8.8517a12.1735,12.1735,0,0,1-1.5342,7.9335c-4.4185,7.1847-12.4214,11.37-20.4217,14.0415A105.874,105.874,0,0,1,124.7294,92.32a53.5339,53.5339,0,0,1,.4405-10.62" style="fill: #75ffe3"/>
      <path id="fullLogo-7" data-name="fullLogo" d="M250.1589,41.2725H223.141V9.8053L209.6551,12.52V41.2725H195.8375V53.6636h13.8176v55.9157a30.7039,30.7039,0,0,0,3.6262,14.9684,25.27,25.27,0,0,0,10.3093,10.2094,32.0078,32.0078,0,0,0,15.4319,3.6262,35.1923,35.1923,0,0,0,11.1364-1.75l-.2617-11.3621a30.4626,30.4626,0,0,1-9.7519,1.3126,17.3589,17.3589,0,0,1-9.0685-2.2716,15.1921,15.1921,0,0,1-5.8639-6.5212,21.9527,21.9527,0,0,1-2.0719-9.7079V53.6636h27.0179Z" style="fill: #75ffe3"/>
    </g>
  </g>
</svg>
