<svg xmlns="http://www.w3.org/2000/svg" xmlns:xlink="http://www.w3.org/1999/xlink" width="70.634" height="66.569" viewBox="0 0 70.634 66.569"><defs><clipPath id="clip-path"><path id="Path_28" data-name="Path 28" d="M0-117.51H70.634v-66.569H0Z" transform="translate(0 184.079)" fill="#93917a"></path></clipPath></defs><g id="Group_1013" data-name="Group 1013" transform="translate(0 184.079)"><g id="Group_1012" data-name="Group 1012" transform="translate(0 -184.079)" clip-path="url(#clip-path)"><g id="Group_1007" data-name="Group 1007" transform="translate(37.569 0)"><path id="Path_23" data-name="Path 23" d="M-3.86-5.389c.372.3.746.624,1.113.967.268.25.516.521.771.784A13.139,13.139,0,0,1,8.925-1.13a2.379,2.379,0,0,0-1.3,2.146A2.317,2.317,0,0,0,9.88,3.388a2.15,2.15,0,0,0,.507-.062A2.415,2.415,0,0,0,9.63,5.094a2.317,2.317,0,0,0,2.258,2.371,2.163,2.163,0,0,0,1.03-.262,2.377,2.377,0,0,0-.325,2.526,2.316,2.316,0,0,0,3.037,1.224c.054-.025.105-.053.156-.081a6.317,6.317,0,0,0,8.288,2.05c3.012-1.712,3.369-4.857,2.594-6.193a2.261,2.261,0,1,0-4.216,1.62,2.491,2.491,0,0,0,.166.342c-1,.49-2.986.515-4.441-1.667C16.361,4.3,16.6.251,16.939-1.613a4.166,4.166,0,0,0,.108-.52c-5.395-1.819-10.7-7.5-18.506-6.085A25.286,25.286,0,0,0-6.046-6.931c.554.343,1.1.7,1.609,1.09.2.151.389.3.578.452" transform="translate(6.046 8.442)" fill="#93917a"></path></g><g id="Group_1008" data-name="Group 1008" transform="translate(0 44.433)"><path id="Path_24" data-name="Path 24" d="M-54.516-33.694c-.374-.3-.75-.626-1.117-.969-.269-.25-.517-.523-.772-.787a13.141,13.141,0,0,1-10.9-2.508A2.379,2.379,0,0,0-66-40.1a2.317,2.317,0,0,0-2.258-2.372,2.149,2.149,0,0,0-.506.062,2.416,2.416,0,0,0,.757-1.768,2.317,2.317,0,0,0-2.258-2.371,2.162,2.162,0,0,0-1.029.262,2.377,2.377,0,0,0,.325-2.526,2.317,2.317,0,0,0-3.037-1.225c-.054.025-.105.053-.157.081a6.316,6.316,0,0,0-8.288-2.05c-3.012,1.712-3.369,4.857-2.594,6.193a2.317,2.317,0,0,0,2.959,1.4,2.317,2.317,0,0,0,1.257-3.024A2.451,2.451,0,0,0-81-47.781c1-.489,2.986-.515,4.441,1.667,1.816,2.724,1.578,6.776,1.238,8.64a4.143,4.143,0,0,0-.108.518h0c5.395,1.819,10.7,7.5,18.506,6.085a25.261,25.261,0,0,0,4.588-1.287c-.555-.344-1.1-.7-1.609-1.09-.19-.141-.382-.293-.574-.447" transform="translate(85.4 52.781)" fill="#93917a"></path></g><g id="Group_1009" data-name="Group 1009" transform="translate(24.064 31.432)"><path id="Path_25" data-name="Path 25" d="M-1.127,0l-.639,1.092c.043-.068.086-.136.129-.206C-1.468.61-1.3.308-1.127,0" transform="translate(1.766)" fill="#93917a"></path></g><g id="Group_1010" data-name="Group 1010" transform="translate(20.576 7.057)"><path id="Path_26" data-name="Path 26" d="M-83.164-67.337a6.316,6.316,0,0,0-8.288,2.05c-.051-.028-.1-.057-.157-.081a2.317,2.317,0,0,0-3.037,1.225,2.378,2.378,0,0,0,.325,2.526,2.163,2.163,0,0,0-1.03-.262,2.317,2.317,0,0,0-2.258,2.371,2.416,2.416,0,0,0,.757,1.768,2.152,2.152,0,0,0-.507-.062,2.317,2.317,0,0,0-2.258,2.372,2.438,2.438,0,0,0,.423,1.379,2.293,2.293,0,0,0,.88.768c-.212.152-.424.3-.636.436l-.167.109c-.238.153-.477.3-.715.435l-.094.052c-.216.122-.432.236-.647.345l-.159.081q-.353.172-.7.323l-.141.058q-.311.129-.621.241l-.135.049q-.35.122-.7.222l-.162.045c-.213.059-.426.112-.639.159l-.084.019c-.232.05-.464.091-.7.126l-.166.025c-.233.033-.465.061-.7.08h-.021c-.227.018-.452.028-.677.034l-.158,0c-.229,0-.457,0-.684-.01l-.073,0c-.205-.01-.41-.027-.613-.048l-.172-.019c-.224-.026-.447-.057-.668-.1l-.017,0c-.217-.038-.431-.084-.645-.133l-.073-.018-.09-.022c-.209-.051-.416-.106-.622-.168l-.028-.008c-.216-.065-.428-.138-.639-.214l-.153-.056q-.274-.1-.543-.217l-.026-.01-.063-.026c-.206-.09-.411-.186-.613-.286l-.14-.07q-.266-.136-.528-.282l-.083-.046q-.3-.169-.584-.352l-.125-.08q-.249-.161-.493-.332l-.095-.066q-.28-.2-.553-.413l-.108-.086q-.233-.185-.459-.379l-.1-.088c-.072-.063-.142-.129-.213-.192-.1-.091-.2-.181-.3-.275l-.092-.089q-.217-.207-.427-.423l-.106-.108c-.065-.068-.127-.139-.192-.207-.1-.1-.192-.2-.286-.309l-.073-.085q-.2-.231-.4-.468l-.1-.128c-.148-.183-.294-.369-.436-.559l-.053-.073q-.189-.254-.369-.516l-.1-.145c-.134-.2-.265-.4-.392-.6l-.028-.046c-.118-.189-.232-.38-.344-.573l-.09-.158c-.119-.209-.234-.419-.345-.632-2.892-5.556-2.29-14.773-2.227-19.7,0-.173-.005-.352-.009-.536,0-.025,0-.052,0-.077,0-.169-.007-.34-.01-.516-.111-5.105-.436-13.413,2.248-18.569a19.527,19.527,0,0,1,2.758-3.938l-.068-.061-.194-.168c-.108-.094-.243-.2-.376-.31-.256-.2-.419-.323-.583-.44-.223-.157-.362-.251-.5-.341-.28-.179-.446-.282-.619-.379-.225-.125-.378-.207-.532-.285-.29-.146-.466-.228-.644-.305-.225-.1-.38-.156-.535-.213-.1-.036-.167-.06-.243-.087a23.883,23.883,0,0,0-5.11,11.36c-1.241,6.56-1.426,11.277-3.538,14.319-.13.189-.268.372-.414.548,2.509,3.011,2.634,7.9,3.952,14.868,1.155,6.1,3.654,10.185,6.6,12.931a19.246,19.246,0,0,0,3.115,2.356q.534.325,1.072.608.445.234.891.443c.594.278,1.187.521,1.773.736s1.165.4,1.731.558c.85.239,1.67.421,2.442.561.23.042.457.076.682.105.075.01.148.017.222.025.151.017.3.034.45.046.085.007.17.012.254.017.136.009.273.016.408.021l.26.006c.063,0,.127,0,.189,0s.133,0,.2,0c.089,0,.179,0,.267-.006.129,0,.257-.011.384-.019.085-.005.169-.01.253-.017.135-.011.268-.025.4-.04.074-.008.149-.015.223-.025.16-.02.319-.044.477-.07.045-.007.091-.013.136-.021q.3-.052.6-.116l.153-.036c.148-.033.3-.067.442-.1.072-.018.144-.039.216-.059.123-.033.247-.067.369-.1.078-.023.155-.047.232-.071.116-.036.232-.072.347-.111l.234-.08q.169-.059.337-.12l.231-.086q.169-.065.337-.133l.219-.089c.118-.049.236-.1.353-.15l.194-.084c.137-.061.272-.123.408-.186l.132-.061q.27-.127.536-.258l.1-.049q.217-.108.432-.218l.186-.1.337-.178.205-.11.32-.173.2-.111.318-.176.2-.111.329-.184.189-.107.366-.207.406-.23.2-.112.5-.278.054-.03.433-.238.159-.086.328-.176.184-.1.3-.156.2-.1.288-.143.2-.1.286-.134.2-.091c.1-.044.2-.086.294-.128l.188-.08c.108-.045.216-.088.324-.13l.158-.061c.16-.061.321-.119.481-.173,0,0,0-.011,0-.027s0-.011,0-.017-.007-.044-.013-.077c0-.007,0-.013,0-.021-.007-.039-.016-.086-.028-.14l-.008-.035c-.01-.046-.022-.1-.036-.149,0-.016-.008-.032-.013-.049v0a15.865,15.865,0,0,1-.235-2.665,10.86,10.86,0,0,1,1.472-5.977c1.454-2.182,3.435-2.157,4.441-1.667a2.5,2.5,0,0,0-.166.342,2.317,2.317,0,0,0,1.257,3.024,2.317,2.317,0,0,0,2.959-1.4c.775-1.335.418-4.481-2.594-6.193m-41.56-7.185a28.877,28.877,0,0,0-2.591-4.706c-.009-.01-.014-.019-.021-.029s.013-.018.021-.028c.056-.066.116-.141.175-.221.025-.033.051-.07.076-.105s.067-.094.1-.144l.105-.157.068-.1.639-1.092.019-.034q.081-.149.16-.3l.007-.012c.207-.391.4-.78.577-1.133.242-.491.439-.912.552-1.16l.021-.044.039-.085.02-.044.02-.044.012-.027v3.6" transform="translate(130.277 105.484)" fill="#93917a"></path></g><g id="Group_1011" data-name="Group 1011" transform="translate(0 0)"><path id="Path_27" data-name="Path 27" d="M-37.7-9.66q.311-.129.621-.241l.136-.05q.349-.122.7-.221l.162-.045c.214-.059.426-.112.639-.159l.084-.019c.233-.05.464-.091.7-.126l.166-.025c.233-.033.465-.061.7-.08h.021c.227-.018.452-.028.677-.034l.157,0c.229,0,.457,0,.685.01l.073.005c.205.01.409.027.613.048l.172.019c.224.026.447.057.668.1l.016,0c.217.038.431.084.645.133l.052.013.112.027c.209.051.416.106.622.168l.028.008c.215.065.428.138.639.214l.153.057q.273.1.543.217l.026.01.062.026c.207.09.411.186.614.286l.139.07q.266.136.528.282l.084.046q.3.169.584.353l.124.08q.249.161.493.332l.1.066q.28.2.553.413l.108.086q.233.184.46.379l.1.088c.072.062.141.128.213.192.1.091.2.181.3.274.031.029.061.059.092.089q.217.207.427.423l.107.109c.065.068.127.138.191.207.1.1.192.2.286.308l.073.085q.2.231.4.468l.1.128q.222.275.436.559l.053.072q.189.254.369.516l.1.145c.134.2.265.4.392.6l.028.046c.118.189.232.38.344.573l.091.158c.118.209.234.419.345.632,2.892,5.556,2.29,14.773,2.227,19.7,0,.016,0,.032,0,.048q0,.235.008.482l0,.114c0,.155.006.312.01.473.11,5.1.438,13.42-2.248,18.58a19.528,19.528,0,0,1-2.758,3.939l.061.055.159.138c.15.129.282.238.415.343.262.206.423.327.587.444l.511.345c.272.174.44.276.612.373.225.125.378.208.531.285.288.143.458.225.632.3.035.016.161.069.2.087s.2.074.352.133c.1.036.167.06.243.086a23.875,23.875,0,0,0,5.11-11.36c1.165-6.157,1.4-10.689,3.171-13.738v0c.116-.2.236-.393.365-.579s.268-.372.415-.549c-2.509-3.011-2.634-7.9-3.952-14.868-1.155-6.1-3.654-10.185-6.6-12.931q-.5-.465-1.014-.88-.257-.208-.518-.4a19.566,19.566,0,0,0-2.654-1.681,23.775,23.775,0,0,0-6.839-2.3c-.23-.042-.457-.076-.682-.106-.075-.01-.148-.016-.222-.025-.151-.017-.3-.034-.45-.046-.085-.007-.17-.012-.254-.017-.137-.009-.273-.016-.408-.021l-.261-.006c-.063,0-.127,0-.189,0s-.133,0-.2,0l-.267.006c-.129,0-.256.012-.384.02l-.253.017c-.135.011-.268.025-.4.04-.074.008-.149.015-.223.025-.16.02-.319.044-.477.07l-.136.021q-.3.052-.6.116l-.153.036c-.148.033-.3.067-.441.1-.073.018-.144.039-.216.059-.124.033-.247.067-.37.1l-.232.071c-.116.036-.232.073-.347.111l-.234.08q-.169.059-.337.121l-.231.086q-.169.065-.337.133l-.219.088c-.118.049-.236.1-.353.15l-.194.084c-.137.06-.272.123-.407.186l-.132.061q-.27.126-.536.258l-.1.048c-.145.072-.289.145-.432.218l-.186.1-.338.177-.205.11-.319.173-.2.111-.318.176-.2.112-.329.184-.189.107-.366.207-.406.23-.2.112-.5.278-.054.03-.433.238-.159.086-.329.176-.184.1-.3.156-.2.1-.288.143-.2.1-.286.134-.2.091-.294.128-.188.08c-.108.045-.216.088-.324.129L-48.61-9c-.16.061-.32.119-.481.173l0,.027,0,.017c0,.02.007.045.013.077,0,.007,0,.013,0,.021.007.039.016.086.028.14,0,.011.005.023.008.035.01.046.022.1.036.149l.013.048v0a15.824,15.824,0,0,1,.235,2.666A10.858,10.858,0,0,1-50.221.336C-51.675,2.518-53.656,2.493-54.661,2a2.474,2.474,0,0,0,.166-.342,2.316,2.316,0,0,0-1.257-3.024A2.317,2.317,0,0,0-58.712.04c-.775,1.335-.418,4.481,2.594,6.193a6.316,6.316,0,0,0,8.288-2.05c.051.029.1.057.157.081a2.317,2.317,0,0,0,3.037-1.224A2.378,2.378,0,0,0-44.961.513a2.157,2.157,0,0,0,1.029.263A2.317,2.317,0,0,0-41.673-1.6a2.415,2.415,0,0,0-.758-1.768,2.15,2.15,0,0,0,.507.062,2.317,2.317,0,0,0,2.258-2.372,2.438,2.438,0,0,0-.423-1.379,2.29,2.29,0,0,0-.88-.768c.212-.152.424-.3.636-.436l.167-.109c.238-.153.477-.3.715-.435l.095-.052q.324-.182.647-.345l.16-.081q.353-.173.7-.323l.141-.058m23.147,28.941V13.419a28.9,28.9,0,0,0,2.59,4.705c.009.01.014.019.021.028s-.013.018-.021.029c-.057.066-.116.141-.176.221-.025.033-.05.069-.076.1s-.068.094-.1.145-.069.1-.1.157l-.069.107c-.043.067-.085.134-.128.2h0l0,0c-.167.274-.338.572-.5.878l-.022.04c-.053.1-.106.2-.158.294l-.01.02c-.222.419-.431.834-.613,1.206l0,.009-.129.265-.006.013c-.122.253-.226.474-.306.647l-.008.017-.055.119-.03.066c-.012.024-.022.047-.031.067l-.032.069-.008.019-.016.034Z" transform="translate(59.063 15.132)" fill="#93917a"></path></g></g></g></svg>