<svg xmlns="http://www.w3.org/2000/svg" viewBox="0 0 351.73 391.11"><defs><style>.cls-1{fill:#00a4b0;}.cls-2{fill:#d1007f;}.cls-3{fill:#4a2276;}.cls-4{fill:#e490bc;}.cls-5{fill:#d6562e;}.cls-6{fill:#8cced5;}.cls-7{fill:#6ec4cd;}.cls-8{fill:#a38fbe;}.cls-9{fill:none;}.cls-10,.cls-13{opacity:0.36;}.cls-11,.cls-13{fill:#fff;}.cls-12{fill:#e5b400;}</style></defs><g id="Layer_2" data-name="Layer 2"><g id="Layer_1-2" data-name="Layer 1"><path class="cls-1" d="M339,147.16c-.49-.27-1-.53-1.48-.77a25.34,25.34,0,0,0-4.81-1.69,24.84,24.84,0,1,0,17.24,33.39c.2-.49.37-1,.54-1.5s.4-1.27.55-1.93A24.84,24.84,0,0,0,339,147.16Z"/><path class="cls-2" d="M218.87,166h0V100.51a6.65,6.65,0,0,0-7-6.63A148.76,148.76,0,0,0,70.11,242.47h0a39.34,39.34,0,0,0,78.68,0v0a70.08,70.08,0,0,1,64.1-69.79h0A6.64,6.64,0,0,0,218.87,166Z"/><path class="cls-1" d="M218.87,319h0v65.51a6.65,6.65,0,0,1-7,6.63A148.76,148.76,0,0,1,70.11,242.51h0a39.34,39.34,0,1,1,78.68,0v.05a70.09,70.09,0,0,0,64.1,69.79h0A6.65,6.65,0,0,1,218.87,319Z"/><path class="cls-3" d="M136.52,213.92A39.34,39.34,0,1,0,138,269.53a39.34,39.34,0,0,0-1.48-55.61"/><path class="cls-4" d="M73.45,222.76c0,.31-.07.61-.1.92a.91.91,0,0,0,.13.08c.33-.19.8-.06,1-.47a.6.6,0,0,0-.41-.72Z"/><path class="cls-5" d="M276.3.81a28.9,28.9,0,1,1-34.87,21.33A28.9,28.9,0,0,1,276.3.81"/><path class="cls-6" d="M349.27,175.7l-.37.31c0,.67-.24,1.39.23,2.05l.81,0c.2-.49.37-1,.54-1.5C350,176.43,349.92,175.73,349.27,175.7Z"/><path class="cls-6" d="M337.37,147.12l1.28.41.34-.37c-.49-.27-1-.53-1.48-.77a2.18,2.18,0,0,1-.6.14C337,147,337.42,147.18,337.37,147.12Z"/><path class="cls-6" d="M343.48,178.08c-.23.69-.35,1-.46,1.36h1.09C344,178.93,344.43,178.17,343.48,178.08Z"/><path class="cls-6" d="M343.44,178.07h0l0-.06Z"/><path class="cls-6" d="M332.21,190.66v1a1.41,1.41,0,0,0,1-.05l0-.91Z"/><path class="cls-6" d="M333,187.27a.58.58,0,0,0-.42.68l.33.33c.47,0,.71-.2.67-.69C333.39,187.46,333.3,187.18,333,187.27Z"/><path class="cls-6" d="M318,166.86c0,.42-.05.72-.1,1.41.47-.66,1.09-.71,1.07-1.41Z"/><path class="cls-6" d="M317.59,170.6a.57.57,0,0,0,.68.68c.15-.2.53-.32.25-.68Z"/><path class="cls-6" d="M328.13,179.1c0,.08,0,.2,0,.22a1.61,1.61,0,0,0,.33.12c0-.07,0-.19,0-.22A1.61,1.61,0,0,0,328.13,179.1Z"/><path class="cls-4" d="M111.06,141.91c.72.08,1.44.43,2.19.08a4.43,4.43,0,0,0,.94-2.92l-.58-.36c-.64.67-1.28,1.34-1.91,2a1.88,1.88,0,0,1,.06.58C111.51,141.57,111.1,141.52,111.06,141.91Z"/><path class="cls-4" d="M108.74,156.51c-.14.7-.07,1.46-.61,2l-.93.28a2.74,2.74,0,0,1-.62-1.65c.26-.4.69-.36,1-.46S108.33,156.33,108.74,156.51Z"/><path class="cls-4" d="M104.6,194.68l-.24-.79a2.83,2.83,0,0,1,1.72-.54c.07.44-.26.68-.38,1Z"/><path class="cls-4" d="M113.59,172.51l-.35-1.2c.1-.37.38-.32.58-.41.53.24.45.74.52,1.18C114.26,172.38,114,172.33,113.59,172.51Z"/><path class="cls-4" d="M105.81,164.24l.93-.27a.58.58,0,0,1,.41.71c-.22.41-.69.28-1,.47C105.67,165,105.64,164.63,105.81,164.24Z"/><path class="cls-7" d="M72.52,261.35l.9-.27.3.59a.64.64,0,0,1-.82.4Z"/><path class="cls-4" d="M108.79,174.93l-.22-.74c.11-.37.39-.32.59-.41a.59.59,0,0,1,.39.7C109.46,174.8,109.17,174.75,108.79,174.93Z"/><path class="cls-4" d="M99.83,192.11l-.22-.73c.1-.37.39-.32.58-.42a.58.58,0,0,1,.39.7C100.49,192,100.21,191.93,99.83,192.11Z"/><path class="cls-4" d="M118.92,203.48a.6.6,0,0,1-.36-.74.54.54,0,0,1,.76-.22C119.36,202.92,119.06,203.16,118.92,203.48Z"/><path class="cls-4" d="M101.91,167.87l.65-.07c.11.48-.33.67-.33,1A.63.63,0,0,1,101.91,167.87Z"/><path class="cls-4" d="M112.86,173.44c-.29.41-.54.51-.88.33C112,173.22,112.35,173.27,112.86,173.44Z"/><path class="cls-4" d="M107.15,183.45c-.54-.13-.52-.41-.56-.62s.14-.19.24-.25.18,0,.19.1C107.07,182.89,107.09,183.11,107.15,183.45Z"/><path class="cls-4" d="M109.21,194.32a.57.57,0,0,1-.27-.92A.57.57,0,0,1,109.21,194.32Z"/><path class="cls-8" d="M111,246.49l1.63-.48c.12.34.23.62.35,1-.12.67-.68,1.18-.95,2.11a.46.46,0,0,1-.13.63c-.83.17-1.26-.63-1.93-.75a2.31,2.31,0,0,1,0-.63C110.35,247.7,110.69,247.08,111,246.49Z"/><path class="cls-8" d="M100.61,223.67l-.28-.95c.23-.48.74-.28.91-.46l1.7,1,0,.31c-.4.42-1,.38-1.5.6Z"/><path class="cls-8" d="M116.66,211.92l.48-.87.94-.27,1,.5-.72.58c0,.48-.48.39-.78.55Z"/><path class="cls-8" d="M109.47,217.36l.88.4c.3.57-.08.94-.31,1.3-.08.14-.38.14-.56.19-.41-.26-.31-.71-.5-1.06C109.13,217.94,109.29,217.68,109.47,217.36Z"/><path class="cls-8" d="M99.34,225.34l.9-.26c.36.08.33.35.4.5l-.46,1c-.62.29-.93-.19-1.37-.34Z"/><path class="cls-8" d="M100.57,231.49c-.68.15-.91-.31-1.14-.33.12-.34.24-.7.33-.94.6-.27.86.18,1.23.24C101,230.89,100.74,231.15,100.57,231.49Z"/><path class="cls-8" d="M105.28,254.9l-.13-.46c.22-.55.74-.45,1.17-.53.31.07.25.36.35.57A1,1,0,0,1,105.28,254.9Z"/><path class="cls-8" d="M101.56,252.49l-.13-.46c.22-.55.74-.45,1.17-.53.31.07.25.36.35.57A1,1,0,0,1,101.56,252.49Z"/><path class="cls-8" d="M89.65,249.48c0,.15.09.3.13.45a.58.58,0,0,1-.69.4c-.33-.08-.27-.37-.36-.57A.57.57,0,0,1,89.65,249.48Z"/><path class="cls-8" d="M106.49,215.68l.45-.13a.57.57,0,0,1,.4.69c-.08.32-.37.27-.56.36A.57.57,0,0,1,106.49,215.68Z"/><path class="cls-8" d="M103,247.05a.6.6,0,0,1-.74.38.56.56,0,0,1-.23-.76C102.4,246.61,102.64,246.94,103,247.05Z"/><path class="cls-8" d="M108.27,246.05l-.72.8c-.21-.09-.3-.35-.23-.69S107.76,245.79,108.27,246.05Z"/><path class="cls-8" d="M121.61,218.49a1.45,1.45,0,0,1,.26-.24s.13.06.2.1a2,2,0,0,1-.27.24S121.67,218.52,121.61,218.49Z"/><path class="cls-8" d="M84.57,226.09l-.35-.08c0-.06.07-.18.11-.19a2,2,0,0,1,.35.06Z"/><path class="cls-8" d="M87.42,213.18l-.12.21a1.13,1.13,0,0,1-.23-.26s.06-.13.1-.2Z"/><path class="cls-4" d="M190.62,121h1a3.1,3.1,0,0,0,.28.81,9.66,9.66,0,0,0,.84.86v1.45l-.59.62c-.32.09.05.27-.18,0l-1.33-1.34c-.65.07-.92-.44-1.28-.89C189.48,121.76,190.2,121.47,190.62,121Z"/><path class="cls-4" d="M218,119c.24.31.63.49.7.76s0,.35,0,.39a5.47,5.47,0,0,1-1.34,1.25l-.54-.15c0-.28,0-.58-.06-.92A6.49,6.49,0,0,1,218,119Z"/><path class="cls-4" d="M190.65,111.82c.08.18.15.38.29.73l-1,.71h-.73c-.46-.36-.2-.83-.19-1.27l.68-.67.44.5Z"/><path class="cls-4" d="M185.55,114.74h1.25c.36.35.11.77.21,1.18l-.84.71-.62-1.07Z"/><path class="cls-4" d="M215.56,116.65l.77.67v1c-.15.2-.35.28-.75.22-.17-.17-.44-.43-.69-.7,0,0,0-.15,0-.17C214.87,117.13,215.33,117,215.56,116.65Z"/><path class="cls-4" d="M210.8,117.59c-.24-.31-.62-.5-.71-.75-.07-.65.42-.78.74-1.27.19.37.35.7.52,1S211.07,117.22,210.8,117.59Z"/><path class="cls-4" d="M195.17,101c0-.72.48-.84.71-1.21l.72.76c.08.67-.42.83-.75,1.13C195.62,101.45,195.4,101.22,195.17,101Z"/><path class="cls-4" d="M142.73,119.24l.47.46v.58c-.38.34-.78.11-1.14.19-.2-.14-.31-.33-.19-.81Z"/><path class="cls-4" d="M156.27,122.35v-1.19c.16-.27.4-.2.71-.21l.62.78c0-.1,0,0,0,0C157.26,122,157.05,122.51,156.27,122.35Z"/><path class="cls-4" d="M165.61,127.68h-.48c-.46-.37-.22-.83-.18-1.27.16-.27.42-.14.65-.17A1,1,0,0,1,165.61,127.68Z"/><path class="cls-4" d="M163,122v-.82c.38-.34.79-.11,1.16-.19a.6.6,0,0,1,.15.81C164,122.07,163.56,121.83,163,122Z"/><path class="cls-4" d="M174.84,105.56h-.4l-1-.66.77-.77C174.53,104.52,175.21,104.7,174.84,105.56Z"/><path class="cls-4" d="M155,130.09c-.26-.41-1-.59-.59-1.37l.58-.1A1,1,0,0,1,155,130.09Z"/><path class="cls-4" d="M159.83,140.18c.37.08.77-.14,1.11.15-.05.4-.43.54-.64.82C159.5,141.05,159.48,141,159.83,140.18Z"/><path class="cls-4" d="M194.45,113.74h.47a.57.57,0,0,1,.18.78c-.16.28-.42.15-.64.18A.57.57,0,0,1,194.45,113.74Z"/><path class="cls-4" d="M193.25,119.75v-.47a.57.57,0,0,1,.77-.19c.29.17.16.43.19.65A.57.57,0,0,1,193.25,119.75Z"/><path class="cls-4" d="M176.42,105.8v.47a.59.59,0,0,1-.78.19c-.29-.16-.15-.43-.19-.64A.58.58,0,0,1,176.42,105.8Z"/><path class="cls-4" d="M169,123.36h-.47a.59.59,0,0,1-.19-.78c.16-.29.43-.15.64-.19A.58.58,0,0,1,169,123.36Z"/><path class="cls-4" d="M194,122.87l-.66-.65c.06-.45.41-.27.66-.31A.58.58,0,0,1,194,122.87Z"/><path class="cls-4" d="M160.36,121a.64.64,0,0,1-.21-.85.55.55,0,0,1,.8,0C161,120.57,160.44,120.62,160.36,121Z"/><path class="cls-4" d="M197.89,106.53c.23.44.21.71-.06,1-.16-.16-.33-.3-.48-.47a1.65,1.65,0,0,1-.18-.32,2.78,2.78,0,0,1,.4-.16A1.62,1.62,0,0,1,197.89,106.53Z"/><path class="cls-4" d="M140,131.93c-.26-.17-.13-.42-.17-.63a.57.57,0,0,1,1,0C140.57,131.5,140.41,131.86,140,131.93Z"/><path class="cls-4" d="M186.27,109.88a.59.59,0,0,1-.14-.81.55.55,0,0,1,.79,0C186.84,109.47,186.49,109.62,186.27,109.88Z"/><path class="cls-4" d="M178.1,107a.57.57,0,0,1,0,1A.58.58,0,0,1,178.1,107Z"/><path class="cls-4" d="M160,115.49l-.17.17a1.54,1.54,0,0,1-.15-.32s.1-.11.15-.16Z"/><path class="cls-4" d="M188.13,122.94l.31.17c-.05.06-.12.16-.16.16a1.59,1.59,0,0,1-.32-.16Z"/><path class="cls-4" d="M195.1,130.26l-.17.31c-.05-.06-.16-.12-.15-.16a1.87,1.87,0,0,1,.15-.32Z"/><path class="cls-9" d="M218.91,100.2s0,0,0,0,0,.14,0,.22S218.94,100.26,218.91,100.2Z"/><path class="cls-2" d="M213.85,94.08a.65.65,0,0,0,.2,0Z"/><path class="cls-4" d="M217.22,150.77c.19.24.19.76.47.87-.13-.55.37-.65.28-1.16C217.65,150.24,217.53,150.62,217.22,150.77Z"/><path class="cls-4" d="M218.15,147.9c0,.09,0,.19-.12.18a.43.43,0,0,0,.39.41c0-.13-.06-.31.1-.34.36.21-.09,1.49.35,1.64V149a1.89,1.89,0,0,1-.09-.21.11.11,0,0,0,.09-.05v-.35C218.66,148.16,218.52,147.87,218.15,147.9Z"/><path class="cls-4" d="M215.22,127.41c-.12.63.66,1,.75.66C215.51,128.16,215.69,127.32,215.22,127.41Z"/><path class="cls-4" d="M215.47,123.39c.37-.24.44-.69.61-1.06C215.41,122.34,215.61,123,215.47,123.39Z"/><path class="cls-4" d="M217.11,114.51c0-.72-.42-.81-.68-1.15a.44.44,0,0,1-.41.39c0-.2-.24-.18-.24-.44.51,0,.59-.93.31-1-.08.63-.74,0-.67.75.54-.07.15,1.31-.22,1.47.77.48-.06,1.51.53,2.14A1,1,0,0,1,217,116c-.06-.22,0-.57-.26-.59,0,.37-.36.44-.46.08.7,0,.54-.61,1-.8.29.22-.06.72.47.87C218,114.83,217.49,113.43,217.11,114.51Z"/><path class="cls-4" d="M216.17,106.4c.2-.22.14-.63.33-.85.48-.16.19.75.73.51,0-.39-.34-.29-.29-.75a2.59,2.59,0,0,0-1.14-.12A1.05,1.05,0,0,0,216.17,106.4Z"/><path class="cls-4" d="M215.38,107.33c.48-.06.08.53.73.51-.52,0-.45.33-.54.57.5-.2.35.53.72.51a13.64,13.64,0,0,0,0-2.06c-.45.21-.29.5-.9.32C215.32,107.36,215.23,107.58,215.38,107.33Z"/><path class="cls-4" d="M217,111.19c-.54,0-.52.35-.51.72A.59.59,0,0,0,217,111.19Z"/><path class="cls-4" d="M216.81,112.81c1-1.18-.91-.53,0,0Z"/><path class="cls-4" d="M213.51,101.14c-.3,0-.31.23-.6.26a1.33,1.33,0,0,0,0-1c-.57,0-.92-1-2-.76.06.36-.19.5,0,1,.65.14-.06-.67.36-.7,1.05-.07.62.87,1.35,1.36-1.22-.18-.63,1.17-1.62.76a1.64,1.64,0,0,0,.4,1.36.78.78,0,0,1,.17-.83c.08.34.45.27.83.18C211.74,101.78,213.61,101.87,213.51,101.14Z"/><path class="cls-4" d="M213.28,102.61c0,.55.64.46.83.17C214.18,102.24,213.59,102.63,213.28,102.61Z"/><path class="cls-4" d="M210.45,95.47c.39,0,.44-.33.54-.58-.65.7-1.88-.42-2.76.64.28.55,0,.73.47.88a1.24,1.24,0,0,1,.23-.52c.42,0,.62.4.65,1,.56,0,.78-.27.85-.63-.38.09-.74.16-.83-.17.17-.62-.13-.23-.29-.75.2,0,.18-.23.44-.23S210,95.69,210.45,95.47Z"/><path class="cls-4" d="M216.09,95.91a.56.56,0,0,1,.63-.28,6.66,6.66,0,0,0-2.67-1.5.65.65,0,0,1-.2,0,6.48,6.48,0,0,0-1-.17s0,0,0,0A1.19,1.19,0,0,1,212,95c-.16-.41-.32-.78-.44-1.14l-.58,0c0,.12,0,.23-.07.35.33.17.83.68.52,1.18.19,0,.37,0,.36.25.39,0,.29-.34.75-.28.42.28.05.61.19,1.07.54,0,.15-.61.51-.72.28.18.26.78.75.66-.28-.83,0-1.23.71-1.39.12.28.4.33.45.72a1.06,1.06,0,0,1-.8,0c-.09.7.76.06.75.66-.47.16-.5-.46-.8,0,0,.64.81.13,1,.46-.2,0-.09.29-.25.36a1.39,1.39,0,0,0-1.29-.09c0,.74.49-.2.52.22-.22.12-.35.3-.57.42a1.24,1.24,0,0,1-.21-1.24c-.26.14-.63.2-.72.45a1.07,1.07,0,0,1,.52.23c-.25.14.14.73-.18.82-.38-.44-.58-.06-.74.29a4.42,4.42,0,0,0-1.35-.4c.27-.39.46,0,.93-.16,0-.51-.37-.43-.14-.78a2.68,2.68,0,0,0-1.13-.12c-.5,1.55,1.37,1.36,1.75,2.72.57-.17.78.18,1.16.28-.49-.39.13-.93.54-.57s-.18.42-.21.67c.2,0,.38,0,.37.25.54-.11.46-.67,1.15-.67-.22.62.43.34.37,1.2.46,0,.42-.43.87-.47-.21.39-.27.9-.58,1.22.53.37,0,1.86,0,2.7,1.41-.86,0-3.86,1.91-3.67a1.07,1.07,0,0,1,.23-.52.78.78,0,0,1,.62.17,6.41,6.41,0,0,0-.11-.88c0,.16-.08.3-.26.35-.27-.19-.39-.6-.75-.66-.1.25,0,.62-.54.57.09-.3.44-.57-.1-.62-.07.24-.28,1.06-.51.73.43-.92-.62-1.83-.1-2.37.52.16.63,0,1,.14-.72.12.68.84.09,1.42.36-.07.5.19.95,0,.15-.39-.5-.51-.1-.61h0a6.57,6.57,0,0,0-1.26-2.1A9.32,9.32,0,0,1,216.09,95.91Zm-2.89-1.08c-.14,0-.13.08-.13.18-.39-.07.26-.53.54-.57,0,.2.07.41.11.61C213.42,95.16,213.23,95.11,213.2,94.83Zm1.63,3.85c.06-.61-.46-.37-.47-.87.55-.09.55.63,1.19.43C215.6,98.87,215.14,98.3,214.83,98.68Z"/><path class="cls-4" d="M218.87,100.38c-.17.2-.62.35-.16.49l.16-.2v-.29Z"/><path class="cls-4" d="M217.75,155.6c.59.6.32.81,1,1.26,0-.6-.32-.71-.37-1.21.31,0,.27-.26.41-.39a4.23,4.23,0,0,0,.07.57v-1.15a.26.26,0,0,0-.18,0A1.33,1.33,0,0,1,217.75,155.6Z"/><path class="cls-4" d="M218.45,153.26c0-.13.1-.21.28-.21.07-.44-.54-.87-.57-.54C218.74,152.51,217.93,153.3,218.45,153.26Z"/><path class="cls-4" d="M217.37,147.08c.24.24.19.89.5,1-.26-.55.31-.51.15-1C217.74,147.21,217.65,147,217.37,147.08Z"/><path class="cls-4" d="M218.61,150.52c-.12-.51-.5-.91-.06-1.26-.11-.3-.64-1-.75-.66.86.69,0,2.79.28,3.45.15-.51.51-.17.79-.4V150h0C218.87,150.25,219,150.54,218.61,150.52Z"/><path class="cls-4" d="M218.87,104.77v-1.66a3.57,3.57,0,0,1-.44,1.62A1,1,0,0,1,218.87,104.77Z"/><path class="cls-4" d="M217.55,107.91c.36-.23.66.57.8,0C218.14,107.7,217.61,107.26,217.55,107.91Z"/><path class="cls-4" d="M217.85,106.9c.75.12.17-.69.67-.75.06.1.21.08.35.07v-.62C218.48,106,217.92,106.28,217.85,106.9Z"/><path class="cls-4" d="M217.84,143.34c-.49.4.94.94.82.17C218.11,143.45,218.21,143.66,217.84,143.34Z"/><path class="cls-4" d="M218.24,145.66c0,.27.29.74-.2.67,0-.38-.06-1.2-.55-1.34.32.55-.37.37-.18.83.72,0,.46.46.5,1,.33.24.88-.06,1.05-.34C218.64,146.52,218.88,145.53,218.24,145.66Z"/><path class="cls-4" d="M218,102.26c.59-.08.66-.53.61-1.06C218.24,101.44,218.17,101.89,218,102.26Z"/><path class="cls-4" d="M218.53,136.38c.13.36-.22.38,0,.79a.51.51,0,0,1,.36,0V137C218.76,136.77,219,136.34,218.53,136.38Z"/><path class="cls-4" d="M217.38,154.4c.15.3,0,1,.34,1,.14-.46-.21-1,.4-1.34a.5.5,0,0,0,.29.74,1.33,1.33,0,0,1,0-.95c-.58.24-.62-.28-1-.3C216.89,154.05,218.17,154.67,217.38,154.4Z"/><path class="cls-4" d="M218.92,157.68v-.05h0Z"/><path class="cls-4" d="M214.64,101.26c.06.36.13.72.19,1.08C215.57,102.33,215,101.33,214.64,101.26Z"/><path class="cls-4" d="M215.59,104.91c-.33-1,.25-2.08-.14-2.68-.39.36,0,1.27-.35,1.65-.1-.25-.33-.66-.16-.92.09,0,.17-.06.12-.19-.76.42-.09,1.84-.52,2.48C215,105.56,214.88,104.81,215.59,104.91Z"/><path class="cls-4" d="M217.11,121.83c-1.15.47.72,1.46-.48,1.83.58.15,1.24.17,1.81.32-.18-.47.21-.53-.13-.77-.39,0-.29.34-.75.29C217.73,122.85,216.48,122.65,217.11,121.83Z"/><path class="cls-4" d="M218.57,137.48c-.12.61.61.9-.07,1.45a1.76,1.76,0,0,0,.37,0v-1.45A.48.48,0,0,0,218.57,137.48Z"/><path class="cls-4" d="M218.1,112.9a1.75,1.75,0,0,0,.09,1.42c.3,0,.31-.23.59-.26a.57.57,0,0,0,.09.26v-1.39C218.49,113.1,218.45,112.78,218.1,112.9Z"/><path class="cls-4" d="M218.87,123.78v-.25a1.65,1.65,0,0,1-.15.25A.74.74,0,0,1,218.87,123.78Z"/><path class="cls-4" d="M218.15,109.55a.73.73,0,0,0-.56.42c1.09-.15.15.77,1.14,1.08a.58.58,0,0,1,.14-.17V110c-.28,0-.2.11-.58.32A.59.59,0,0,0,218.15,109.55Z"/><path class="cls-4" d="M218.87,135.76v-.55c-.12,0-.26,0-.37.06C218.46,135.66,218.66,135.71,218.87,135.76Z"/><path class="cls-4" d="M218.23,116.38c-.65.34-.49-.45-1-.3a1.37,1.37,0,0,0,1.12.92c.29-.07,0-.53.38-.54a.66.66,0,0,0,.15.14v-1.86C218.18,115.11,218.28,115.75,218.23,116.38Z"/><path class="cls-4" d="M218,117.86c.32.08.53.33.86.4v-1.08A1.37,1.37,0,0,0,218,117.86Z"/><path class="cls-4" d="M218.83,107.05s0,0,0,0v-.37C218.79,106.79,218.75,106.88,218.83,107.05Z"/><path class="cls-4" d="M218.92,129.5v0h0Z"/><path class="cls-9" d="M218.53,386.66a.85.85,0,0,0,.13-.57,4.44,4.44,0,0,1-.19.62C218.58,386.84,218.73,386.87,218.53,386.66Z"/><path class="cls-9" d="M218.84,385.78a.38.38,0,0,0-.1,0s0,.08,0,.12A.41.41,0,0,1,218.84,385.78Z"/><path class="cls-1" d="M216.53,381.11c-.11.71-.49.6-.55.14.23.52-1,1.39-.14,1.78.42-.72.73-1.38.91-.67C217.06,381.85,217.31,381.38,216.53,381.11Z"/><path class="cls-1" d="M217.49,382.62c-.07.41-.83.65-.53,1,.1-.48.56-.39.7-.08C217.78,383.14,217.91,382.75,217.49,382.62Z"/><path class="cls-1" d="M217.79,386.4c-.36-.15-.71-.29-.85,0,.78,0-.55.95.09.69.07-.27.27-.29.55-.13a3.83,3.83,0,0,0-.36,1.85,6.55,6.55,0,0,0,1.11-1.76c-.22.12-.39.34-.71.26C217.89,386.92,217.66,386.74,217.79,386.4Z"/><path class="cls-1" d="M218.09,382.34a2.91,2.91,0,0,0,.07,1.19c.21-.74.49-.56.71-.23v-1C218.58,382.43,218.52,382.94,218.09,382.34Z"/><path class="cls-1" d="M216.28,383.19c-.36-.15-1,.48-.76.72.15-.37.65,0,.8-.37A.24.24,0,0,1,216.28,383.19Z"/><path class="cls-1" d="M218.87,379.89v-.29a1.13,1.13,0,0,1-.08.33Z"/><path class="cls-1" d="M218.72,385.87s0-.08,0-.12c-.32-.06-.44.32-.7.41.19.13.19.26.44.16a.27.27,0,0,0,0,.39,4.44,4.44,0,0,0,.19-.62A.32.32,0,0,1,218.72,385.87Z"/><path class="cls-7" d="M130.43,317.84l-.73.72v2.27c-.14.38-.49.41-.34.73l.64.59c.35-.71,1-.36,1.34-.49l.78-.68v-.75A5.23,5.23,0,0,0,130.43,317.84Z"/><path class="cls-7" d="M101.36,302.47c0,.83,0,1.46,0,2.09,0,.06.09.12.13.18a1.89,1.89,0,0,1,.64.17c.25.16.4.48.74.41l1.37-.73v-1.45l-.72-.67Z"/><path class="cls-7" d="M106.32,303.31l1-.67c-.39-.59.13-1.19-.4-1.64-.37.05-.77-.15-1.16.17v1.55Z"/><path class="cls-7" d="M141.11,325.9c.58-.42.71-1.11,1-1.68-.34-.3-.75-.08-1.13-.14-.22.32-.66.46-.73,1.13C140.56,325.48,140.72,325.84,141.11,325.9Z"/><path class="cls-7" d="M105.28,304c-.06.44-.26.9.16,1.28H106c.15-.42,1-.54.49-1.45C106,304,105.62,303.72,105.28,304Z"/><path class="cls-7" d="M121.83,325.07h-1.24v.67c.43.32.68,1.17,1.5.46C121.89,325.86,122.23,325.43,121.83,325.07Z"/><path class="cls-7" d="M100.07,306.67c1,.1,1,.1,1.26-.13,0-.15,0-.3,0-.53l-.79-.63C100.29,305.77,99.61,306,100.07,306.67Z"/><path class="cls-7" d="M107.37,328.4c.21,0,.48.1.68-.23v-1.25c-.42.07-.68-.06-.85.2C107.15,327.56,106.93,328,107.37,328.4Z"/><path class="cls-7" d="M116.74,325.77c.09.37-.16.78.16,1.11a.58.58,0,0,0,.8-.18v-.95A.56.56,0,0,0,116.74,325.77Z"/><path class="cls-7" d="M161,378.23l.66.66a.57.57,0,0,0,0-1C161.45,378,161.1,377.78,161,378.23Z"/><path class="cls-7" d="M98.57,313.62l.57.91c.38-.41.36-.68.16-.94S98.72,313.45,98.57,313.62Z"/><path class="cls-7" d="M144.11,307c.44.31.75.45.94-.07C144.77,306.67,144.51,306.69,144.11,307Z"/><path class="cls-7" d="M126.58,308.22c-.21,0-.47-.12-.65.2.19.39.45.24.67.26.05,0,.16-.12.15-.16S126.65,308.22,126.58,308.22Z"/><path class="cls-7" d="M196.87,334.11c.26-.28.25-.55-.07-.94C196.49,333.61,196.35,333.91,196.87,334.11Z"/><path class="cls-7" d="M144.24,319.59s.1.1.15.15l.17-.31-.17-.17A1.4,1.4,0,0,0,144.24,319.59Z"/><path class="cls-7" d="M114.66,316.47a1,1,0,0,0-.32.15c0,.05.12.16.16.15a2.3,2.3,0,0,0,.32-.15C114.77,316.56,114.7,316.46,114.66,316.47Z"/><path class="cls-7" d="M153.66,360.81l.36.73c.27-.1.58-.15.75-.43l-.85-1.05Z"/><path class="cls-7" d="M159,373.65c-.5-.44-.83.05-1.21.2-.17.51-.35,1-.52,1.51-.09.26,0-.06.1.21l1.32.45c.38-.49.09-.76,0-1.06C158.75,374.52,159.09,374.14,159,373.65Z"/><path class="cls-7" d="M157.36,363.16l0,0-1.13.22c-.07.44-.37.72-.13,1.06l.05,0,1.12-.22C157.31,363.77,157.6,363.5,157.36,363.16Z"/><path class="cls-7" d="M156.12,364.44Z"/><path class="cls-7" d="M156.11,364.44h0Z"/><path class="cls-7" d="M151.39,360.66c-.26,0-.34.21-.45.58l.39.51.72-.12c.2-.39.17-.56,0-.72Z"/><path class="cls-7" d="M140.36,360.76c-.1.29-.14.41-.19.54.16.24.18.58.42.71l.74-.29c0-.22.2-.39,0-.62Z"/><path class="cls-7" d="M141.94,349.84l-.09.69c.42.05.68.35,1.07.18l.16-.46c-.12-.26-.24-.5-.28-.58Z"/><path class="cls-7" d="M148.59,356.26l-.41-.14c-.45.18-.4.61-.46.91.11.29.21.53.4,1C148.36,357.32,148.74,356.88,148.59,356.26Z"/><path class="cls-7" d="M146.73,363.56l-.21.61c.35.07.52.24.74.06a.49.49,0,0,0,.08-.67C147.16,363.53,147,363.36,146.73,363.56Z"/><path class="cls-7" d="M148.14,360.63c0,.12-.09.25-.13.37a.48.48,0,0,0,.77.26c0-.18.21-.36,0-.56A.48.48,0,0,0,148.14,360.63Z"/><path class="cls-7" d="M162.08,374.91c.26.18.18.58.56.74l.26-.47C162.73,374.79,162.48,374.7,162.08,374.91Z"/><path class="cls-7" d="M161.26,377a1.34,1.34,0,0,0-.26-.08,2.17,2.17,0,0,0-.36,0,2.68,2.68,0,0,0,.05.3c.08.18.17.34.26.51C161.23,377.59,161.32,377.38,161.26,377Z"/><path class="cls-7" d="M120.27,350.65c.15.28.37.34.77.2C120.78,350.48,120.57,350.29,120.27,350.65Z"/><path class="cls-7" d="M115.4,347.2c-.07.17-.22.35,0,.58.37,0,.32-.3.39-.46l-.08-.17C115.59,347.15,115.43,347.15,115.4,347.2Z"/><path class="cls-7" d="M161.45,375.45c-.16-.28-.37-.34-.77-.2C160.94,375.62,161.14,375.81,161.45,375.45Z"/><path class="cls-7" d="M142.49,352.3s0,.11.08.17l.22-.2-.09-.18A1.39,1.39,0,0,0,142.49,352.3Z"/><path class="cls-7" d="M215.56,378.26c-.67.14.14,1.32-.42.69,0,.33-.53.9-.22,1.08.35-.33.3-1,1-1a.5.5,0,0,0-.11.79c.11-.36.23-.71.46-.83C215.66,379,215.89,378.48,215.56,378.26Z"/><path class="cls-7" d="M216.76,377.7c.5.28-.59.56-.12.79.07-.11.19-.13.35,0C217.26,378.1,217,377.42,216.76,377.7Z"/><path class="cls-7" d="M216.81,375.72c0,.3-.22.75,0,1,.16-.55.64-.39.82-.88C217.44,375.47,217.14,375.74,216.81,375.72Z"/><path class="cls-7" d="M218.87,374.18v-.39h0A.4.4,0,0,0,218.87,374.18Z"/><path class="cls-7" d="M215.08,389.75c-.41,1-.74-.22-.83-.46-.08.87-.68.64-.92,1.17.29.06.26.28.53.36.18-.23.14-.94.47-.84-.06.3.2.45.32.67l.42-.19A1.3,1.3,0,0,0,215.08,389.75Z"/><path class="cls-7" d="M218.69,373.73a.43.43,0,0,1,.18-.37v-.72l-.1-.05C218.85,372.92,218.49,373.46,218.69,373.73Z"/><path class="cls-7" d="M218.87,379.48v0Z"/><path class="cls-7" d="M218.72,385.87a.32.32,0,0,0-.06.22Z"/><path class="cls-7" d="M217.5,379.8c0-.58.34-.6,0-1,.62.2.06-.09.1-.3.3-.14.86.26,1-.32-.4-.34-.44.1-.69.08.16-.78.49-1.21,1-1.32-.6-.12.18-.9-.27-1.09-.1.22-.16.52-.45.33.14-.5,0-1,.57-1.12,0-.32-.06-1.19-.33-.95.4,1-1.34,2.45-1.46,3.13.41-.4.54.22,1,0-.56,1.68-.75,2.11-1.5,2.79.26.16.61.28.43.65-.22.15-.57,0-.75.23.12-.42.49-1,.07-1.14a1.31,1.31,0,0,1-1.29.37c.22.81-.12.86.26,1.59.31-.51.07-.77.27-1.23.28.15.37-.09.55-.14a18.28,18.28,0,0,0-.65,2.27l-.44-.16c.15.94-.51.94-.34,1.88-.25,0-.16-.71-.39-.31.08.51.3.29.83.46.4-.4-.5-.8.17-.93.8,1,1.24,3.62-.4,4.35,0-.38-.48.17-.51.48.73.44.71-.74,1.44-.31-.07.46-.79.89-.57,1.13.5-.47.8,0,1.45-.31a.69.69,0,0,0,0,.49c-.21-.35-.2-.05-.6-.21a3.58,3.58,0,0,0-.1.81,6.63,6.63,0,0,0,1.39-1.2,3.83,3.83,0,0,1,.36-1.85c-.28-.16-.48-.14-.55.13-.64.26.69-.67-.09-.69.14-.32.49-.18.85,0-.13.34.1.52-.17.94.32.08.49-.14.71-.26,0-.12.1-.25.14-.37a.27.27,0,0,1,0-.39c-.25.1-.25,0-.44-.16.26-.09.38-.47.7-.41a6.69,6.69,0,0,0,.13-1.28V383.3c-.22-.33-.5-.51-.71.23a2.91,2.91,0,0,1-.07-1.19c.43.6.49.09.78-.07v-2.38l-.08,0a1.13,1.13,0,0,0,.08-.33v-.12a2.46,2.46,0,0,0-.44-.85A7.61,7.61,0,0,0,217.5,379.8Zm-2,4.11c-.23-.24.4-.87.76-.72a.24.24,0,0,0,0,.35C216.17,383.91,215.67,383.54,215.52,383.91Zm1.23-1.55c-.18-.71-.49-.05-.91.67-.91-.39.37-1.26.14-1.78.06.46.44.57.55-.14C217.31,381.38,217.06,381.85,216.75,382.36Zm.91,1.16c-.14-.31-.6-.4-.7.08-.3-.33.46-.57.53-1C217.91,382.75,217.78,383.14,217.66,383.52Z"/><path class="cls-7" d="M218.79,375.76s.05,0,.08-.06V375C218.67,375.32,218.52,375.62,218.79,375.76Z"/><path class="cls-7" d="M218.81,378.94l.06-.05v-.75A.72.72,0,0,0,218.81,378.94Z"/><g class="cls-10"><path class="cls-11" d="M273.26,46.25l-.84-.84c0-.36.32-.44.47-.67l.66,0,.52.51C273.94,45.69,273.58,45.86,273.26,46.25Z"/><path class="cls-11" d="M278.11,44.65l1.06,1.06c.06.22-.11.3-.24.45l-.72-.07-.48-.43c0-.17.11-.43.2-.84C277.86,44.9,277.94,44.82,278.11,44.65Z"/><path class="cls-11" d="M254.79,50.66l-.54-.55c0-.24,0-.24.53-.7.32,0,.4.32.62.46C255.44,50.37,255,50.38,254.79,50.66Z"/><path class="cls-11" d="M263.57,52l-.47-.46c0-.32.13-.47.46-.47l.45,0,.26.25A.71.71,0,0,1,263.57,52Z"/><path class="cls-11" d="M284.52,50.6c.05.26-.13.32-.23.44-.51-.1-.7-.54-1.07-.93H284l.49.49"/><path class="cls-11" d="M277.89,51.81l-.39.4c-.35,0-.44-.33-.65-.47a.4.4,0,0,1,.32-.47C277.47,51.29,277.56,51.6,277.89,51.81Z"/><path class="cls-11" d="M280.69,48.17l.39-.4c.35,0,.44.33.66.47a.41.41,0,0,1-.31.47C281.11,48.7,281,48.38,280.69,48.17Z"/><path class="cls-11" d="M256.22,48.32l-.37.37c-.26.06-.32-.12-.44-.21a.4.4,0,0,1,.29-.47C255.92,48,256,48.15,256.22,48.32Z"/><path class="cls-11" d="M262.63,54.07l.23-.23a.38.38,0,0,1,.46.28c.07.23-.13.29-.22.41C262.77,54.55,262.62,54.39,262.63,54.07Z"/><path class="cls-11" d="M270.32,48.9a.43.43,0,0,1-.32.51c-.23,0-.35-.14-.39-.38C269.83,48.82,270.1,49,270.32,48.9Z"/><path class="cls-11" d="M269.62,47.78a.41.41,0,0,1-.32.47.38.38,0,0,1-.38-.39C269.14,47.71,269.39,47.81,269.62,47.78Z"/><path class="cls-11" d="M279.16,52.44h.65c.19.24-.07.32-.17.46C279.31,52.92,279.18,52.74,279.16,52.44Z"/><path class="cls-11" d="M277.31,55a.4.4,0,0,1-.32.46.36.36,0,0,1-.38-.39C276.83,54.93,277.08,55,277.31,55Z"/><path class="cls-11" d="M270.28,55.7a.43.43,0,0,1,.51.32c0,.23-.14.35-.38.39C270.2,56.19,270.42,55.92,270.28,55.7Z"/><path class="cls-11" d="M251.43,42.86c.34,0,.48.16.49.43C251.57,43.44,251.49,43.23,251.43,42.86Z"/><path class="cls-11" d="M255.62,43.6c0-.34.16-.48.42-.49C256.2,43.46,256,43.54,255.62,43.6Z"/><path class="cls-11" d="M270.77,51.29c0-.34.16-.48.42-.49C271.35,51.15,271.13,51.23,270.77,51.29Z"/><path class="cls-11" d="M283.14,49.64a.4.4,0,0,1-.47.47C282.66,49.78,282.81,49.63,283.14,49.64Z"/><path class="cls-11" d="M278.69,44.3c0-.35.16-.48.42-.49C279.27,44.16,279.05,44.24,278.69,44.3Z"/><path class="cls-11" d="M272.65,53.83a.9.9,0,0,1-.23-.08s0-.1,0-.15a.92.92,0,0,1,.23.09S272.65,53.78,272.65,53.83Z"/><path class="cls-11" d="M272.19,50.11A.79.79,0,0,1,272,50s0-.1,0-.15a.92.92,0,0,1,.23.09S272.19,50.05,272.19,50.11Z"/><path class="cls-11" d="M264.73,55.23a.9.9,0,0,1-.23-.08s0-.1,0-.15a1.43,1.43,0,0,1,.22.08S264.73,55.18,264.73,55.23Z"/><path class="cls-11" d="M264.89,1.94c.14.14.74.09.69-.32-.15-.18-.49-.15-.59-.39C265.07,1.57,264.75,1.55,264.89,1.94Z"/><path class="cls-11" d="M258.68,4.16c.14-.37.53-.51.5-1-.2-.19-.62-.1-1-.08C258,3.49,258.34,3.88,258.68,4.16Z"/><path class="cls-11" d="M261.54,2.57c.52.1.08-.64.53-.6a1.07,1.07,0,0,1,.44.26,1.17,1.17,0,0,0,.19.83c-.09.24-.69,0-.53.46l.7,0c-.09-.44.08-.64.53-.6-.26-1-1.13-1.26-1.81-1.76l-.12,0c0,.27-.37.21-.26.58C261.9,1.7,261.1,2.4,261.54,2.57Z"/><path class="cls-11" d="M257.29,2.74c-.4.18-.79.38-1.18.58.3.41.8.4,1.27.49.24.61-.45.4-.37.87a1.25,1.25,0,0,0,.94-.9c0-.27-.47-.07-.45-.4.38-.19.39-.72.64-1,.19,0,.15.24.3.27a4,4,0,0,1,.11-.44l-.83.36C257.68,2.79,257.51,2.79,257.29,2.74Z"/><path class="cls-11" d="M264.85,3.5c0-.23,0-.47-.05-.7l-.56,0c.09,1-.65.52-1.24.5.16.28.64.41,1,.78C264,3.66,264.32,3.48,264.85,3.5Z"/><path class="cls-11" d="M264.81.54c.13,0,.24-.06.31-.2l-.43.07A.68.68,0,0,0,264.81.54Z"/><path class="cls-11" d="M255.54,3.64h0l-.07,0Z"/><path class="cls-11" d="M263.72,6c.19-.5.28-1.09.47-1.59-.44.12-.45-.23-.7,0,0,.34.28.29.18.69-.56-.22-.87.88-1.53.24C262.44,6.44,263.51,4.86,263.72,6Z"/><path class="cls-11" d="M266.58,1.84c0,.45.59.24.74.52C267.38,1.82,266.93,1.46,266.58,1.84Z"/><path class="cls-11" d="M268.18.33c0-.09,0-.19,0-.29h-.36C267.86.23,267.91.41,268.18.33Z"/><path class="cls-11" d="M282.62,5.67l.42,0c-.09-.4-.21-.77-.61-.81,0,.28.2.27.31.41C282.57,5.27,282.6,5.47,282.62,5.67Z"/><path class="cls-11" d="M283.58,7.58c.06-.64.47-.35,1-.34.24-.27,0-.79-.2-1,0,.2-.87-.12-.82.47.25,0,.7-.18.58.25-.33-.07-1.08-.07-1.25.36C283.38,7.11,283.16,7.71,283.58,7.58Z"/><path class="cls-11" d="M270.49,1.18l0-.56-.56,0C269.75,1.22,270.3,1,270.49,1.18Z"/><path class="cls-11" d="M289,7.53q-.63-.57-1.29-1.11c-.12,0-.21.09-.21.22.22,0,.49,0,.44.26-.47.06-.87.35-1.14-.08-.28.08-.95.48-.66.61C286.75,6.81,288.24,7.48,289,7.53Z"/><path class="cls-11" d="M284.28,5.14c0,.38.26.27,0,.56h.28C284.93,5.58,284.63,5,284.28,5.14Z"/><path class="cls-11" d="M286.08,6.87c-.11,0-.28,0-.29-.13.24-.32,1.5.33,1.54-.23-.28-.26-.67,0-1,.06,0-.14-.13-.16-.16-.27s.28,0,.27-.16c-.19,0-.14-.24-.3-.27.16.72-.61.62-.63,1.17.08,0,.17,0,.15.13A.38.38,0,0,0,286.08,6.87Z"/><path class="cls-11" d="M279.07,1.63c-.27-.1-.55-.18-.82-.27a.45.45,0,0,1-.12.06c-.11-.18-.37.1-.71-.09a1.13,1.13,0,0,0,.33.82c.14-.6.58,0,1-.06,0-.72-.49,0-.45-.54A.92.92,0,0,0,279.07,1.63Z"/><path class="cls-11" d="M284.83,7.08c0,.27-.15.32-.11.58.24-.19.81-.08,1-.35C285.17,7.5,285.26,7,284.83,7.08Z"/><path class="cls-11" d="M286.16,5.27l-1-.65c.12.21.16.36.36.73A.82.82,0,0,1,286.16,5.27Z"/><path class="cls-11" d="M288,8.16c.23-.14.7-.09.82-.33-.5.07-.54-.39-1-.36C287.57,7.73,287.9,7.88,288,8.16Z"/><path class="cls-11" d="M281.42,6.87c.31.47.94-.75.24-.72C281.55,6.64,281.75,6.57,281.42,6.87Z"/><path class="cls-11" d="M271.86,2.79a1,1,0,0,1,1.84,0c-.38-.7.5-.81.82-.33a.78.78,0,0,1,1.11-.35,1.44,1.44,0,0,0-.05,1.41c-.45,0-.54.24-.83.34-.22-.16-.37-.39-.73-.38.09.47-.76.1-.95.62,1.51.74,2.95-.7,4.26.45-.15-.67,1.13-.55,1.26-.22-.45,0-.59.27-.67.6.36.2.61.52,1.16.5,0-.17-.05-.4.11-.43a23.54,23.54,0,0,0,4.34-.69,1.71,1.71,0,0,1-.34,1.43c.27,0-.06.24.16.27,0-.3.49-.09.69-.18.38-.57-.58-1.2-.11-1.83.34.08.41.45.74.52a1.24,1.24,0,0,1,.1-.2,28.5,28.5,0,0,0-2.72-1.49c-.43,0-.63-.16-.71.34-.09,0-.56-.31-.56,0a1.06,1.06,0,0,1-.31-.41c-.34,0-.29.28-.69.18,0,.13.06.13.15.14-.41.34-.3-.66.39-.45a3,3,0,0,0-.39-.75l-.41-.16a2.33,2.33,0,0,1,.06.25c-.6-.32-.6.72-1.09.56,0,.32,0,.61-.25.65-1.34-.74-1,.76-2.36.71,0-.83-.3-1.73.28-2.42.14.35.73.63,1,.36-.19-.74-1.27-.18-1.58-.46-.15-.65.52-.23.54-.46a.39.39,0,0,1-.23-.26l-.53-.11c-.36.12,0,.83-.34,1-.39-.11-.67-.18-.83.19-.05-.26.14-.32.11-.57-.39.14-.38-.18-.72-.1,0,.21.09.52-.1.57-1-.54-3.19,1.12-3-.38-.24.14-.7.09-.83.33.86-.15,0,1.38-.51.88-.17.39.33.48.07,1.13l.56,0a1.9,1.9,0,0,1,.23-1C270.82,2.77,271.13,2.62,271.86,2.79Zm10.62.63c.28-.33.46,0,.72.09C283.24,3.74,282.29,3.85,282.48,3.42Zm-1.76,1.09c.11-.62-.51-.43-.48-1,.62,0,.74,1.25,1.29.49-.14-.4-.22-.15-.57-.11.23-.67.59-.18,1-.2-.46.32-.08.3,0,.7-.84.08-1.48.45-2.26,0C279.93,4,280.49,4.45,280.72,4.51Z"/><path class="cls-11" d="M278.42,2.57a.88.88,0,0,1-.23-.16C278.2,2.64,278.29,2.68,278.42,2.57Z"/><path class="cls-11" d="M278.42,2.57l.07,0a.17.17,0,0,1,0-.07Z"/><path class="cls-11" d="M276.37,5.06c.05.26-.14.32-.1.57.52.16.86-.46,1.28.2a2.86,2.86,0,0,0,.08-1C276.72,4.53,276.82,5.74,276.37,5.06Z"/><path class="cls-11" d="M272.07,3.91c0,.46.21.66.6.67C272.75,4,272.47,3.9,272.07,3.91Z"/><path class="cls-11" d="M270.5,3.72c.05.26-.13.32-.1.57.64,0,.56.09,1.12-.07l0-.56C271,3.57,270.83,4,270.5,3.72Z"/><path class="cls-11" d="M274.08,4.49a.65.65,0,0,1-.12.43c.42-.17.27.3.32.55.46.09.43-.25.54-.46-.1-.19-.54,0-.58-.25C274.2,4.66,274.22,4.49,274.08,4.49Z"/><path class="cls-11" d="M267.06,2.8c-.48.25-.11-.47-.45-.4.06.55-.35,1.37,0,1.7A3,3,0,0,1,267.06,2.8Z"/><path class="cls-11" d="M275.94,4.94c.09.78-.65,0-.67.61.34-.08.33.24.71.1C275.89,5.4,276.36,5,275.94,4.94Z"/><path class="cls-11" d="M268.75,2.7c-.13-.46-.61-.52-1.16-.5l0,.56C268.13,2.63,268.43,3.07,268.75,2.7Z"/><path class="cls-11" d="M270.91,1c.3,1,.78-.33.81-.92h-.13c-.19.38-.5.15-.6.08C271.09.39,271.43,1.41,270.91,1Z"/><path class="cls-11" d="M269.37,1.25c-.42.12-.8.27-.8.75A1.72,1.72,0,0,0,269.37,1.25Z"/><path class="cls-11" d="M267.6,7c0,.43-.7.18-.67.61C267.48,7.78,267.86,7.12,267.6,7Z"/><path class="cls-11" d="M281.38,2.55l-.12,0a.78.78,0,0,1,.05.14Z"/><path class="cls-11" d="M254.13,6c0-.49,1.18,0,1.29.34.5-.64,1.33.21,2-.26a.9.9,0,0,1-.5-1.24c-.21,0-.52,0-.55.17.33,0,.35.37,0,.43.07-.63-.49-.55-.62-.95.22-.24.64.13.83-.34-.59-.26-1.89,0-1,.49-.65-.09-.77.29-1.1.49a.38.38,0,0,1,.31.4c-.18,0-.19.19-.42.17.08-.45-.77-.62-.87-.37C254.08,5.45,253.46,6,254.13,6Z"/><path class="cls-11" d="M262.48,6.33c-.05.6.54.48.88.65C263.19,6.63,262.79,6.52,262.48,6.33Z"/><path class="cls-11" d="M254.05,4.72l-.13-.12-.34.22C253.68,4.94,253.86,5,254.05,4.72Z"/><path class="cls-11" d="M269.25,3.94c0,.19-.19.28-.11.57l.84,0C269.91,4.09,269.59,4,269.25,3.94Z"/></g><path class="cls-12" d="M22.15,125.13a17.94,17.94,0,1,0,13.24,21.65,17.95,17.95,0,0,0-13.24-21.65"/><g class="cls-10"><path class="cls-11" d="M15.18,131c-.64.08-1.21-.39-1.91-.16,0,.23.11.59,0,.77a1.31,1.31,0,0,0-.19.82,1.1,1.1,0,0,0,.52.48c.23-.05.06-.23.18-.46l.58-.57c.18-.07.5,0,.7-.25.37.11.52-.2.75-.39l.07-.67C15.45,130.52,15.38,130.82,15.18,131Z"/><path class="cls-11" d="M22.93,126.74l-.14,1c.16.22.29.26.44.22l.2-.2-.3-.94Z"/><path class="cls-11" d="M7.7,139.67c.24.31.35.6.73.59l0-1s-.05,0-.09-.06C8,139.23,8,139.5,7.7,139.67Z"/><path class="cls-11" d="M6.5,138.78l.2-.21a.36.36,0,0,0-.26-.43.77.77,0,0,0-.58.55C6.06,138.85,6.29,138.74,6.5,138.78Z"/><path class="cls-11" d="M5.93,136c-.66,0-.84.25-.92.62C5.42,136.69,5.51,136.3,5.93,136Z"/><path class="cls-11" d="M16.48,133.82l-.22-.33c-.32,0-.46.12-.45.41C16,133.88,16.25,134,16.48,133.82Z"/><path class="cls-11" d="M7.56,151.65a.39.39,0,0,0,.29.46c.21,0,.32-.13.35-.35C8,151.57,7.76,151.78,7.56,151.65Z"/><path class="cls-11" d="M4.2,140.23c-.09-.3-.22-.41-.44-.39,0,.13,0,.27,0,.41a.81.81,0,0,0,.07.22l.24-.1S4.13,140.3,4.2,140.23Z"/><path class="cls-11" d="M5.76,136.13c.34.09.34.09.53-.28C6,135.7,5.93,136,5.76,136.13Z"/><path class="cls-11" d="M10.2,133c.18.1.23.43.53.28C10.54,132.87,10.54,132.87,10.2,133Z"/><path class="cls-11" d="M17.05,140.69c-.22-.06-.29.1-.38.2s0,.15.06.21.11,0,.13,0S17.13,141,17.05,140.69Z"/><path class="cls-11" d="M14.83,129.09a.38.38,0,0,0-.49.17s0,.14.06.2a.14.14,0,0,0,.14,0C14.63,129.37,14.7,129.25,14.83,129.09Z"/><path class="cls-11" d="M18.77,125.87a.76.76,0,0,0,.21-.08s0-.08,0-.13l-.2.07S18.77,125.82,18.77,125.87Z"/><path class="cls-11" d="M10.21,133c-.09-.13-.31-.14-.31-.08C9.91,133.22,10.07,133,10.21,133Z"/><path class="cls-11" d="M21.73,129.32l-.21-.06s0,.12,0,.13a1.19,1.19,0,0,0,.2.08Z"/><path class="cls-11" d="M14.18,136h.15a.76.76,0,0,0-.08-.21s-.09,0-.13,0Z"/><path class="cls-11" d="M11.37,146.88l-.22-.06c0,.05,0,.12,0,.13a.76.76,0,0,0,.21.08Z"/></g><circle class="cls-3" cx="104.36" cy="33.35" r="12.78"/><path class="cls-13" d="M92.75,36.55c-.32,0-.56,0-.75,0a12.82,12.82,0,0,0,.49,1.48,3.19,3.19,0,0,0,.26-.26Z"/><path class="cls-13" d="M96.89,42.32h-.52c-.14.15-.29.33-.46.49l0,.07c.33.3.69.58,1,.85A1,1,0,0,0,96.89,42.32Z"/><path class="cls-13" d="M107.07,25.58c-.44-.07-.9-.27-1.29.15v.54c.42.15.55.95,1.46.49C107.14,26.32,107.38,25.91,107.07,25.58Z"/><path class="cls-13" d="M94.56,29.55,93.8,30c-.08.51,0,.69.24.82h.87c.28-.14.31-.36.28-.81Z"/><path class="cls-13" d="M101,40.59a.58.58,0,0,0,.18.77h.47a.56.56,0,0,0,0-1C101.46,40.43,101.2,40.3,101,40.59Z"/><path class="cls-13" d="M101.45,37.27l-.31-.17-.17.17a1.15,1.15,0,0,0,.32.15S101.4,37.33,101.45,37.27Z"/><path class="cls-13" d="M101.54,43.92a2,2,0,0,0,.15.33c.06-.06.16-.12.15-.16a1,1,0,0,0-.15-.32S101.53,43.88,101.54,43.92Z"/></g></g></svg>