<svg xmlns="http://www.w3.org/2000/svg" viewBox="0 0 96.52 85.43"><defs><style>.cls-1{fill:#898d8d;}.cls-2{fill:#f96911;}.cls-3{fill:#10254d;}.cls-4{fill:#c9c9c9;}</style></defs><g id="Layer_2" data-name="Layer 2"><g id="Layer_1-2" data-name="Layer 1"><path id="be59956f-1a58-461c-b1e2-8bcf6da0defc" class="cls-1" d="M95.12,60.9A47,47,0,0,0,75.54,10.4,39.76,39.76,0,0,0,18.17,57.1,32.16,32.16,0,0,1,69.35,24.18a39.71,39.71,0,0,1,12.2,39.36c-.12.5-.25,1-.4,1.48l6.73,11.66A47,47,0,0,0,95.12,60.9"/><path id="f2cc7a01-b974-4a07-ac5d-d9d8f75838e7" class="cls-2" d="M14.78,32.74a39.77,39.77,0,0,1,58.05-25A47,47,0,0,0,10.19,76.23l8.17-15a39.61,39.61,0,0,1-3.58-28.48"/><path id="f9a22896-d420-4950-bc54-ac59db69dcbb" class="cls-1" d="M14.12,80.37,45.43,26.11V45.9L31.21,70.49Z"/><path id="ac0244a0-19f7-4648-9405-5d250af42fd1" class="cls-3" d="M34.67,75.55,17.56,85.43H80.21L63,75.55Z"/><path id="a58ffc52-7f49-4c3a-938b-e4366240b465" class="cls-4" d="M52,26.4,83.31,80.66,66.25,70.81,52,46.08Z"/></g></g></svg>