<svg xmlns="http://www.w3.org/2000/svg" viewBox="0 0 165.07 168.2"><defs><style>.cls-1{fill:#18243e;}</style></defs><title>optimus-icon</title><g id="Layer_2" data-name="Layer 2"><g id="Layer_1-2" data-name="Layer 1"><path class="cls-1" d="M108.44,34.6l20.78-20.78C116.3,5.1,100.44,0,82.51,0,33.64,0,0,37,0,84.1a88.21,88.21,0,0,0,12.63,46.31l21.84-21.84A62.12,62.12,0,0,1,29.55,84.1c0-31.59,22.5-56.37,53-56.37a51.49,51.49,0,0,1,25.93,6.87"/><path class="cls-1" d="M165.06,84.1a87,87,0,0,0-15.14-49.86L128.53,55.63a60.12,60.12,0,0,1,7,28.47c0,32.05-25,56.38-53,56.38a51.69,51.69,0,0,1-29.74-9.13L32.14,152C45.67,162.2,62.85,168.2,82.51,168.2c48.87,0,82.51-37,82.51-84.1"/></g></g></svg>