<svg xmlns="http://www.w3.org/2000/svg" viewBox="0 0 460.05 117.26"><defs><style>.cls-1{fill:#cd1719;}</style></defs><g id="Layer_2" data-name="Layer 2"><g id="Layer_1-2" data-name="Layer 1"><g id="Layer_2-2" data-name="Layer 2"><g id="Layer_1-2-2" data-name="Layer 1-2"><path class="cls-1" d="M460.05,11H399.38l-16.75,95H443.3l2.77-15.83H402.28l4.22-23.76h35.88l2.77-15.83H409.27l4.22-23.75h43.79ZM343.7,106,394,11H374.78l-35,66.76h-.26L328.43,11H310l17.91,95Zm-55.79,0,16.75-95H287.78L271,106ZM266.68,90.19h-43.9l14-79.19H219.85L203.1,106h60.81Zm-72.54-79c2.56,0,4.32.84,7,2.61C200.33,6.08,195,3.21,189.32,3.18c-9.18,0-18.3,6.4-20.7,21.68l-9.39,59.49c-1.38,8.79-7.2,12.28-13.81,12.24-10.79-.06-17.17-9.29-28.9-9.35-10.12-.06-16.8,5.46-18.21,14.38s5.38,15.59,15.5,15.64c9.31,0,15.08-5.74,16.91-9.65a13.63,13.63,0,0,1-6.84,2.27c-3.1,0-5.43-1.52-5-4.09.47-3,3.13-4.45,6.37-4.43,6.2,0,18.9,6.86,28.34,6.91,11.74.06,21.2-5.16,23.83-21.79l10.66-67.61c.89-5.67,3.1-7.69,6.07-7.68M164,24a25.09,25.09,0,0,1,3.6-10c-7.17,3.48-17.9,11.47-20.53,19.58a8.38,8.38,0,0,0-1.87-.15,16,16,0,0,0-16,13.31c-.37,2.3-.28,7.72.63,8.8a13.51,13.51,0,0,1,10-4.54,18.25,18.25,0,0,1,4.23.56l-.43,3a13.66,13.66,0,0,0-3.42-.56c-7.15,0-11,4.55-11.72,9.28-.86,5.41,1,8.39,3.1,10.3a7.6,7.6,0,0,1,6.86-4.16,6.33,6.33,0,0,1,2.75.56l-.88,6.28c-.81,5.14-1.69,7.3-4.14,7.43a6.53,6.53,0,0,1-3.09-1c-.67,5.14,4.18,9.5,11.06,9.53,5.26,0,9.53-3.06,10.59-9.82ZM162.25,6a24.61,24.61,0,0,0,.26-6c-3,4.72-5.81,6.87-10.93,6.85-6.89,0-12.88-4-20.43-4-12.28-.06-17.29,8.57-18.27,14.8-1.06,6.75,3.2,14,11.7,14,4.45,0,8-1.58,9.37-3.74A13.74,13.74,0,0,1,129.06,29c-2.7,0-5.21-1.25-4.72-4.36a4.53,4.53,0,0,1,4.38-3.76c4.31,0,8.48,1,12.8,1,7.15,0,18.64-2.61,20.73-15.85m-48.7,48.82a8.69,8.69,0,0,1,1.23.18c-1,1.7-2.33,3.59-4.19,6.18-2.8-3-7-7.82-8.37-9.34,3.63-1.82,8.21-4.89,8.85-8.94s-2.17-6.65-6.9-6.67c-7,0-10.84,4.3-11.5,8.53-.48,3,.5,5.64,2.33,8.43-4.24,2.44-8,5.27-8.75,10.26-.87,5.5,2.18,10.57,10,10.62,5.11,0,8.81-2.23,12-5.57,3,2.93,4.08,3.69,3.9,4.89a5,5,0,0,1-2.49,3,7.34,7.34,0,0,0,7.85-5.78c.41-2.59-1.49-4.12-4.91-7.3,2.57-3.46,4-5.86,5.23-7.49a5.15,5.15,0,0,0,1.36.13c2.4,0,4-1.24,4.52-4.21a3,3,0,0,0-.32-2c-.51,1.26-1,1.83-2.37,1.82-1.76,0-4.44-1-6.39-1a4.46,4.46,0,0,0-4.63,3.8,3.22,3.22,0,0,0,.17,1.71A6,6,0,0,1,113.6,55m-12.34-4.2c-2.65-3.24-2.69-5.39-2.42-7.1a4.48,4.48,0,0,1,4.47-3.89c2.65,0,4,1.66,3.58,4.51-.36,2.28-1.35,4.17-5.63,6.48m5,15.78a9.5,9.5,0,0,1-6.79,2.68c-5.43,0-6.8-4.15-6.18-8.06A11.41,11.41,0,0,1,96,54.82l.64.76a89.8,89.8,0,0,0,9.62,11M86,27.88c1.92-12.17-1.64-19.63-10-25C63.48,14.73,45.35,26.94,28.94,32.54c3.08,2.72,4.9,4.89,4.54,7.19l-.88,5.55c-4.21-.7-13.57.47-15.09,10.07-.36,2.3.37,6.22,2.2,7.45.63-2.3,3.72-4.72,5.61-4.71,2.83,0,3.89,1,4.89,2.33l-1.53,9.74c-12,3.31-22,12.46-24,25.71-1.56,9.87,4,20,17.22,20.12,6.2,0,11.07-3.46,14.1-7.23l7.17,7.61,3.77-23.93,4.81,5.44A179.68,179.68,0,0,1,77.54,81.65ZM26.22,85.62l-2.44,15.55c-.63,4.06-3.81,8.78-6.1,11.34-5.76-2.06-8.47-7.08-7.53-13,1.06-6.76,7.6-12.28,16.09-13.86M67.38,30.26l-7.27,46.1a69.78,69.78,0,0,0-9.72-6l8-50.43,3.51-2.55c2.75,1.37,6.68,5.58,5.53,12.89M54.47,4C49.63,8.16,46.38,9.91,39.9,9.87c-6.9,0-12.8-3.58-20.35-3.62C8.35,6.19,1.55,12.65.2,21-.93,28.2,2.62,35.66,14.63,35.72c4.86,0,8.62-1.58,10-3.74a19.48,19.48,0,0,1-6.38,1c-4,0-6.62-1.65-6.07-5.17a4.73,4.73,0,0,1,4.83-4c4.31,0,8.48,1,12.8,1C44.38,24.89,55,15.61,54.43,4"/></g></g></g></g></svg>