<svg xmlns="http://www.w3.org/2000/svg" viewBox="0 0 94.95 35.68"><defs><style>.cls-1{fill:#ddd;}</style></defs><g id="Layer_2" data-name="Layer 2"><g id="RossAitkenhead_ID_LC_outlined_Outlined_WHITE" data-name="RossAitkenhead ID LC outlined Outlined WHITE"><path class="cls-1" d="M91.61,32.3c-.5,0-2.83,0-3.42,0,0,0-1.38-2.74-1.24-4.56.14-1.56,2.15-2.15,2.42-5.76h0v-.41A5.69,5.69,0,1,0,78,21.33v.14h0v.23h0c.09,4,2.74,4.43,3,6a9.37,9.37,0,0,1-.09,3.42s-3.7-.41-9.36-4.57c-3.61-2.65-8.82-2.78-8.82-2.78L47.11,8.13s-2.24-2.56-5-1.05l.41.55s2.65-1,4.38,2.47l-.09,2.14L44.14,9.68l.23,1.19L33,0l-.41,1.92s-1.83,2.65.95,3.52l2.24.22,7.31,7.09.09,1.18,1.38,1.51v2.38l1.91,1.55.87.69-2.7,3.15h-.77v-.73H42.81V20.24H41.35v8.18h1.51V26h1v-.64h2v1h1v-1H50v1h1.32c-1.78,1.74-5.75,4-14.57,4l-9.14-.41s-2.83-2.28-.77-4.93c0,0,6.4-5.44,9.13-12,0,0,.87-2.38.23-3.2S26.32,2.88,19.7,3.06c0,0-.41,2.92,3.33,4.39,2.29.86,5,3,1,6.21,0,0-9.13,7.76-8.5,17.45L3.79,32.48S0,32.89,0,35.68H94.89S95.54,32.53,91.61,32.3Z"/></g></g></svg>