<svg xmlns="http://www.w3.org/2000/svg" xmlns:xlink="http://www.w3.org/1999/xlink" width="366.162" height="125.755" viewBox="0 0 366.162 125.755">
  <defs>
    <clipPath id="clip-path">
      <path id="Path_249" data-name="Path 249" d="M0,88.1H366.162V-37.655H0Z" transform="translate(0 37.655)" fill="#e30613"/>
    </clipPath>
  </defs>
  <g id="Group_2120" data-name="Group 2120" transform="translate(0 37.654)">
    <g id="Group_1450" data-name="Group 1450" transform="translate(0 -37.655)" clip-path="url(#clip-path)">
      <g id="Group_1446" data-name="Group 1446" transform="translate(0 0.002)">
        <path id="Path_245" data-name="Path 245" d="M218.57,65.183c-4.652-2.632-3.917-10.964-2.418-16.384,1.75-6.319,4.425-17.68,4.772-24.049.18-3.323-1.269-5.437-4.585-5.664s-7.718,3.961-10.086,4.829c-1.63.6-5.975-7.915-13.676-7.488-18,1-23.311,22.68-24.53,27.87A43.348,43.348,0,0,0,166.9,55.438c-2.592,1.513-7.17,3.837-10.75,3.787-6.205-.09-10.019-2.635-9.946-5.581.07-2.652,2.869-4.986,4.909-6.8s12.788-10.032,17.517-15.4c4.322-4.909,4.776-8.409,4.983-8.984,1.059-2.946-2.187-4.455-4.756-3.323a18.223,18.223,0,0,1-8.079,1.66c-6.873-.377-14.053-3.77-20.612-4.078-16.234-.755-16.845,14.19-16.925,15.246-.227,2.946,1.663,4.228,4.455,2.8a26.74,26.74,0,0,1,9.742-2.268,31.724,31.724,0,0,1,7.838.838c1.964.531,1.489,1.393.855,2.568-1.653,3.062-13.118,12.664-18.652,17.744a51.429,51.429,0,0,0-7.968,9.749,30.642,30.642,0,0,0,.825-9.354s-6.412,5.353-11.639,5.277c-6.125-.09-10.35-2.525-10.276-5.507.07-2.685,2.612-5.35,4.622-7.184s13.3-10.623,17.964-16.06c4.265-4.969,4.248-9.174,4.322-9.789s-.023-4.662-2.982-2.6c-3.333,2.324-9.017,1.987-9.017,1.987-6.783-.381-14.244-3.133-20.719-3.44-16.024-.765-16.318,13.916-16.4,14.985-.224,2.982,1.64,4.285,4.4,2.832a25.828,25.828,0,0,1,9.615-2.294A29.448,29.448,0,0,1,97.9,33.47c1.937.534.564,1.57-.371,2.525C94.8,38.773,84.084,49.554,78.447,54.5a37.221,37.221,0,0,0-8.005,11.038A12.712,12.712,0,0,1,69,65.293c-8.7-2.074-5.364-9.989-3.874-15.453s5.824-14.1,8.944-22.075c3.28-8.383-1.914-9.618-5.888-9.722S57.577,20.3,54,21.143c1.292,2.314,1.393,3.156.3,8.059S44.957,51.207,42.669,56.463c-.167.381-.327.808-.478,1.266a3.533,3.533,0,0,1-3.336.4c-2.585-.958-4.535-8.743-4.535-8.743s-.22-4.712-.244-6.112a16.065,16.065,0,0,0-1.125-6.743c-1.413-3.821-7.568-7.621-10.326-8.867l-.424-.19.411-.217a20.73,20.73,0,0,1,1.91-.9C42.379,19.817,50.431,14.727,49.843,3.4c-.972-18.632-31.557-20.205-31.557-20.205C22.461-26.614,28.1-22.4,25.647-19.1c8.039-1.94,5.26-8.757-2.157-8.757-1.51,0-8.453.217-14.361,11.375l-.06.1-.11.013c-1.413.157-5.293.15-5.293.15-5.731,0-25.505,1.58-40.7,8.6C-55.317.808-60.149,14.16-60.149,20.038a13.021,13.021,0,0,0,3.6,10.072c1.9,1.947,5.37,4.195,11.111,3.844C-30.366,33.029-25.263,26-22.214,21.791a5.432,5.432,0,0,0,.691-1.226q-.165.01-.321.01a8.9,8.9,0,0,1-8.89-8.89c0-16.151,33.283-19.764,34.7-19.911l.391-.04-.16.361c-.083.194-8.573,19.33-10.41,22.69-1.149,2.1-2.588,5.213-4.255,8.81-3.189,6.886-7.16,15.456-11.682,22.653C-29.628,58.157-37.673,63.7-47.462,63.7c-9.548,0-15.246-4.435-15.246-11.863a11.286,11.286,0,0,1,4.822-9.268,47.622,47.622,0,0,0-10.917.043C-87.351,44.6-93.653,59.4-93.412,71.462c.3,14.821,13.759,26.433,30.655,26.433,12.941,0,26.31-7.16,36.683-19.641C-17.952,68.486-.66,33.964-.486,33.617l.06-.117.127-.007c3.74-.257,6.636.858,8.606,3.32C11.9,41.3,11.694,49.41,9.9,55.455c-2.825,9.5-3.777,16.394-3.079,22.339.758,6.5,5.033,9.341,13.061,8.673,7.548-.625,14.858-5.7,19.557-13.576a29.4,29.4,0,0,0,2.451-5.156c1.246,3.857,4.565,6.99,11.762,6.756a30.659,30.659,0,0,0,15.008-4.275,8.616,8.616,0,0,0-.2,1.182c-.3,3.67,2.161,2.521,3.129,1.833a13.292,13.292,0,0,1,8.8-3.747c7.08-.381,10.787,5.277,25.265,5.277,5.487,0,8.95-2.258,11.128-5.283-.007.06-.017.12-.02.174-.3,3.624,2.491,2.041,3.473,1.359s2.718-1.864,7.174-2.341c6.342-.678,14.508,6.3,25.662,5.808,9.6-.424,13.522-5.788,15.065-10.894,1.9,6.436,6.031,11.3,13,11.966,15.837,1.5,18.051-7.09,18.211-6.245.554,2.969.922,7.29,10.139,7.01,13.192-.4,14.357-11.2,14.357-11.2a4.971,4.971,0,0,1-5.273.073M6.036,19.66c3.042-8.2,6.88-18.629,9.922-26.824,1.039.147,6.375,2.291,9.047,6.015,1.483,2.067,1.934,6.325,1.246,9.371C22.681,21.34,9.236,20.044,6.036,19.66M188.255,56.513c-4.128-.8-5.073-7.681-4.288-11.422.888-4.221,5.434-14.434,13.329-14.19,4.094.127,4.285,4.969,4.281,6.405-.007,5.9-5.273,20.773-13.322,19.206" transform="translate(93.419 27.86)" fill="#e30613"/>
      </g>
      <g id="Group_1447" data-name="Group 1447" transform="translate(153.809 24.176)">
        <path id="Path_246" data-name="Path 246" d="M8.41,11.285C15.857,9.943,20.4,4.907,19.036.542,17.423-4.621,12.554-5.376,7.655-4.525,2.271-3.586-4.318,1.41-3.53,5.912c.324,1.86,3.236,6.94,11.939,5.374" transform="translate(3.594 4.824)" fill="#e30613"/>
      </g>
      <g id="Group_1448" data-name="Group 1448" transform="translate(314.39 32.419)">
        <path id="Path_247" data-name="Path 247" d="M4.389,10.751c1.523.327-4.018,7.217-5.133,8.085C-2,19.818,7.4,16.528,10.935,12.528A13.579,13.579,0,0,0,14.492,3.08c.067-5.841-5.37-7.681-8.439-7.675-4.271.01-7.928,2.678-7.928,7.311,0,5.808,5.477,7.865,6.265,8.035" transform="translate(1.876 4.595)" fill="#e30613"/>
      </g>
      <g id="Group_1449" data-name="Group 1449" transform="translate(316.709 44.224)">
        <path id="Path_248" data-name="Path 248" d="M29.35,17.417c-4.475-3.186-12.4-6.633-15.984-9.929-2.261-2.081-3.34-6.1.938-7.324,7.1-2.034,11.215,3.787,7.915,6.345C19.982,8.243,32.753,8.466,33.374,5c1.182-6.593-6.9-12.474-16.02-12.44C4.289-7.4-.363-2.314-1.031,3.013c-.611,4.876,1.8,8.272,5.965,11.124,3.179,2.177,3.937,2.869,9.595,7.591C19.648,26,16.265,33.357,7.461,31.781,4.008,31.159,1.493,27.99,2.375,25.8c1.416-3.507,6.269-3.239,2.942-5.03C.745,18.308-3.937,17.764-7.343,19.267c-4.175,1.843-5.5,8.98-5.146,13.86.668,9.224,8.6,18.585,24.67,18.585,17.857,0,23.247-11.185,24.557-19.126,1.232-7.471-4.525-13.132-7.387-15.169" transform="translate(12.544 7.444)" fill="#e30613"/>
      </g>
    </g>
  </g>
</svg>
