<svg viewBox="0 0 66 67" xmlns="http://www.w3.org/2000/svg"><path d="M62.3 51.3c-.3.3-.5.5-.9 0L50.2 39.9l3-3 3.3-3.4.1-.1-3.9-4-2.5-2.5 11.2-11.4c.5-.5.7-.2.9 0 1.6 1.7 1.6 5.2.6 8.9 0 0-.7 2.7-2.3 6-.1.2-.2.5-.4.7-.1.2-.2.5-.4.7v.1l-.9 1.5c.2.2.3.5.5.7.1.2.3.5.4.7.1.2.3.5.4.7.1.2.3.5.4.7 1.6 3.3 2.3 6.1 2.3 6.1 1 3.9 1 7.3-.6 9zm-5.1 5.1l-1.4 1.4-2.8 2.9s-.9-1.2-2.2-2.5l-9.3-9.5 6.8-6.9c3.8 3.8 7.2 7.3 9.3 9.5 1.3 1.4 2.5 2.3 2.5 2.3l-2.9 2.8zM50.8 63c-1.7 1.7-5.1 1.6-8.8.6 0 0-.5-.1-1.4-.4-1.4-.5-2.9-1.1-4.2-1.8-.2-.1-.4-.2-.5-.3-.1-.1-.3-.1-.4-.2-.1 0-.1-.1-.2-.1-.7-.4-1.4-.8-2-1.3l-1.5.9c-.2.1-.5.3-.7.4-.2.1-.5.3-.7.4-3.2 1.7-6 2.4-6 2.4-3.7 1-7.1 1.1-8.7-.6-.3-.3-.5-.5 0-1l11.2-11.4 3.6 3.7 2.6 2.7.1.1 2.8-2.8 3.7-3.7L50.9 62c.4.5.2.7-.1 1zm-40.1-5.2l-1.4-1.4-2.8-2.9s1.2-.9 2.5-2.3l9.2-9.4 6.8 6.9c-3.7 3.8-7.2 7.3-9.2 9.4-1.3 1.4-2.2 2.5-2.2 2.5l-2.9-2.8zm-6.5-6.5c-3-3.1-.4-12 3.5-17.9-.7-1-1.4-2.1-1.8-3-.6-1.2-1-2.3-1.4-3.2 0-.1 0-.1-.1-.2-1.7-4.6-2.2-9.4-.2-11.4.3-.3.5-.5.9 0L16.3 27l-3.6 3.6-2.7 2.7-.1.1 2.8 2.9 3.6 3.7L5.1 51.4c-.4.4-.6.2-.9-.1zm4.9-40.8l1.4-1.4 2.8-2.9s.9 1.2 2.2 2.5c2.1 2.1 5.5 5.6 9.3 9.5L18 25.1l-9.3-9.5c-1.3-1.4-2.5-2.3-2.5-2.3l2.9-2.8zm6.5-6.6c3-3 11.8-.4 17.6 3.5.1-.1.2-.1.3-.2 1.1-.7 2.1-1.3 3.1-1.8 5.4-2.7 11.7-4 14.1-1.5.3.3.5.5 0 1L39.5 16.3l-3.6-3.7-2.7-2.7-.1-.1-2.8 2.9-3.7 3.7-11-11.6c-.5-.4-.3-.6 0-.9zM44 29.4c-.1 0-.1 0 0 0-.2.2-.9 1-2.1 2.1l-6.8-6.9 2.1-2.1 2.5-2.5 2.7 2.7 1.4 1.4 2.7 2.7c-.9.9-1.7 1.8-2.5 2.6zm-8.9 12.9l6.8-6.9c1.1 1.1 1.8 1.9 2 2l.9.9 1.6 1.6-2.8 2.8-1.4 1.4-2.6 2.7-4.5-4.5zm-10.6-7l6.8 6.9c-1.1 1.1-1.8 1.9-2 2-.8.8-1.6 1.7-2.4 2.5L24.2 44l-1.4-1.4-2.7-2.7 4.4-4.6zm6.8-10.6l-6.8 6.9-2.1-2.1-.9-.9-1.6-1.6 2.8-2.8 1.4-1.4 2.6-2.7 4.6 4.6zm1.9 19.5l1.1 1.1-1 1-1.1-1.1 1-1zM22.7 33.5l-1 1-1.1-1.1 1-1 1.1 1.1zm10.5 6.9l-6.8-6.9 6.8-6.9c2.6 2.6 4.9 5 6.8 6.9l-.1.1c-2.6 2.6-4.9 4.9-6.7 6.8zm.1-17.6l-1.1-1.1 1.1-1.1 1.1 1.1-1.1 1.1zm12.6 10.6l-1.1 1.1-1.1-1.1 1.1-1.1 1.1 1.1zM35.5 15.9c1.9 1.9 1.9 2.7 0 4.5l-2.2-2.3-.1-.1-2.3 2.3c-1.9-1.9-1.8-2.6 0-4.6l1.4-1.4.9-.9.9.9 1.4 1.6zM14.6 34.4l-.9-.9 1.6-1.6.7-.7c1.5-1.6 2.3-1.9 3.5-.9l.9.9-2.2 2.2-.1.1 2.3 2.3c-1.9 1.9-2.6 1.9-4.5 0l-1.3-1.4zM31 51c-1.9-1.9-1.9-2.7 0-4.5l2.2 2.2.1.1 2.3-2.3c1.8 1.9 1.8 2.6-.1 4.5l-1.4 1.4-.9.9-.9-.9L31 51zm19.5-19.9l1.5 1.5.7.7-1 1-1.4 1.4c-1.5 1.6-2.3 1.9-3.5.9l-.9-.9 2.2-2.3.1-.1-2.3-2.3c2-1.8 2.8-1.8 4.6.1zM55.8 9l1.4 1.4 2.8 2.9s-1.2.9-2.5 2.3c-2.1 2.1-5.5 5.6-9.2 9.4l-6.8-6.9c3.7-3.8 7.2-7.3 9.2-9.4 1.3-1.4 2.2-2.5 2.2-2.5L55.8 9zM65 39v-.2c-.7-3-1.5-5.1-1.6-5.4.1-.3.9-2.4 1.6-5.4v-.2c.1-.3.3-1.2.4-2.1.6-3.1.9-6.8.5-10.3L50.9.1c-4-.5-8.1 0-11.4.7h-.1c-.2.1-.5.1-.7.2h-.1c-3 .7-5 1.5-5.3 1.6l-.1-.1c-.6-.2-2.6-.9-5.4-1.6h-.2c-.4-.1-1.7-.4-2.8-.6-2.9-.5-6.2-.7-9.4-.3L.5 15.1C-.6 23.5 2.7 32.6 3 33.2c-.1.4-.9 2.4-1.6 5.3 0 .1 0 .1-.1.2-.1.4-.4 1.7-.6 2.8-.5 2.9-.8 6.3-.4 9.5l15 15.3c8.1 1.1 17-2.3 17.7-2.5.5.2 9.5 3.6 17.7 2.6l15-15.2c.5-3.7.1-7.6-.5-10.8 0-.5-.1-1.1-.2-1.4z" fill="#ddd" fill-rule="evenodd"/></svg>