<svg xmlns="http://www.w3.org/2000/svg" viewBox="0 0 44.61 44.65"><g id="Layer_2" data-name="Layer 2"><g id="Layer_1-2" data-name="Layer 1"><path d="M37.3,38.8l3.87,3.88H31.42A22.15,22.15,0,0,0,37.3,38.8ZM2,42.68V31.49A22.52,22.52,0,0,0,13.14,42.68ZM23.41,22.13V2A20.35,20.35,0,0,1,37.3,36Zm0,2.79L35.9,37.41a20.17,20.17,0,0,1-12.49,5.23ZM7.19,8.72,21.43,23V42.66A20.35,20.35,0,0,1,7.19,8.72Zm-1.4-1.4A22.45,22.45,0,0,0,2,13.16V3.5Zm1.39-1.4L3.23,2h9.91A23,23,0,0,0,7.18,5.92ZM21.43,20.16,8.58,7.32A20.16,20.16,0,0,1,21.43,2ZM38.69,37.41a22.34,22.34,0,0,0,3.94-6v10Zm3.94-24.16A22.46,22.46,0,0,0,31.42,2H42.63ZM44.61,0H0V44.65H44.61Z"/></g></g></svg>