<svg xmlns="http://www.w3.org/2000/svg" viewBox="0 0 665.41 665.41"><defs><style>.cls-1{fill:#72d1e1;}</style></defs><title>vero-logo-mark-white</title><g id="Layer_2" data-name="Layer 2"><g id="Layer_1-2" data-name="Layer 1"><path class="cls-1" d="M504.66,251.59a19.32,19.32,0,1,0-19.32-19.32,19.32,19.32,0,0,0,19.32,19.32"/><path class="cls-1" d="M332.71,665.41a332.7,332.7,0,0,1-235.26-568A332.7,332.7,0,0,1,568,568,330.49,330.49,0,0,1,332.71,665.41Zm0-652.41A319.7,319.7,0,0,0,106.64,558.77,319.7,319.7,0,1,0,558.77,106.64,317.62,317.62,0,0,0,332.71,13Z"/><polygon class="cls-1" points="301.03 526.57 323.29 526.57 437.67 212.95 412.33 212.95 323.63 456.64 234.59 212.95 186.3 212.95 301.03 526.57"/></g></g></svg>