<svg xmlns="http://www.w3.org/2000/svg" viewBox="0 0 137.29 103.47"><defs><style>.cls-1{fill:#9d1d96;}</style></defs><g id="Layer_2" data-name="Layer 2"><g id="Layer_1-2" data-name="Layer 1"><path class="cls-1" d="M137.29,69.63V14.22A14.26,14.26,0,0,0,123.07,0H14.22A14.26,14.26,0,0,0,0,14.22c0,64,65.67,88.28,125.72,89.25a21,21,0,0,1,11.57-33.84ZM30.26,56.9l-14-42.09h7.66l10.55,33.3h.12l10.79-33.3h7.49L38.45,56.9Zm40.08,1c-9.61,0-17.39-4.6-17.56-15h7.36c0,6.48,4.78,9,10.67,9,6.49,0,8.91-3.19,8.91-6.37a5,5,0,0,0-3.48-5.19c-2.95-1.12-6.78-1.89-12.56-3.48-7.19-1.94-9.31-6.31-9.31-10.67,0-8.43,7.78-12.38,15.38-12.38,8.79,0,16.15,4.66,16.15,13.44H78.54c-.36-5.42-4-7.42-9.08-7.42-3.42,0-7.72,1.23-7.72,5.48,0,3,2,4.6,5,5.42.64.18,10,2.6,12.14,3.25A11.13,11.13,0,0,1,87.07,44.7C87.08,54.13,78.71,57.9,70.34,57.9Zm49.81-1-4-11.15H99.4l-4,11.15H87.8L104,14.81h7.84L128.05,56.9Z"/><path class="cls-1" d="M107.89,22.06h-.12l-6.37,18.1h12.86L108,22.06Z"/></g></g></svg>