<svg xmlns="http://www.w3.org/2000/svg" viewBox="0 0 561.98 68.59"><title>expressionEngine</title><g id="Layer_2" data-name="Layer 2"><g id="Layer_1-2" data-name="Layer 1"><path d="M185.76,53.13l-7.18-12.22,10.75-12.63.22-1.48h-7.32l-6.5,8.1a7.55,7.55,0,0,0-1.12,2.63,4.46,4.46,0,0,0-.43-2.58l-4.56-8.15H161.2l8,13.9L156.42,55.61h8.42l7.25-8.8a7.6,7.6,0,0,0,1.23-2.63,5.83,5.83,0,0,0,.54,2.63l5,8.8h6.55Z"/><path d="M160.48,22.94H141.92l-1.34,9.28h16.95l-2.63,6H139.5a2.3,2.3,0,0,1,.06,1L138.05,49.6h18.62l-.86,6H130l5.58-38.68h25.75Z"/><path d="M216.68,41c-1.34,9.45-5.52,15.51-15.66,15.51a14.29,14.29,0,0,1-6-1.29,4.35,4.35,0,0,1,.22,1.88l-1.67,11.53h-7.18l6-41.79h5.15l.59,2.36a12.39,12.39,0,0,1,8-3.22c7.67,0,10.78,4.45,10.78,11.16A23.73,23.73,0,0,1,216.68,41Zm-12-9.55a10.35,10.35,0,0,0-6,1.83L196.3,49.92A13.1,13.1,0,0,0,201.77,51c4.34,0,6.71-2.8,7.73-10a24.43,24.43,0,0,0,.32-3.59C209.82,33.08,208.1,31.41,204.67,31.41Z"/><path d="M238.68,32.38a27.55,27.55,0,0,0-3.71-.27,11.62,11.62,0,0,0-6.06,1.45l-3.16,22h-7.19l4.13-28.81h5.9l.43,2.31a10.24,10.24,0,0,1,7.4-3.17,16,16,0,0,1,3.17.38Z"/><path d="M266.08,43.27H246.71a20.11,20.11,0,0,0-.16,2.31c0,3.54,1.61,5.2,5.58,5.2a8.06,8.06,0,0,0,7.35-4L264.9,49c-2.52,4.83-7.24,7.46-13.57,7.46-8.16,0-11.86-4.35-11.86-11.59a30.28,30.28,0,0,1,.27-3.7c1.55-10.57,6.17-15.24,16-15.24,8.9,0,10.94,6.28,10.94,11.64A46.26,46.26,0,0,1,266.08,43.27ZM254.87,31.63c-4.08,0-6.06,1.55-7.24,6.6h11.8a10.65,10.65,0,0,0,.16-1.77C259.59,33.29,258,31.63,254.87,31.63Z"/><path d="M288.24,34.42c-1-1.83-2.9-2.85-5.85-2.85-2.31,0-5.1.49-5.1,3.38a2,2,0,0,0,1.77,2.1l6.22,1.12c3.92.7,7.14,2.9,7.14,7.09,0,8.2-6.81,11.21-13.95,11.21-5,0-9-1.72-10.94-6.22l6-2.2c1.12,2,2.95,3,5.69,3s6-.81,6-4.14a2.14,2.14,0,0,0-2.09-2.3l-6.71-1.24a7.25,7.25,0,0,1-6.17-7.4c0-7.62,6.28-10,12.93-10,6,0,9.23,2.42,10.68,5.85Z"/><path d="M314.58,34.42c-1-1.83-2.9-2.85-5.85-2.85-2.31,0-5.09.49-5.09,3.38a2,2,0,0,0,1.77,2.1l6.22,1.12c3.92.7,7.13,2.9,7.13,7.09,0,8.2-6.81,11.21-13.95,11.21-5,0-9-1.72-10.94-6.22l6-2.2c1.13,2,2.95,3,5.69,3s6-.81,6-4.14a2.14,2.14,0,0,0-2.09-2.3l-6.7-1.24a7.24,7.24,0,0,1-6.17-7.4c0-7.62,6.27-10,12.93-10,5.95,0,9.22,2.42,10.67,5.85Z"/><path d="M334.59,56.09h-3.65c-4.18,0-6.22-1.82-6.22-5.58a11.83,11.83,0,0,1,.16-1.88L327,33.77a3.22,3.22,0,0,1,.74-1.55h-5.2l.75-5.42h11.86l-3.11,21.83a4.15,4.15,0,0,0-.05.76c0,.64.26.86,1.07.86h2.3Zm1.45-35c-.06.48-.06.48-.49.48h-7c-.43,0-.43,0-.38-.48l1-6.65c.05-.54.05-.59.48-.59h7c.43,0,.43,0,.37.59Z"/><path d="M366,41.18c-1.45,10-5.79,15.29-15.72,15.29-8.48,0-11.53-5.21-11.53-11.75a27,27,0,0,1,.27-3.54c1.44-10.14,5.74-15.24,15.66-15.24,8.43,0,11.59,4.94,11.59,11.59A29.49,29.49,0,0,1,366,41.18ZM353.8,31.63c-4.41,0-6.55,2.25-7.62,9.55a25.92,25.92,0,0,0-.33,3.81c0,4.34,1.72,5.79,5.21,5.79,4.34,0,6.65-2.25,7.72-9.6a24,24,0,0,0,.32-3.7C359.1,33.08,357.33,31.63,353.8,31.63Z"/><path d="M394.43,37.48,391.8,55.61h-7.14l2.63-18.13a11.37,11.37,0,0,0,.16-1.88c0-2.47-1-4.08-3.65-4.08-2.2,0-4.77,1.23-6.86,2.52l-3.12,21.57h-7.13l4.13-28.81h5.9l.49,2.63c3.32-2.63,6-3.49,9-3.49,6,0,8.42,3.81,8.42,8.91A24.46,24.46,0,0,1,394.43,37.48Z"/><path d="M428.92,22.94H410.36L409,32.22h17l-2.63,6h-15.4a2.3,2.3,0,0,1,.06,1L406.5,49.6h18.61l-.86,6h-25.8L404,16.93h25.75Z"/><path d="M455.68,37.48l-2.63,18.13h-7.13l2.63-18.13a12.56,12.56,0,0,0,.16-1.88c0-2.47-1-4.08-3.65-4.08-2.2,0-4.78,1.23-6.87,2.52l-3.11,21.57h-7.14l4.14-28.81H438l.49,2.63c3.33-2.63,6-3.49,9-3.49,6,0,8.43,3.81,8.43,8.91A22.2,22.2,0,0,1,455.68,37.48Z"/><path d="M491.66,32.22h-3.49a6.56,6.56,0,0,1-2.57-.48,10.61,10.61,0,0,1,.75,3.91c0,8.37-6.65,11.59-14.11,11.59a21.34,21.34,0,0,1-4.67-.48,2.45,2.45,0,0,0-.7-.11,1.14,1.14,0,0,0-1.28,1.23c0,.54.27.92,1.44,1.13l10.36,1.93c5.74,1.07,7.73,3.54,7.73,6.71,0,9.28-8.7,10.94-16,10.94-5.79,0-13.36-1.55-13.36-8.8a10.27,10.27,0,0,1,5.2-8.9,4.2,4.2,0,0,1-1-2.58A5.09,5.09,0,0,1,463,44a9.32,9.32,0,0,1-1.87-5.68c0-8.43,6.54-12.4,14.21-12.4A14.56,14.56,0,0,1,483,27.76l4.14-.93h5.2Zm-16.42,23.5-10.08-1.88c-1.61,1.71-2.31,2.84-2.31,5.26,0,2.73,1.93,4,7.08,4,3.38,0,8.05-.54,8.05-4.89C478,56.84,477.28,56.09,475.24,55.72Zm-.69-24.15c-4,0-6.33,2.31-6.33,6.28,0,2.68,1.71,3.81,4.83,3.81,4,0,6.27-2.14,6.27-6.11C479.32,32.92,477.77,31.57,474.55,31.57Z"/><path d="M501.64,56.09H498c-4.19,0-6.22-1.82-6.22-5.58a11.83,11.83,0,0,1,.16-1.88l2.14-14.86a3.28,3.28,0,0,1,.76-1.55h-5.21l.75-5.42h11.86l-3.11,21.83a3.47,3.47,0,0,0-.06.76c0,.64.27.86,1.07.86h2.31Zm1.44-35c-.05.48-.05.48-.47.48h-7c-.43,0-.43,0-.38-.48l1-6.65c0-.54,0-.59.48-.59h7c.43,0,.43,0,.37.59Z"/><path d="M532.65,37.48,530,55.61h-7.13l2.63-18.13a11.37,11.37,0,0,0,.16-1.88c0-2.47-1-4.08-3.65-4.08-2.2,0-4.78,1.23-6.87,2.52l-3.11,21.57h-7.14l4.14-28.81H515l.48,2.63c3.33-2.63,6-3.49,9-3.49,6,0,8.43,3.81,8.43,8.91A22.2,22.2,0,0,1,532.65,37.48Z"/><path d="M561.39,43.27H542a20.11,20.11,0,0,0-.16,2.31c0,3.54,1.62,5.2,5.58,5.2a8,8,0,0,0,7.35-4l5.42,2.2c-2.52,4.83-7.24,7.46-13.57,7.46-8.15,0-11.86-4.35-11.86-11.59a30.28,30.28,0,0,1,.27-3.7c1.56-10.57,6.17-15.24,16-15.24C560,25.94,562,32.22,562,37.58A46.26,46.26,0,0,1,561.39,43.27ZM550.18,31.63c-4.07,0-6.06,1.55-7.24,6.6h11.8a10.65,10.65,0,0,0,.16-1.77C554.9,33.29,553.35,31.63,550.18,31.63Z"/><path d="M61.35,42.37a28.58,28.58,0,0,1-6.71,5.12,13.82,13.82,0,0,1-6,1.39,7.8,7.8,0,0,1-5.92-2.33A9.15,9.15,0,0,1,40.56,40l.19-2.82.39-.07c6.88-1.16,12.06-2.49,15.41-4a17.62,17.62,0,0,0,7.19-5.1,9.68,9.68,0,0,0,2.17-5.75,6.94,6.94,0,0,0-2.65-5.61c-1.79-1.49-4.37-2.24-7.67-2.24A27.18,27.18,0,0,0,42.7,17.63a24.58,24.58,0,0,0-9.42,8.68A21.49,21.49,0,0,0,29.84,37.8c0,4.44,1.37,8,4.06,10.56s6.49,3.88,11.23,3.88a22.75,22.75,0,0,0,9.49-2,30.26,30.26,0,0,0,8.6-6.48ZM41.2,34.29c1-5.78,2.83-10.38,5.37-13.7C48.36,18.21,50.35,17,52.48,17a3.63,3.63,0,0,1,2.83,1.29,5.06,5.06,0,0,1,1.1,3.43c0,3.32-1.5,6.34-4.44,9-2.14,1.91-5.56,3.3-10.19,4.15l-.7.13Z"/><path d="M14.55,43.29C10.64,28,19.89,12,35.78,4.73c-.4.14-.77.31-1.16.45a10.12,10.12,0,0,1,1-.44L5.89,12.42l7.93,4.69C3.43,25.91-1.93,36.82.64,46.88c4,15.75,26.05,24,51,19.93C34.22,68.11,18.45,58.58,14.55,43.29Z"/><path d="M84.31,24.53C88.21,39.82,79,55.8,63.07,63.1l1.17-.46c-.4.19-.76.35-1,.45L93,55.41,85,50.71C95.42,41.91,100.79,31,98.22,20.94,94.19,5.2,72.16-3,47.21,1,64.63-.28,80.4,9.25,84.31,24.53Z"/></g></g></svg>